<svg xmlns="http://www.w3.org/2000/svg" xmlns:xlink="http://www.w3.org/1999/xlink" width="500" zoomAndPan="magnify" viewBox="0 0 375 374.999991" height="500" preserveAspectRatio="xMidYMid meet" version="1.0"><defs><g/></defs><g fill="#41b211" fill-opacity="1"><g transform="translate(20.824222, 212.249986)"><g><path d="M 33.796875 -48.25 L 34.046875 -48.1875 C 35.109375 -47.550781 36.035156 -46.835938 36.828125 -46.046875 C 37.617188 -45.253906 38.34375 -44.421875 39 -43.546875 C 39.664062 -42.671875 40.191406 -41.722656 40.578125 -40.703125 C 42.203125 -36.773438 40.796875 -32.378906 36.359375 -27.515625 C 34.472656 -25.472656 32.359375 -23.722656 30.015625 -22.265625 C 30.609375 -21.835938 31.171875 -21.53125 31.703125 -21.34375 C 32.242188 -21.15625 33.003906 -20.789062 33.984375 -20.25 C 34.960938 -19.71875 35.601562 -18.71875 35.90625 -17.25 C 36.207031 -15.78125 36.132812 -14.125 35.6875 -12.28125 C 35.238281 -10.445312 34.425781 -8.5625 33.25 -6.625 C 32.070312 -4.6875 30.546875 -2.945312 28.671875 -1.40625 C 24.398438 2.132812 19.453125 3.628906 13.828125 3.078125 C 13.015625 3.078125 12.5 3.007812 12.28125 2.875 C 12.070312 2.75 11.898438 2.644531 11.765625 2.5625 C 11.640625 2.476562 11.363281 2.414062 10.9375 2.375 C 9.875 3.21875 8.660156 3.742188 7.296875 3.953125 C 5.929688 4.171875 4.640625 4.066406 3.421875 3.640625 C 2.203125 3.222656 1.175781 2.5 0.34375 1.46875 C -0.476562 0.445312 -0.890625 -0.894531 -0.890625 -2.5625 C -0.765625 -3.664062 -0.550781 -4.539062 -0.25 -5.1875 C -0.382812 -5.570312 -0.453125 -6.039062 -0.453125 -6.59375 C 1.003906 -14.3125 2.367188 -20.21875 3.640625 -24.3125 C 6.242188 -32.46875 9.0625 -38.613281 12.09375 -42.75 C 14.570312 -46.25 18.007812 -48.507812 22.40625 -49.53125 C 26.625 -50.519531 30.421875 -50.09375 33.796875 -48.25 Z M 13.890625 -3.578125 C 14.398438 -3.710938 14.835938 -3.742188 15.203125 -3.671875 C 15.566406 -3.609375 16.003906 -3.625 16.515625 -3.71875 C 17.753906 -3.84375 19.414062 -4.609375 21.5 -6.015625 C 22.820312 -7.335938 23.523438 -8.640625 23.609375 -9.921875 C 23.703125 -11.203125 23.515625 -12.019531 23.046875 -12.375 C 22.578125 -12.738281 21.945312 -12.921875 21.15625 -12.921875 C 20.363281 -12.921875 19.488281 -12.800781 18.53125 -12.5625 C 17.570312 -12.332031 16.644531 -12.195312 15.75 -12.15625 L 15.75 -12.03125 C 15.53125 -11.175781 15.3125 -10.425781 15.09375 -9.78125 C 14.882812 -9.144531 14.695312 -8.53125 14.53125 -7.9375 C 14.144531 -6.53125 13.84375 -5.078125 13.625 -3.578125 Z M 25.796875 -36.859375 C 24.515625 -37.035156 23.125 -36.035156 21.625 -33.859375 C 20.6875 -32.492188 19.960938 -30.421875 19.453125 -27.640625 C 20.347656 -28.023438 21.234375 -28.359375 22.109375 -28.640625 C 22.984375 -28.921875 23.804688 -29.226562 24.578125 -29.5625 C 26.453125 -30.375 27.796875 -31.359375 28.609375 -32.515625 C 29.546875 -33.617188 29.84375 -34.554688 29.5 -35.328125 C 28.988281 -36.015625 28.160156 -36.632812 27.015625 -37.1875 C 26.671875 -36.882812 26.265625 -36.773438 25.796875 -36.859375 Z M 24.828125 -37.125 L 25.03125 -37.125 Z M 24.828125 -37.125 "/></g></g></g><g fill="#41b211" fill-opacity="1"><g transform="translate(58.261929, 212.249986)"><g><path d="M 11.515625 -45.4375 C 12.328125 -47.40625 13.476562 -48.109375 14.96875 -47.546875 C 15.394531 -48.484375 15.769531 -49.082031 16.09375 -49.34375 C 16.414062 -49.601562 16.742188 -49.804688 17.078125 -49.953125 C 17.421875 -50.097656 17.785156 -50.253906 18.171875 -50.421875 C 18.554688 -50.597656 19.15625 -50.75 19.96875 -50.875 C 20.78125 -51.007812 21.675781 -51.085938 22.65625 -51.109375 C 23.632812 -51.128906 24.625 -51.070312 25.625 -50.9375 C 26.632812 -50.8125 27.476562 -50.535156 28.15625 -50.109375 C 29.820312 -49.128906 30.1875 -47.550781 29.25 -45.375 C 29.332031 -45.414062 29.3125 -45.375 29.1875 -45.25 L 28.609375 -44.15625 L 28.15625 -43.578125 C 27.945312 -43.367188 27.285156 -42.070312 26.171875 -39.6875 C 25.273438 -37.976562 24.359375 -36.289062 23.421875 -34.625 C 21.890625 -31.769531 20.953125 -29.9375 20.609375 -29.125 C 22.097656 -29.9375 23.828125 -31.109375 25.796875 -32.640625 C 29.503906 -35.492188 31.867188 -37.195312 32.890625 -37.75 C 33.921875 -38.3125 34.632812 -38.65625 35.03125 -38.78125 C 35.4375 -38.90625 35.832031 -38.9375 36.21875 -38.875 C 36.601562 -38.8125 37.007812 -38.695312 37.4375 -38.53125 L 39.046875 -37.890625 C 40.066406 -37.546875 40.617188 -36.304688 40.703125 -34.171875 C 40.742188 -32.085938 40.316406 -30.507812 39.421875 -29.4375 C 35.535156 -24.40625 31.160156 -21.035156 26.296875 -19.328125 C 24.804688 -18.773438 23.273438 -18.304688 21.703125 -17.921875 C 23.960938 -17.660156 26.113281 -16.164062 28.15625 -13.4375 C 29.820312 -11.21875 31.023438 -8.9375 31.765625 -6.59375 C 32.515625 -4.25 33.101562 -2.507812 33.53125 -1.375 C 33.957031 -0.25 34.140625 0.617188 34.078125 1.234375 C 34.015625 1.859375 33.648438 2.332031 32.984375 2.65625 C 32.328125 2.976562 31.207031 3.285156 29.625 3.578125 C 28.90625 3.710938 27.414062 2.863281 25.15625 1.03125 C 24.175781 0.21875 23.128906 -0.664062 22.015625 -1.625 C 20.910156 -2.59375 19.800781 -3.503906 18.6875 -4.359375 C 16.125 -6.359375 14.332031 -7.398438 13.3125 -7.484375 C 13.226562 -7.484375 13.054688 -7.523438 12.796875 -7.609375 L 11.640625 -4.734375 C 11.046875 -3.328125 10.4375 -1.84375 9.8125 -0.28125 C 9.195312 1.269531 8.460938 2.664062 7.609375 3.90625 C 6.285156 4.800781 4.753906 5.160156 3.015625 4.984375 C 1.003906 4.773438 -0.316406 3.96875 -0.953125 2.5625 C -1.378906 1.238281 -0.675781 -2.644531 1.15625 -9.09375 C 2.394531 -13.613281 3.460938 -17.578125 4.359375 -20.984375 C 5.253906 -24.398438 6.019531 -27.226562 6.65625 -29.46875 C 7.289062 -31.707031 7.757812 -33.457031 8.0625 -34.71875 C 8.363281 -35.976562 8.660156 -37.207031 8.953125 -38.40625 C 9.679688 -41.175781 10.535156 -43.519531 11.515625 -45.4375 Z M 11.515625 -45.4375 "/></g></g></g><g fill="#41b211" fill-opacity="1"><g transform="translate(95.315652, 212.249986)"><g><path d="M 11.515625 -45.4375 C 12.328125 -47.40625 13.476562 -48.109375 14.96875 -47.546875 C 15.394531 -48.484375 15.769531 -49.082031 16.09375 -49.34375 C 16.414062 -49.601562 16.742188 -49.804688 17.078125 -49.953125 C 17.421875 -50.097656 17.785156 -50.253906 18.171875 -50.421875 C 18.554688 -50.597656 19.15625 -50.75 19.96875 -50.875 C 20.78125 -51.007812 21.675781 -51.085938 22.65625 -51.109375 C 23.632812 -51.128906 24.625 -51.070312 25.625 -50.9375 C 26.632812 -50.8125 27.476562 -50.535156 28.15625 -50.109375 C 29.820312 -49.128906 30.1875 -47.550781 29.25 -45.375 C 29.332031 -45.414062 29.3125 -45.375 29.1875 -45.25 L 28.609375 -44.15625 L 28.15625 -43.578125 C 27.945312 -43.367188 27.285156 -42.070312 26.171875 -39.6875 C 25.273438 -37.976562 24.359375 -36.289062 23.421875 -34.625 C 21.890625 -31.769531 20.953125 -29.9375 20.609375 -29.125 C 22.097656 -29.9375 23.828125 -31.109375 25.796875 -32.640625 C 29.503906 -35.492188 31.867188 -37.195312 32.890625 -37.75 C 33.921875 -38.3125 34.632812 -38.65625 35.03125 -38.78125 C 35.4375 -38.90625 35.832031 -38.9375 36.21875 -38.875 C 36.601562 -38.8125 37.007812 -38.695312 37.4375 -38.53125 L 39.046875 -37.890625 C 40.066406 -37.546875 40.617188 -36.304688 40.703125 -34.171875 C 40.742188 -32.085938 40.316406 -30.507812 39.421875 -29.4375 C 35.535156 -24.40625 31.160156 -21.035156 26.296875 -19.328125 C 24.804688 -18.773438 23.273438 -18.304688 21.703125 -17.921875 C 23.960938 -17.660156 26.113281 -16.164062 28.15625 -13.4375 C 29.820312 -11.21875 31.023438 -8.9375 31.765625 -6.59375 C 32.515625 -4.25 33.101562 -2.507812 33.53125 -1.375 C 33.957031 -0.25 34.140625 0.617188 34.078125 1.234375 C 34.015625 1.859375 33.648438 2.332031 32.984375 2.65625 C 32.328125 2.976562 31.207031 3.285156 29.625 3.578125 C 28.90625 3.710938 27.414062 2.863281 25.15625 1.03125 C 24.175781 0.21875 23.128906 -0.664062 22.015625 -1.625 C 20.910156 -2.59375 19.800781 -3.503906 18.6875 -4.359375 C 16.125 -6.359375 14.332031 -7.398438 13.3125 -7.484375 C 13.226562 -7.484375 13.054688 -7.523438 12.796875 -7.609375 L 11.640625 -4.734375 C 11.046875 -3.328125 10.4375 -1.84375 9.8125 -0.28125 C 9.195312 1.269531 8.460938 2.664062 7.609375 3.90625 C 6.285156 4.800781 4.753906 5.160156 3.015625 4.984375 C 1.003906 4.773438 -0.316406 3.96875 -0.953125 2.5625 C -1.378906 1.238281 -0.675781 -2.644531 1.15625 -9.09375 C 2.394531 -13.613281 3.460938 -17.578125 4.359375 -20.984375 C 5.253906 -24.398438 6.019531 -27.226562 6.65625 -29.46875 C 7.289062 -31.707031 7.757812 -33.457031 8.0625 -34.71875 C 8.363281 -35.976562 8.660156 -37.207031 8.953125 -38.40625 C 9.679688 -41.175781 10.535156 -43.519531 11.515625 -45.4375 Z M 11.515625 -45.4375 "/></g></g></g><g fill="#41b211" fill-opacity="1"><g transform="translate(132.369376, 212.249986)"><g/></g></g><g fill="#41b211" fill-opacity="1"><g transform="translate(152.336156, 212.249986)"><g><path d="M 22.296875 -16.40625 C 21.128906 -13.0625 19.945312 -9.851562 18.75 -6.78125 C 17.550781 -3.707031 16.554688 -1.375 15.765625 0.21875 C 14.984375 1.820312 14.289062 2.921875 13.6875 3.515625 C 13.09375 4.117188 12.484375 4.523438 11.859375 4.734375 C 11.242188 4.953125 10.628906 5.035156 10.015625 4.984375 C 9.398438 4.941406 8.769531 4.898438 8.125 4.859375 C 4.539062 4.304688 3.429688 1.726562 4.796875 -2.875 C 5.691406 -6.550781 6.414062 -9.550781 6.96875 -11.875 C 7.53125 -14.195312 7.988281 -16.113281 8.34375 -17.625 C 8.707031 -19.144531 9.015625 -20.40625 9.265625 -21.40625 C 9.523438 -22.40625 9.804688 -23.394531 10.109375 -24.375 C 10.410156 -25.363281 10.785156 -26.472656 11.234375 -27.703125 C 11.679688 -28.941406 12.265625 -30.585938 12.984375 -32.640625 C 11.367188 -32.421875 9.921875 -32.59375 8.640625 -33.15625 C 6.765625 -33.96875 6 -35.71875 6.34375 -38.40625 C 6.507812 -39.632812 7.164062 -40.785156 8.3125 -41.859375 C 8.914062 -42.410156 9.625 -43.003906 10.4375 -43.640625 C 12.09375 -44.960938 15.398438 -46.375 20.359375 -47.875 C 25.472656 -49.40625 29.863281 -50.128906 33.53125 -50.046875 C 34.519531 -50.210938 35.535156 -50.09375 36.578125 -49.6875 C 37.617188 -49.289062 38.457031 -48.75 39.09375 -48.0625 C 39.738281 -47.382812 40.070312 -46.640625 40.09375 -45.828125 C 40.113281 -45.015625 39.59375 -44.285156 38.53125 -43.640625 C 38.019531 -43.304688 37.65625 -42.742188 37.4375 -41.953125 C 37.226562 -41.160156 36.992188 -40.328125 36.734375 -39.453125 C 36.484375 -38.578125 36.109375 -37.773438 35.609375 -37.046875 C 35.117188 -36.328125 34.34375 -35.90625 33.28125 -35.78125 C 32.726562 -35.476562 31.945312 -35.257812 30.9375 -35.125 C 29.9375 -35 29.273438 -34.90625 28.953125 -34.84375 C 28.640625 -34.78125 28.460938 -34.664062 28.421875 -34.5 C 27.648438 -32.238281 26.726562 -29.492188 25.65625 -26.265625 C 24.59375 -23.046875 23.472656 -19.757812 22.296875 -16.40625 Z M 13.625 -33.34375 C 13.539062 -33.34375 13.5 -33.332031 13.5 -33.3125 C 13.5 -33.289062 13.539062 -33.28125 13.625 -33.28125 Z M 13.625 -33.34375 "/></g></g></g><g fill="#41b211" fill-opacity="1"><g transform="translate(184.46218, 212.249986)"><g><path d="M 11.203125 0.1875 C 10.816406 1.894531 9.492188 2.941406 7.234375 3.328125 C 5.140625 3.710938 3.15625 3.476562 1.28125 2.625 C -0.8125 1.726562 -1.726562 0.46875 -1.46875 -1.15625 C -1.726562 -3.625 -0.425781 -9 2.4375 -17.28125 C 6.695312 -29.695312 10.960938 -38.570312 15.234375 -43.90625 C 16.335938 -45.269531 17.285156 -46.15625 18.078125 -46.5625 C 18.867188 -46.96875 19.773438 -47.335938 20.796875 -47.671875 C 21.828125 -48.015625 22.894531 -48.335938 24 -48.640625 C 26.21875 -49.234375 28.316406 -49.644531 30.296875 -49.875 C 32.285156 -50.113281 34.066406 -49.878906 35.640625 -49.171875 C 37.222656 -48.472656 38.453125 -47.441406 39.328125 -46.078125 C 40.203125 -44.710938 40.742188 -43.101562 40.953125 -41.25 C 41.171875 -39.394531 41.109375 -37.453125 40.765625 -35.421875 C 40.421875 -33.398438 39.800781 -31.351562 38.90625 -29.28125 C 38.007812 -27.207031 36.878906 -25.273438 35.515625 -23.484375 C 32.535156 -19.554688 29.039062 -17.019531 25.03125 -15.875 L 25.65625 -14.78125 C 26.21875 -13.925781 26.890625 -12.988281 27.671875 -11.96875 C 28.460938 -10.945312 29.253906 -9.898438 30.046875 -8.828125 C 30.835938 -7.765625 31.550781 -6.695312 32.1875 -5.625 C 32.832031 -4.5625 33.300781 -3.5625 33.59375 -2.625 C 34.28125 -0.53125 33.75 0.984375 32 1.921875 C 30.59375 2.773438 29.484375 2.988281 28.671875 2.5625 C 28.328125 2.34375 27.984375 2.070312 27.640625 1.75 C 27.304688 1.4375 26.835938 1.171875 26.234375 0.953125 C 23.722656 1.679688 21.804688 1.046875 20.484375 -0.953125 C 19.671875 -2.234375 19.050781 -3.40625 18.625 -4.46875 C 18.195312 -5.539062 17.832031 -6.441406 17.53125 -7.171875 C 16.769531 -8.742188 15.894531 -10.109375 14.90625 -11.265625 C 14.4375 -10.109375 13.90625 -8.632812 13.3125 -6.84375 C 12.582031 -4.582031 11.769531 -2.238281 10.875 0.1875 Z M 24.125 -37.0625 C 23.3125 -35.21875 22.757812 -33.9375 22.46875 -33.21875 C 21.863281 -31.769531 21.203125 -30.171875 20.484375 -28.421875 C 20.347656 -27.484375 20.238281 -26.820312 20.15625 -26.4375 L 21.0625 -27.328125 L 22.140625 -27.84375 C 22.910156 -28.269531 23.613281 -28.648438 24.25 -28.984375 C 24.894531 -29.328125 25.472656 -29.753906 25.984375 -30.265625 C 26.960938 -31.253906 27.816406 -32.859375 28.546875 -35.078125 C 28.546875 -35.503906 28.617188 -35.925781 28.765625 -36.34375 C 28.910156 -36.769531 29.007812 -37.195312 29.0625 -37.625 C 29.226562 -38.570312 28.84375 -39.234375 27.90625 -39.609375 C 27.050781 -39.703125 25.984375 -39 24.703125 -37.5 C 24.441406 -37.207031 24.25 -37.0625 24.125 -37.0625 Z M 24.125 -37.0625 "/></g></g></g><g fill="#41b211" fill-opacity="1"><g transform="translate(221.70789, 212.249986)"><g><path d="M 35.390625 -43.390625 C 36.835938 -42.617188 37.753906 -41.488281 38.140625 -40 C 37.285156 -35.21875 36.515625 -30.46875 35.828125 -25.75 C 35.148438 -21.039062 34.488281 -17.097656 33.84375 -13.921875 C 33.207031 -10.742188 32.769531 -8.363281 32.53125 -6.78125 C 32.300781 -5.207031 32.039062 -3.628906 31.75 -2.046875 L 31.359375 -0.703125 C 31.273438 -0.234375 31.1875 0.203125 31.09375 0.609375 C 31.007812 1.015625 30.925781 1.453125 30.84375 1.921875 C 29.65625 3.285156 28.035156 3.96875 25.984375 3.96875 C 23.804688 3.96875 22.078125 3.410156 20.796875 2.296875 C 20.023438 1.703125 19.898438 0.445312 20.421875 -1.46875 C 20.628906 -2.238281 20.765625 -3.226562 20.828125 -4.4375 C 20.890625 -5.65625 20.96875 -6.671875 21.0625 -7.484375 L 21.0625 -7.609375 C 19.78125 -7.140625 18.625 -6.53125 17.59375 -5.78125 C 16.570312 -5.039062 15.929688 -4.570312 15.671875 -4.375 C 15.421875 -4.1875 15.082031 -4.039062 14.65625 -3.9375 C 14.226562 -3.832031 13.84375 -3.757812 13.5 -3.71875 C 12.6875 -3.664062 12.132812 -3.535156 11.84375 -3.328125 C 9.363281 1.109375 7.144531 3.582031 5.1875 4.09375 C 3.945312 4.476562 2.707031 4.570312 1.46875 4.375 C 0.226562 4.1875 -0.75 3.453125 -1.46875 2.171875 C -2.832031 0.890625 -2.492188 -2.601562 -0.453125 -8.3125 C 0.660156 -11.34375 2.25 -14.976562 4.3125 -19.21875 C 6.382812 -23.46875 8.378906 -27.175781 10.296875 -30.34375 C 14.441406 -37.125 18.988281 -42.835938 23.9375 -47.484375 C 24.75 -47.828125 25.625 -48.222656 26.5625 -48.671875 C 27.5 -49.117188 28.425781 -49.363281 29.34375 -49.40625 C 30.257812 -49.445312 31.207031 -49.335938 32.1875 -49.078125 C 33.164062 -48.828125 34 -48.445312 34.6875 -47.9375 C 36.269531 -46.738281 36.503906 -45.222656 35.390625 -43.390625 Z M 21.703125 -26.5625 C 20.804688 -24 19.90625 -21.640625 19 -19.484375 C 18.101562 -17.328125 17.335938 -15.441406 16.703125 -13.828125 L 21.765625 -14.015625 C 22.097656 -16.742188 22.476562 -19.453125 22.90625 -22.140625 C 23.332031 -24.828125 23.738281 -27.515625 24.125 -30.203125 Z M 19.96875 -13.765625 C 20.5625 -13.765625 21.160156 -13.804688 21.765625 -13.890625 L 21.765625 -13.953125 C 21.203125 -13.910156 20.6875 -13.867188 20.21875 -13.828125 C 19.75 -13.785156 19.664062 -13.765625 19.96875 -13.765625 Z M 19.96875 -13.765625 "/></g></g></g><g fill="#41b211" fill-opacity="1"><g transform="translate(257.801684, 212.249986)"><g><path d="M 5.0625 -2.109375 L 4.609375 -43.453125 C 4.609375 -44.472656 5.023438 -45.359375 5.859375 -46.109375 C 6.691406 -46.859375 7.640625 -47.378906 8.703125 -47.671875 C 9.765625 -47.972656 10.765625 -48.015625 11.703125 -47.796875 C 12.648438 -47.585938 13.25 -47.035156 13.5 -46.140625 C 14.3125 -44.523438 14.867188 -42.285156 15.171875 -39.421875 C 15.722656 -34.085938 16 -29.476562 16 -25.59375 C 16.425781 -24.914062 16.957031 -24.597656 17.59375 -24.640625 C 19.4375 -29.117188 21.46875 -33.425781 23.6875 -37.5625 C 25.90625 -41.707031 27.332031 -44.363281 27.96875 -45.53125 C 28.601562 -46.707031 29.367188 -47.53125 30.265625 -48 C 31.160156 -48.46875 32.125 -48.765625 33.15625 -48.890625 C 35.375 -49.148438 37.460938 -48.769531 39.421875 -47.75 C 40.910156 -47.226562 41.785156 -46.351562 42.046875 -45.125 C 43.023438 -43.15625 42.363281 -40.890625 40.0625 -38.328125 C 37.375 -34.066406 34.664062 -29.351562 31.9375 -24.1875 C 26.726562 -14.25 23.421875 -8.128906 22.015625 -5.828125 C 20.609375 -3.523438 19.582031 -1.890625 18.9375 -0.921875 C 18.300781 0.0351562 17.578125 0.832031 16.765625 1.46875 C 15.316406 2.625 13.566406 3.09375 11.515625 2.875 C 7.929688 2.75 5.84375 1.617188 5.25 -0.515625 C 5.125 -1.109375 5.0625 -1.640625 5.0625 -2.109375 Z M 5.0625 -2.109375 "/></g></g></g><g fill="#41b211" fill-opacity="1"><g transform="translate(290.759659, 212.249986)"><g><path d="M 14.46875 -8.0625 C 16.9375 -7.8125 18.78125 -7.6875 20 -7.6875 C 21.21875 -7.6875 23.0625 -7.851562 25.53125 -8.1875 C 26.300781 -7.9375 26.75 -7.617188 26.875 -7.234375 C 27.007812 -6.847656 27.050781 -6.453125 27 -6.046875 C 26.957031 -5.640625 26.976562 -5.242188 27.0625 -4.859375 C 27.15625 -4.472656 27.5625 -4.15625 28.28125 -3.90625 C 28.664062 -3.78125 28.785156 -3.40625 28.640625 -2.78125 C 28.492188 -2.164062 28.140625 -1.492188 27.578125 -0.765625 C 26.171875 1.066406 24.507812 2.347656 22.59375 3.078125 C 19.519531 3.835938 17.109375 4.285156 15.359375 4.421875 C 12.460938 4.628906 9.304688 4.519531 5.890625 4.09375 C 2.128906 3.414062 0.316406 1.859375 0.453125 -0.578125 C 0.453125 -9.535156 2.414062 -18.535156 6.34375 -27.578125 C 7.613281 -30.523438 9.0625 -33.617188 10.6875 -36.859375 C 11.03125 -37.546875 11.234375 -38.316406 11.296875 -39.171875 C 11.359375 -40.023438 11.410156 -40.851562 11.453125 -41.65625 C 11.492188 -42.46875 11.617188 -43.191406 11.828125 -43.828125 C 12.046875 -44.472656 12.5 -44.925781 13.1875 -45.1875 C 22.0625 -48.726562 29.078125 -50.09375 34.234375 -49.28125 C 36.023438 -49.238281 37.207031 -48.628906 37.78125 -47.453125 C 38.363281 -46.285156 38.429688 -44.972656 37.984375 -43.515625 C 37.535156 -42.066406 36.660156 -40.703125 35.359375 -39.421875 C 34.054688 -38.140625 32.425781 -37.351562 30.46875 -37.0625 C 27.945312 -36.332031 26.410156 -35.835938 25.859375 -35.578125 C 24.785156 -35.066406 24.015625 -34.382812 23.546875 -33.53125 C 22.953125 -32.59375 22.398438 -31.695312 21.890625 -30.84375 C 21.378906 -29.988281 21.015625 -29.070312 20.796875 -28.09375 L 20.546875 -26.6875 C 21.359375 -26.300781 22.347656 -26.179688 23.515625 -26.328125 C 24.691406 -26.484375 25.78125 -26.632812 26.78125 -26.78125 C 27.78125 -26.9375 28.585938 -26.945312 29.203125 -26.8125 C 29.828125 -26.6875 29.957031 -26.054688 29.59375 -24.921875 C 29.238281 -23.796875 28.578125 -22.53125 27.609375 -21.125 C 26.648438 -19.71875 25.296875 -18.691406 23.546875 -18.046875 C 22.441406 -17.835938 21.6875 -17.675781 21.28125 -17.5625 C 20.875 -17.457031 20.566406 -17.382812 20.359375 -17.34375 C 20.054688 -17.300781 19.203125 -17.238281 17.796875 -17.15625 C 15.785156 -13.738281 14.566406 -11.09375 14.140625 -9.21875 C 13.972656 -8.445312 14.082031 -8.0625 14.46875 -8.0625 Z M 14.46875 -8.0625 "/></g></g></g><g fill="#41b211" fill-opacity="1"><g transform="translate(324.293592, 212.249986)"><g><path d="M 22.203125 3.078125 C 21.304688 3.328125 20.453125 3.460938 19.640625 3.484375 C 18.835938 3.503906 18.019531 3.535156 17.1875 3.578125 C 16.351562 3.617188 15.207031 3.640625 13.75 3.640625 C 12.300781 3.640625 10.128906 3.597656 7.234375 3.515625 C 6.546875 3.554688 5.859375 3.578125 5.171875 3.578125 C 4.492188 3.578125 3.859375 3.453125 3.265625 3.203125 C 1.941406 2.648438 1.046875 1.367188 0.578125 -0.640625 C 0.359375 -1.578125 0.113281 -2.238281 -0.15625 -2.625 C -0.4375 -3.007812 -0.660156 -3.375 -0.828125 -3.71875 C -1.253906 -4.394531 -1.222656 -5.519531 -0.734375 -7.09375 C -0.242188 -8.675781 0.378906 -10.628906 1.140625 -12.953125 C 1.910156 -15.285156 2.789062 -17.753906 3.78125 -20.359375 C 6.082031 -26.535156 8.148438 -31.441406 9.984375 -35.078125 C 10.710938 -36.691406 11.34375 -38.097656 11.875 -39.296875 C 12.40625 -40.492188 12.882812 -41.53125 13.3125 -42.40625 C 13.738281 -43.28125 13.953125 -43.738281 13.953125 -43.78125 C 14.378906 -45.394531 16.019531 -46.757812 18.875 -47.875 C 21.644531 -49.019531 24.164062 -49.316406 26.4375 -48.765625 C 28.945312 -48.128906 30.054688 -46.46875 29.765625 -43.78125 C 29.160156 -41.132812 28.269531 -38.488281 27.09375 -35.84375 C 25.925781 -33.195312 24.59375 -30.421875 23.09375 -27.515625 C 21.601562 -24.617188 19.984375 -21.546875 18.234375 -18.296875 C 16.484375 -15.054688 14.753906 -11.539062 13.046875 -7.75 C 13.003906 -7.570312 13.09375 -7.421875 13.3125 -7.296875 C 13.863281 -7.335938 14.640625 -7.503906 15.640625 -7.796875 C 16.648438 -8.097656 17.695312 -8.363281 18.78125 -8.59375 C 19.875 -8.832031 20.953125 -8.953125 22.015625 -8.953125 C 23.078125 -8.953125 23.972656 -8.675781 24.703125 -8.125 C 24.660156 -7.351562 24.851562 -6.742188 25.28125 -6.296875 C 25.707031 -5.847656 26.132812 -5.410156 26.5625 -4.984375 C 27.625 -3.878906 27.707031 -2.410156 26.8125 -0.578125 C 25.957031 1.210938 24.421875 2.429688 22.203125 3.078125 Z M 22.203125 3.078125 "/></g></g></g><g fill="#41b211" fill-opacity="1"><g transform="translate(76.97756, 250.680041)"><g><path d="M 16.4375 -22.875 C 16.84375 -22.851562 17.046875 -22.722656 17.046875 -22.484375 C 17.046875 -22.203125 16.828125 -21.890625 16.390625 -21.546875 C 15.953125 -21.203125 15.566406 -21.03125 15.234375 -21.03125 C 13.628906 -21.03125 11.847656 -20.984375 9.890625 -20.890625 C 8.296875 -14.523438 7.191406 -8.625 6.578125 -3.1875 C 6.835938 -3.164062 7.054688 -3.101562 7.234375 -3 C 7.410156 -2.90625 7.5 -2.773438 7.5 -2.609375 C 7.5 -2.378906 7.332031 -2.132812 7 -1.875 L 5.90625 -1.03125 C 5.78125 -0.90625 5.535156 -0.785156 5.171875 -0.671875 C 4.804688 -0.554688 4.460938 -0.5 4.140625 -0.5 C 3.566406 -0.5 3.304688 -0.734375 3.359375 -1.203125 C 4.015625 -7.347656 5.207031 -13.804688 6.9375 -20.578125 L 6.921875 -20.6875 C 4.785156 -20.5 2.796875 -20.296875 0.953125 -20.078125 C 0.671875 -20.035156 0.445312 -20.078125 0.28125 -20.203125 C 0.113281 -20.328125 0.0390625 -20.519531 0.0625 -20.78125 C 0.0703125 -21.039062 0.234375 -21.253906 0.546875 -21.421875 C 0.859375 -21.585938 1.191406 -21.71875 1.546875 -21.8125 C 3.335938 -22.332031 5.332031 -22.6875 7.53125 -22.875 L 7.703125 -23.359375 C 7.773438 -23.617188 8.035156 -23.84375 8.484375 -24.03125 C 8.929688 -24.226562 9.367188 -24.328125 9.796875 -24.328125 C 10.078125 -24.328125 10.296875 -24.269531 10.453125 -24.15625 C 10.617188 -24.050781 10.671875 -23.894531 10.609375 -23.6875 L 10.4375 -23.046875 L 11.765625 -23.078125 C 13.117188 -23.078125 14.675781 -23.007812 16.4375 -22.875 Z M 16.4375 -22.875 "/></g></g></g><g fill="#41b211" fill-opacity="1"><g transform="translate(93.047701, 250.680041)"><g><path d="M 8.453125 -18.484375 C 8.992188 -18.703125 9.488281 -18.8125 9.9375 -18.8125 C 10.425781 -18.8125 10.816406 -18.6875 11.109375 -18.4375 C 11.410156 -18.1875 11.5625 -17.78125 11.5625 -17.21875 C 11.5625 -16.675781 11.476562 -16.085938 11.3125 -15.453125 C 11.144531 -14.816406 10.910156 -14.070312 10.609375 -13.21875 L 10.21875 -12.046875 C 10.101562 -11.691406 9.8125 -11.390625 9.34375 -11.140625 C 8.882812 -10.898438 8.441406 -10.78125 8.015625 -10.78125 C 7.734375 -10.78125 7.519531 -10.835938 7.375 -10.953125 C 7.238281 -11.078125 7.207031 -11.265625 7.28125 -11.515625 C 7.613281 -12.554688 7.945312 -13.710938 8.28125 -14.984375 C 8.363281 -15.554688 8.421875 -15.9375 8.453125 -16.125 L 8.34375 -16.015625 C 6.90625 -14.785156 5.585938 -13.238281 4.390625 -11.375 C 3.847656 -8.40625 3.515625 -5.425781 3.390625 -2.4375 C 3.367188 -2.082031 3.128906 -1.769531 2.671875 -1.5 C 2.210938 -1.226562 1.742188 -1.09375 1.265625 -1.09375 C 0.984375 -1.09375 0.75 -1.15625 0.5625 -1.28125 C 0.375 -1.414062 0.289062 -1.613281 0.3125 -1.875 C 0.457031 -4.5625 0.742188 -7.175781 1.171875 -9.71875 C 0.984375 -9.84375 0.890625 -9.988281 0.890625 -10.15625 C 0.890625 -10.269531 0.929688 -10.394531 1.015625 -10.53125 L 1.421875 -11.234375 C 1.835938 -13.378906 2.34375 -15.535156 2.9375 -17.703125 C 3.03125 -18.035156 3.320312 -18.328125 3.8125 -18.578125 C 4.3125 -18.828125 4.785156 -18.953125 5.234375 -18.953125 C 5.515625 -18.953125 5.726562 -18.894531 5.875 -18.78125 C 6.03125 -18.675781 6.066406 -18.507812 5.984375 -18.28125 C 5.691406 -17.238281 5.507812 -16.550781 5.4375 -16.21875 C 6.550781 -17.332031 7.554688 -18.085938 8.453125 -18.484375 Z M 8.453125 -18.484375 "/></g></g></g><g fill="#41b211" fill-opacity="1"><g transform="translate(105.870283, 250.680041)"><g><path d="M 3.15625 -5.203125 C 3.125 -4.984375 3.109375 -4.828125 3.109375 -4.734375 C 3.109375 -3.984375 3.472656 -3.609375 4.203125 -3.609375 C 4.628906 -3.609375 5.148438 -3.726562 5.765625 -3.96875 C 6.328125 -4.195312 7.363281 -4.675781 8.875 -5.40625 C 8.914062 -5.875 8.957031 -6.328125 9 -6.765625 C 9.050781 -7.203125 9.09375 -7.597656 9.125 -7.953125 L 9.328125 -9.890625 C 8.035156 -9.265625 7.070312 -8.773438 6.4375 -8.421875 C 5.507812 -7.878906 4.765625 -7.367188 4.203125 -6.890625 C 3.640625 -6.421875 3.289062 -5.859375 3.15625 -5.203125 Z M 10.4375 -18.390625 C 11.28125 -18.390625 11.847656 -18.179688 12.140625 -17.765625 C 12.429688 -17.347656 12.578125 -16.738281 12.578125 -15.9375 L 12.546875 -15.140625 C 12.472656 -13.785156 12.304688 -11.789062 12.046875 -9.15625 C 11.984375 -8.78125 11.914062 -8.15625 11.84375 -7.28125 C 11.769531 -6.738281 11.703125 -6.300781 11.640625 -5.96875 C 11.847656 -5.851562 11.953125 -5.703125 11.953125 -5.515625 C 11.953125 -5.378906 11.890625 -5.179688 11.765625 -4.921875 L 11.640625 -4.78125 L 11.484375 -4.625 C 11.347656 -3.664062 11.28125 -2.851562 11.28125 -2.1875 C 11.539062 -2.03125 11.671875 -1.851562 11.671875 -1.65625 C 11.671875 -1.332031 11.4375 -0.992188 10.96875 -0.640625 C 10.84375 -0.546875 10.695312 -0.453125 10.53125 -0.359375 C 10.394531 -0.285156 10.207031 -0.21875 9.96875 -0.15625 C 9.738281 -0.101562 9.515625 -0.078125 9.296875 -0.078125 C 8.609375 -0.078125 8.289062 -0.332031 8.34375 -0.84375 L 8.5625 -3.1875 C 6.0625 -2 4.140625 -1.40625 2.796875 -1.40625 C 1.097656 -1.40625 0.25 -2.316406 0.25 -4.140625 C 0.25 -5.898438 1.160156 -7.394531 2.984375 -8.625 C 4.804688 -9.851562 6.984375 -10.960938 9.515625 -11.953125 C 9.585938 -12.679688 9.644531 -13.421875 9.6875 -14.171875 C 9.6875 -14.316406 9.695312 -14.5 9.71875 -14.71875 C 9.738281 -14.945312 9.75 -15.203125 9.75 -15.484375 C 9.75 -15.835938 9.71875 -16.070312 9.65625 -16.1875 L 9.578125 -16.296875 L 9.546875 -16.296875 C 9.265625 -16.296875 8.742188 -15.910156 7.984375 -15.140625 C 7.285156 -14.472656 6.425781 -13.46875 5.40625 -12.125 C 5.257812 -11.914062 5.007812 -11.742188 4.65625 -11.609375 C 4.3125 -11.484375 3.960938 -11.421875 3.609375 -11.421875 C 3.347656 -11.421875 3.128906 -11.46875 2.953125 -11.5625 C 2.773438 -11.65625 2.6875 -11.796875 2.6875 -11.984375 C 2.6875 -12.128906 2.757812 -12.328125 2.90625 -12.578125 C 5.488281 -16.453125 8 -18.390625 10.4375 -18.390625 Z M 10.4375 -18.390625 "/></g></g></g><g fill="#41b211" fill-opacity="1"><g transform="translate(121.520481, 250.680041)"><g><path d="M 10.84375 -18.0625 C 10.96875 -18.25 11.226562 -18.410156 11.625 -18.546875 C 12.03125 -18.691406 12.410156 -18.765625 12.765625 -18.765625 C 13.023438 -18.765625 13.234375 -18.722656 13.390625 -18.640625 C 13.554688 -18.566406 13.640625 -18.445312 13.640625 -18.28125 C 13.640625 -18.15625 13.59375 -18.015625 13.5 -17.859375 C 11.96875 -15.304688 10.679688 -12.773438 9.640625 -10.265625 C 8.609375 -7.753906 7.8125 -5.15625 7.25 -2.46875 C 7.175781 -2.113281 6.910156 -1.789062 6.453125 -1.5 C 5.992188 -1.207031 5.539062 -1.0625 5.09375 -1.0625 C 4.59375 -1.0625 4.273438 -1.257812 4.140625 -1.65625 C 3.429688 -3.738281 2.929688 -5.867188 2.640625 -8.046875 C 2.359375 -10.222656 2.09375 -13.035156 1.84375 -16.484375 L 1.8125 -17.078125 C 1.800781 -17.492188 2.050781 -17.859375 2.5625 -18.171875 C 3.070312 -18.484375 3.582031 -18.640625 4.09375 -18.640625 C 4.570312 -18.640625 4.820312 -18.472656 4.84375 -18.140625 C 4.882812 -17.691406 4.90625 -17.335938 4.90625 -17.078125 L 4.90625 -17 C 5.101562 -13.425781 5.398438 -10.53125 5.796875 -8.3125 C 7.085938 -12.007812 8.769531 -15.257812 10.84375 -18.0625 Z M 10.84375 -18.0625 "/></g></g></g><g fill="#41b211" fill-opacity="1"><g transform="translate(136.666752, 250.680041)"><g><path d="M 8.09375 -16.09375 C 7.132812 -15.375 6.359375 -14.203125 5.765625 -12.578125 C 7.597656 -13.265625 9.25 -13.84375 10.71875 -14.3125 C 10.101562 -15.164062 9.476562 -15.742188 8.84375 -16.046875 C 8.71875 -16.097656 8.59375 -16.132812 8.46875 -16.15625 C 8.34375 -16.175781 8.273438 -16.1875 8.265625 -16.1875 C 8.273438 -16.164062 8.253906 -16.144531 8.203125 -16.125 C 8.160156 -16.101562 8.125 -16.09375 8.09375 -16.09375 Z M 8.203125 -18.09375 C 8.503906 -18.164062 8.820312 -18.203125 9.15625 -18.203125 C 10.945312 -18.203125 12.570312 -17 14.03125 -14.59375 C 14.082031 -14.507812 14.109375 -14.414062 14.109375 -14.3125 C 14.109375 -14.101562 13.976562 -13.882812 13.71875 -13.65625 C 13.507812 -13.4375 13.25 -13.257812 12.9375 -13.125 C 11.070312 -12.3125 8.476562 -11.332031 5.15625 -10.1875 C 4.96875 -9.238281 4.875 -8.257812 4.875 -7.25 C 4.875 -6.78125 4.882812 -6.445312 4.90625 -6.25 C 4.9375 -5.40625 5.101562 -4.675781 5.40625 -4.0625 C 5.5 -3.851562 5.632812 -3.65625 5.8125 -3.46875 C 5.988281 -3.28125 6.125 -3.160156 6.21875 -3.109375 C 6.269531 -3.066406 6.363281 -3.046875 6.5 -3.046875 C 6.625 -3.046875 6.773438 -3.082031 6.953125 -3.15625 C 7.128906 -3.238281 7.332031 -3.34375 7.5625 -3.46875 C 8.101562 -3.789062 8.601562 -4.15625 9.0625 -4.5625 C 9.53125 -4.976562 10.09375 -5.507812 10.75 -6.15625 C 11.007812 -6.414062 11.445312 -6.546875 12.0625 -6.546875 C 12.40625 -6.546875 12.691406 -6.492188 12.921875 -6.390625 C 13.148438 -6.296875 13.265625 -6.15625 13.265625 -5.96875 C 13.265625 -5.800781 13.171875 -5.613281 12.984375 -5.40625 C 11.828125 -4.15625 10.640625 -3.085938 9.421875 -2.203125 C 8.210938 -1.328125 7.003906 -0.890625 5.796875 -0.890625 C 5.210938 -0.890625 4.671875 -1.015625 4.171875 -1.265625 C 3.328125 -1.648438 2.71875 -2.269531 2.34375 -3.125 C 1.976562 -3.988281 1.796875 -5 1.796875 -6.15625 C 1.796875 -7.019531 1.90625 -8.03125 2.125 -9.1875 L 1.90625 -9.125 L 1.6875 -9.046875 C 1.40625 -8.953125 1.179688 -8.90625 1.015625 -8.90625 C 0.742188 -8.90625 0.535156 -8.96875 0.390625 -9.09375 C 0.242188 -9.226562 0.171875 -9.398438 0.171875 -9.609375 C 0.171875 -9.847656 0.265625 -10.082031 0.453125 -10.3125 C 0.648438 -10.550781 0.945312 -10.742188 1.34375 -10.890625 L 2.71875 -11.421875 C 2.882812 -11.941406 3.132812 -12.625 3.46875 -13.46875 C 3.988281 -14.625 4.640625 -15.617188 5.421875 -16.453125 C 6.210938 -17.296875 7.140625 -17.84375 8.203125 -18.09375 Z M 8.203125 -18.09375 "/></g></g></g><g fill="#41b211" fill-opacity="1"><g transform="translate(152.848874, 250.680041)"><g><path d="M 3.046875 -23.46875 C 3.085938 -23.820312 3.335938 -24.125 3.796875 -24.375 C 4.253906 -24.625 4.707031 -24.75 5.15625 -24.75 C 5.4375 -24.75 5.648438 -24.691406 5.796875 -24.578125 C 5.941406 -24.472656 6.003906 -24.296875 5.984375 -24.046875 C 5.453125 -19.179688 4.894531 -14.3125 4.3125 -9.4375 L 3.46875 -2.125 C 3.4375 -1.769531 3.1875 -1.460938 2.71875 -1.203125 C 2.25 -0.941406 1.78125 -0.8125 1.3125 -0.8125 C 0.675781 -0.8125 0.390625 -1.054688 0.453125 -1.546875 L 1.765625 -12.515625 C 2.359375 -17.671875 2.785156 -21.320312 3.046875 -23.46875 Z M 3.046875 -23.46875 "/></g></g></g><g fill="#41b211" fill-opacity="1"><g transform="translate(160.968096, 250.680041)"><g/></g></g><g fill="#41b211" fill-opacity="1"><g transform="translate(171.159042, 250.680041)"><g><path d="M 16.4375 -22.875 C 16.84375 -22.851562 17.046875 -22.722656 17.046875 -22.484375 C 17.046875 -22.203125 16.828125 -21.890625 16.390625 -21.546875 C 15.953125 -21.203125 15.566406 -21.03125 15.234375 -21.03125 C 13.628906 -21.03125 11.847656 -20.984375 9.890625 -20.890625 C 8.296875 -14.523438 7.191406 -8.625 6.578125 -3.1875 C 6.835938 -3.164062 7.054688 -3.101562 7.234375 -3 C 7.410156 -2.90625 7.5 -2.773438 7.5 -2.609375 C 7.5 -2.378906 7.332031 -2.132812 7 -1.875 L 5.90625 -1.03125 C 5.78125 -0.90625 5.535156 -0.785156 5.171875 -0.671875 C 4.804688 -0.554688 4.460938 -0.5 4.140625 -0.5 C 3.566406 -0.5 3.304688 -0.734375 3.359375 -1.203125 C 4.015625 -7.347656 5.207031 -13.804688 6.9375 -20.578125 L 6.921875 -20.6875 C 4.785156 -20.5 2.796875 -20.296875 0.953125 -20.078125 C 0.671875 -20.035156 0.445312 -20.078125 0.28125 -20.203125 C 0.113281 -20.328125 0.0390625 -20.519531 0.0625 -20.78125 C 0.0703125 -21.039062 0.234375 -21.253906 0.546875 -21.421875 C 0.859375 -21.585938 1.191406 -21.71875 1.546875 -21.8125 C 3.335938 -22.332031 5.332031 -22.6875 7.53125 -22.875 L 7.703125 -23.359375 C 7.773438 -23.617188 8.035156 -23.84375 8.484375 -24.03125 C 8.929688 -24.226562 9.367188 -24.328125 9.796875 -24.328125 C 10.078125 -24.328125 10.296875 -24.269531 10.453125 -24.15625 C 10.617188 -24.050781 10.671875 -23.894531 10.609375 -23.6875 L 10.4375 -23.046875 L 11.765625 -23.078125 C 13.117188 -23.078125 14.675781 -23.007812 16.4375 -22.875 Z M 16.4375 -22.875 "/></g></g></g><g fill="#41b211" fill-opacity="1"><g transform="translate(187.229178, 250.680041)"><g><path d="M 12.265625 -18.25 C 12.566406 -18.15625 12.707031 -17.960938 12.6875 -17.671875 C 12.164062 -12.660156 11.398438 -7.441406 10.390625 -2.015625 C 10.316406 -1.660156 10.054688 -1.359375 9.609375 -1.109375 C 9.160156 -0.867188 8.710938 -0.75 8.265625 -0.75 C 7.984375 -0.75 7.757812 -0.8125 7.59375 -0.9375 C 7.425781 -1.0625 7.367188 -1.234375 7.421875 -1.453125 C 7.867188 -3.398438 8.238281 -5.390625 8.53125 -7.421875 C 8.832031 -9.453125 9.125 -11.785156 9.40625 -14.421875 C 7.875 -13.003906 6.34375 -11.453125 4.8125 -9.765625 L 3.28125 -1.265625 C 3.195312 -0.910156 2.921875 -0.597656 2.453125 -0.328125 C 1.992188 -0.0664062 1.53125 0.0625 1.0625 0.0625 C 0.78125 0.0625 0.566406 0 0.421875 -0.125 C 0.273438 -0.25 0.21875 -0.429688 0.25 -0.671875 L 1.625 -8.375 C 1.394531 -8.425781 1.28125 -8.554688 1.28125 -8.765625 C 1.28125 -8.910156 1.367188 -9.097656 1.546875 -9.328125 L 1.875 -9.765625 L 4.390625 -23.46875 C 4.453125 -23.800781 4.710938 -24.085938 5.171875 -24.328125 C 5.640625 -24.578125 6.097656 -24.703125 6.546875 -24.703125 C 6.804688 -24.703125 7.007812 -24.644531 7.15625 -24.53125 C 7.3125 -24.414062 7.375 -24.253906 7.34375 -24.046875 L 5.546875 -13.921875 C 6.921875 -15.296875 8.457031 -16.609375 10.15625 -17.859375 C 10.695312 -18.234375 11.203125 -18.421875 11.671875 -18.421875 C 11.898438 -18.421875 12.097656 -18.363281 12.265625 -18.25 Z M 12.265625 -18.25 "/></g></g></g><g fill="#41b211" fill-opacity="1"><g transform="translate(203.551278, 250.680041)"><g><path d="M 8.09375 -16.09375 C 7.132812 -15.375 6.359375 -14.203125 5.765625 -12.578125 C 7.597656 -13.265625 9.25 -13.84375 10.71875 -14.3125 C 10.101562 -15.164062 9.476562 -15.742188 8.84375 -16.046875 C 8.71875 -16.097656 8.59375 -16.132812 8.46875 -16.15625 C 8.34375 -16.175781 8.273438 -16.1875 8.265625 -16.1875 C 8.273438 -16.164062 8.253906 -16.144531 8.203125 -16.125 C 8.160156 -16.101562 8.125 -16.09375 8.09375 -16.09375 Z M 8.203125 -18.09375 C 8.503906 -18.164062 8.820312 -18.203125 9.15625 -18.203125 C 10.945312 -18.203125 12.570312 -17 14.03125 -14.59375 C 14.082031 -14.507812 14.109375 -14.414062 14.109375 -14.3125 C 14.109375 -14.101562 13.976562 -13.882812 13.71875 -13.65625 C 13.507812 -13.4375 13.25 -13.257812 12.9375 -13.125 C 11.070312 -12.3125 8.476562 -11.332031 5.15625 -10.1875 C 4.96875 -9.238281 4.875 -8.257812 4.875 -7.25 C 4.875 -6.78125 4.882812 -6.445312 4.90625 -6.25 C 4.9375 -5.40625 5.101562 -4.675781 5.40625 -4.0625 C 5.5 -3.851562 5.632812 -3.65625 5.8125 -3.46875 C 5.988281 -3.28125 6.125 -3.160156 6.21875 -3.109375 C 6.269531 -3.066406 6.363281 -3.046875 6.5 -3.046875 C 6.625 -3.046875 6.773438 -3.082031 6.953125 -3.15625 C 7.128906 -3.238281 7.332031 -3.34375 7.5625 -3.46875 C 8.101562 -3.789062 8.601562 -4.15625 9.0625 -4.5625 C 9.53125 -4.976562 10.09375 -5.507812 10.75 -6.15625 C 11.007812 -6.414062 11.445312 -6.546875 12.0625 -6.546875 C 12.40625 -6.546875 12.691406 -6.492188 12.921875 -6.390625 C 13.148438 -6.296875 13.265625 -6.15625 13.265625 -5.96875 C 13.265625 -5.800781 13.171875 -5.613281 12.984375 -5.40625 C 11.828125 -4.15625 10.640625 -3.085938 9.421875 -2.203125 C 8.210938 -1.328125 7.003906 -0.890625 5.796875 -0.890625 C 5.210938 -0.890625 4.671875 -1.015625 4.171875 -1.265625 C 3.328125 -1.648438 2.71875 -2.269531 2.34375 -3.125 C 1.976562 -3.988281 1.796875 -5 1.796875 -6.15625 C 1.796875 -7.019531 1.90625 -8.03125 2.125 -9.1875 L 1.90625 -9.125 L 1.6875 -9.046875 C 1.40625 -8.953125 1.179688 -8.90625 1.015625 -8.90625 C 0.742188 -8.90625 0.535156 -8.96875 0.390625 -9.09375 C 0.242188 -9.226562 0.171875 -9.398438 0.171875 -9.609375 C 0.171875 -9.847656 0.265625 -10.082031 0.453125 -10.3125 C 0.648438 -10.550781 0.945312 -10.742188 1.34375 -10.890625 L 2.71875 -11.421875 C 2.882812 -11.941406 3.132812 -12.625 3.46875 -13.46875 C 3.988281 -14.625 4.640625 -15.617188 5.421875 -16.453125 C 6.210938 -17.296875 7.140625 -17.84375 8.203125 -18.09375 Z M 8.203125 -18.09375 "/></g></g></g><g fill="#41b211" fill-opacity="1"><g transform="translate(219.733395, 250.680041)"><g/></g></g><g fill="#41b211" fill-opacity="1"><g transform="translate(229.924335, 250.680041)"><g><path d="M 16.328125 -22.8125 C 16.453125 -23.082031 16.722656 -23.304688 17.140625 -23.484375 C 17.566406 -23.660156 17.984375 -23.75 18.390625 -23.75 C 18.972656 -23.75 19.265625 -23.578125 19.265625 -23.234375 C 19.265625 -23.109375 19.226562 -22.976562 19.15625 -22.84375 C 18 -20.644531 16.988281 -18.382812 16.125 -16.0625 C 15.269531 -13.75 14.289062 -10.847656 13.1875 -7.359375 C 12.40625 -4.859375 11.800781 -2.992188 11.375 -1.765625 C 11.28125 -1.503906 11.007812 -1.25 10.5625 -1 C 10.113281 -0.757812 9.691406 -0.640625 9.296875 -0.640625 C 8.828125 -0.640625 8.554688 -0.835938 8.484375 -1.234375 C 7.890625 -4.234375 7.535156 -7.414062 7.421875 -10.78125 L 3.5625 -1.875 C 3.445312 -1.613281 3.148438 -1.363281 2.671875 -1.125 C 2.191406 -0.894531 1.757812 -0.78125 1.375 -0.78125 C 1.113281 -0.78125 0.90625 -0.84375 0.75 -0.96875 C 0.601562 -1.101562 0.550781 -1.300781 0.59375 -1.5625 C 0.851562 -3.789062 1.222656 -7.125 1.703125 -11.5625 L 2.796875 -21.5625 C 2.835938 -21.894531 3.085938 -22.1875 3.546875 -22.4375 C 4.015625 -22.6875 4.472656 -22.8125 4.921875 -22.8125 C 5.203125 -22.8125 5.414062 -22.753906 5.5625 -22.640625 C 5.71875 -22.535156 5.785156 -22.367188 5.765625 -22.140625 C 5.460938 -19.378906 5.050781 -15.648438 4.53125 -10.953125 C 5.238281 -12.554688 6.285156 -14.960938 7.671875 -18.171875 C 7.785156 -18.429688 8.070312 -18.671875 8.53125 -18.890625 C 9 -19.117188 9.441406 -19.234375 9.859375 -19.234375 C 10.117188 -19.234375 10.316406 -19.164062 10.453125 -19.03125 C 10.597656 -18.90625 10.660156 -18.710938 10.640625 -18.453125 C 10.429688 -16.429688 10.328125 -14.476562 10.328125 -12.59375 C 10.328125 -11.175781 10.382812 -9.769531 10.5 -8.375 C 11.4375 -11.300781 12.351562 -13.921875 13.25 -16.234375 C 14.144531 -18.554688 15.171875 -20.75 16.328125 -22.8125 Z M 16.328125 -22.8125 "/></g></g></g><g fill="#41b211" fill-opacity="1"><g transform="translate(248.458132, 250.680041)"><g><path d="M 11.171875 -10.8125 C 11.171875 -12.789062 10.015625 -14.347656 7.703125 -15.484375 C 7.117188 -14.992188 6.539062 -14.347656 5.96875 -13.546875 C 5.257812 -12.523438 4.671875 -11.378906 4.203125 -10.109375 C 4.015625 -9.609375 3.835938 -8.921875 3.671875 -8.046875 C 3.503906 -7.179688 3.421875 -6.375 3.421875 -5.625 C 3.421875 -4.863281 3.523438 -4.253906 3.734375 -3.796875 C 3.953125 -3.335938 4.300781 -3.109375 4.78125 -3.109375 C 5.175781 -3.109375 5.632812 -3.265625 6.15625 -3.578125 C 7.59375 -4.421875 8.785156 -5.46875 9.734375 -6.71875 C 10.691406 -7.96875 11.171875 -9.332031 11.171875 -10.8125 Z M 11.953125 -15.875 C 12.628906 -15.238281 13.148438 -14.519531 13.515625 -13.71875 C 13.878906 -12.914062 14.0625 -12.066406 14.0625 -11.171875 C 14.0625 -9.878906 13.6875 -8.570312 12.9375 -7.25 C 12.4375 -6.351562 11.695312 -5.410156 10.71875 -4.421875 C 9.75 -3.429688 8.671875 -2.59375 7.484375 -1.90625 C 6.304688 -1.226562 5.175781 -0.890625 4.09375 -0.890625 C 3.414062 -0.890625 2.78125 -1.039062 2.1875 -1.34375 C 0.914062 -2.03125 0.28125 -3.269531 0.28125 -5.0625 C 0.28125 -6.351562 0.566406 -7.769531 1.140625 -9.3125 C 1.722656 -10.851562 2.34375 -12.15625 3 -13.21875 C 4.582031 -15.738281 6.253906 -17.320312 8.015625 -17.96875 C 8.492188 -18.15625 9.015625 -18.25 9.578125 -18.25 C 10.234375 -18.25 10.785156 -18.085938 11.234375 -17.765625 C 11.679688 -17.441406 11.941406 -16.929688 12.015625 -16.234375 L 12.015625 -16.125 C 12.015625 -16.070312 11.992188 -15.988281 11.953125 -15.875 Z M 11.953125 -15.875 "/></g></g></g><g fill="#41b211" fill-opacity="1"><g transform="translate(264.500275, 250.680041)"><g><path d="M 8.453125 -18.484375 C 8.992188 -18.703125 9.488281 -18.8125 9.9375 -18.8125 C 10.425781 -18.8125 10.816406 -18.6875 11.109375 -18.4375 C 11.410156 -18.1875 11.5625 -17.78125 11.5625 -17.21875 C 11.5625 -16.675781 11.476562 -16.085938 11.3125 -15.453125 C 11.144531 -14.816406 10.910156 -14.070312 10.609375 -13.21875 L 10.21875 -12.046875 C 10.101562 -11.691406 9.8125 -11.390625 9.34375 -11.140625 C 8.882812 -10.898438 8.441406 -10.78125 8.015625 -10.78125 C 7.734375 -10.78125 7.519531 -10.835938 7.375 -10.953125 C 7.238281 -11.078125 7.207031 -11.265625 7.28125 -11.515625 C 7.613281 -12.554688 7.945312 -13.710938 8.28125 -14.984375 C 8.363281 -15.554688 8.421875 -15.9375 8.453125 -16.125 L 8.34375 -16.015625 C 6.90625 -14.785156 5.585938 -13.238281 4.390625 -11.375 C 3.847656 -8.40625 3.515625 -5.425781 3.390625 -2.4375 C 3.367188 -2.082031 3.128906 -1.769531 2.671875 -1.5 C 2.210938 -1.226562 1.742188 -1.09375 1.265625 -1.09375 C 0.984375 -1.09375 0.75 -1.15625 0.5625 -1.28125 C 0.375 -1.414062 0.289062 -1.613281 0.3125 -1.875 C 0.457031 -4.5625 0.742188 -7.175781 1.171875 -9.71875 C 0.984375 -9.84375 0.890625 -9.988281 0.890625 -10.15625 C 0.890625 -10.269531 0.929688 -10.394531 1.015625 -10.53125 L 1.421875 -11.234375 C 1.835938 -13.378906 2.34375 -15.535156 2.9375 -17.703125 C 3.03125 -18.035156 3.320312 -18.328125 3.8125 -18.578125 C 4.3125 -18.828125 4.785156 -18.953125 5.234375 -18.953125 C 5.515625 -18.953125 5.726562 -18.894531 5.875 -18.78125 C 6.03125 -18.675781 6.066406 -18.507812 5.984375 -18.28125 C 5.691406 -17.238281 5.507812 -16.550781 5.4375 -16.21875 C 6.550781 -17.332031 7.554688 -18.085938 8.453125 -18.484375 Z M 8.453125 -18.484375 "/></g></g></g><g fill="#41b211" fill-opacity="1"><g transform="translate(277.322853, 250.680041)"><g><path d="M 3.046875 -23.46875 C 3.085938 -23.820312 3.335938 -24.125 3.796875 -24.375 C 4.253906 -24.625 4.707031 -24.75 5.15625 -24.75 C 5.4375 -24.75 5.648438 -24.691406 5.796875 -24.578125 C 5.941406 -24.472656 6.003906 -24.296875 5.984375 -24.046875 C 5.453125 -19.179688 4.894531 -14.3125 4.3125 -9.4375 L 3.46875 -2.125 C 3.4375 -1.769531 3.1875 -1.460938 2.71875 -1.203125 C 2.25 -0.941406 1.78125 -0.8125 1.3125 -0.8125 C 0.675781 -0.8125 0.390625 -1.054688 0.453125 -1.546875 L 1.765625 -12.515625 C 2.359375 -17.671875 2.785156 -21.320312 3.046875 -23.46875 Z M 3.046875 -23.46875 "/></g></g></g><g fill="#41b211" fill-opacity="1"><g transform="translate(285.442069, 250.680041)"><g><path d="M 4 -3.4375 C 4.351562 -3.164062 4.8125 -3.03125 5.375 -3.03125 C 6.03125 -3.03125 6.863281 -3.242188 7.875 -3.671875 C 8.46875 -7.117188 8.929688 -10.515625 9.265625 -13.859375 L 9.21875 -13.859375 C 8.207031 -13.859375 7.28125 -13.507812 6.4375 -12.8125 C 5.601562 -12.125 4.910156 -11.265625 4.359375 -10.234375 C 3.804688 -9.210938 3.425781 -8.203125 3.21875 -7.203125 C 3.125 -6.734375 3.078125 -6.273438 3.078125 -5.828125 C 3.078125 -4.722656 3.382812 -3.925781 4 -3.4375 Z M 9.9375 -22.734375 C 9.957031 -23.066406 10.191406 -23.359375 10.640625 -23.609375 C 11.085938 -23.867188 11.546875 -24 12.015625 -24 C 12.585938 -24 12.867188 -23.785156 12.859375 -23.359375 C 12.535156 -17.191406 11.863281 -10.832031 10.84375 -4.28125 C 11.132812 -4.132812 11.28125 -3.941406 11.28125 -3.703125 C 11.28125 -3.421875 11.054688 -3.148438 10.609375 -2.890625 L 10.4375 -1.84375 C 10.363281 -1.488281 10.097656 -1.1875 9.640625 -0.9375 C 9.179688 -0.6875 8.726562 -0.5625 8.28125 -0.5625 C 8.007812 -0.5625 7.785156 -0.617188 7.609375 -0.734375 C 7.441406 -0.859375 7.390625 -1.039062 7.453125 -1.28125 C 7.453125 -1.375 7.457031 -1.441406 7.46875 -1.484375 C 6.28125 -1.109375 5.296875 -0.921875 4.515625 -0.921875 C 3.648438 -0.921875 2.875 -1.109375 2.1875 -1.484375 C 1.488281 -1.835938 0.984375 -2.347656 0.671875 -3.015625 C 0.359375 -3.691406 0.203125 -4.453125 0.203125 -5.296875 C 0.203125 -5.585938 0.238281 -6 0.3125 -6.53125 C 0.570312 -8.039062 1.128906 -9.492188 1.984375 -10.890625 C 2.847656 -12.285156 3.929688 -13.429688 5.234375 -14.328125 C 6.546875 -15.234375 7.957031 -15.710938 9.46875 -15.765625 C 9.6875 -18.316406 9.84375 -20.640625 9.9375 -22.734375 Z M 9.9375 -22.734375 "/></g></g></g></svg>