<svg xmlns="http://www.w3.org/2000/svg" xmlns:xlink="http://www.w3.org/1999/xlink" width="500" zoomAndPan="magnify" viewBox="0 0 375 374.999991" height="500" preserveAspectRatio="xMidYMid meet" version="1.0"><defs><filter x="0%" y="0%" width="100%" height="100%" id="cd14fb8ac9"><feColorMatrix values="0 0 0 0 1 0 0 0 0 1 0 0 0 0 1 0 0 0 1 0" color-interpolation-filters="sRGB"/></filter><mask id="d8af23c09c"><g filter="url(#cd14fb8ac9)"><rect x="-37.5" width="450" fill="#000000" y="-37.499999" height="449.999989" fill-opacity="0.2471"/></g></mask><clipPath id="54e1f0305c"><path d="M 14 42 L 202 42 L 202 187 L 14 187 Z M 14 42 " clip-rule="nonzero"/></clipPath><clipPath id="f5c3606a61"><path d="M 237.0625 154.71875 L 43.929688 233.8125 L -25.089844 65.277344 L 168.039062 -13.816406 Z M 237.0625 154.71875 " clip-rule="nonzero"/></clipPath><clipPath id="95d56f765f"><path d="M 237.0625 154.71875 L 43.929688 233.8125 L -25.089844 65.277344 L 168.039062 -13.816406 Z M 237.0625 154.71875 " clip-rule="nonzero"/></clipPath><clipPath id="a06b922a98"><rect x="0" width="214" y="0" height="217"/></clipPath><clipPath id="9e12e7df54"><path d="M 107 74 L 337 74 L 337 304.136719 L 107 304.136719 Z M 107 74 " clip-rule="nonzero"/></clipPath><clipPath id="9b8fd49ffd"><path d="M 229 55.074219 L 286 55.074219 L 286 147 L 229 147 Z M 229 55.074219 " clip-rule="nonzero"/></clipPath><clipPath id="036e482555"><path d="M 37.5 224.539062 L 151.695312 224.539062 L 151.695312 320.027344 L 37.5 320.027344 Z M 37.5 224.539062 " clip-rule="nonzero"/></clipPath></defs><g mask="url(#d8af23c09c)"><g transform="matrix(1, 0, 0, 1, 74, 86)"><g clip-path="url(#a06b922a98)"><g clip-path="url(#54e1f0305c)"><g clip-path="url(#f5c3606a61)"><g clip-path="url(#95d56f765f)"><path fill="#38b6ff" d="M 84.402344 181.527344 C 49.050781 168.683594 -17.523438 83.40625 33.027344 50.050781 C 67.210938 27.476562 72.679688 63.652344 119.589844 92.003906 C 135.128906 101.378906 211.113281 91.714844 199.976562 139.953125 C 193.371094 168.535156 130.636719 198.304688 84.402344 181.527344 Z M 84.402344 181.527344 " fill-opacity="1" fill-rule="nonzero"/></g></g></g></g></g></g><g clip-path="url(#9e12e7df54)"><path fill="#41b211" d="M 290.785156 97.4375 C 290.632812 97.320312 290.46875 97.234375 290.285156 97.183594 C 290.097656 97.132812 289.914062 97.121094 289.722656 97.148438 C 289.535156 97.171875 289.359375 97.230469 289.191406 97.328125 C 289.027344 97.425781 288.890625 97.550781 288.773438 97.703125 C 288.660156 97.855469 288.582031 98.023438 288.535156 98.210938 C 288.492188 98.394531 288.484375 98.582031 288.515625 98.769531 C 288.542969 98.957031 288.609375 99.132812 288.710938 99.292969 C 288.8125 99.453125 288.941406 99.589844 289.097656 99.699219 C 317.289062 120.636719 333.695312 152.851562 334.121094 188.082031 C 334.265625 199.769531 332.621094 211.203125 329.1875 222.378906 C 327.019531 225.140625 324.859375 227.90625 322.625 230.617188 C 320.105469 233.738281 317.433594 236.722656 314.597656 239.5625 C 313.957031 240.191406 313.300781 240.800781 312.632812 241.390625 C 312.308594 241.679688 311.984375 241.957031 311.652344 242.230469 L 311.191406 242.605469 L 310.992188 242.761719 C 311.144531 242.640625 310.953125 242.761719 310.910156 242.820312 C 309.292969 244.042969 307.554688 245.105469 305.890625 246.261719 C 304.078125 247.453125 302.441406 248.859375 300.992188 250.472656 C 299.585938 252.097656 298.601562 253.945312 298.039062 256.019531 C 297.5 258.015625 297.382812 260.039062 297.6875 262.085938 C 297.992188 264.132812 298.691406 266.035156 299.789062 267.789062 C 300.078125 268.234375 300.402344 268.652344 300.734375 269.066406 C 298.160156 271.613281 295.46875 274.03125 292.65625 276.3125 C 289.847656 278.597656 286.933594 280.742188 283.914062 282.742188 C 280.894531 284.738281 277.78125 286.585938 274.582031 288.285156 C 271.378906 289.980469 268.105469 291.515625 264.753906 292.890625 C 261.402344 294.265625 257.992188 295.476562 254.519531 296.519531 C 251.050781 297.5625 247.539062 298.433594 243.984375 299.132812 C 240.429688 299.832031 236.847656 300.359375 233.242188 300.707031 C 229.632812 301.058594 226.019531 301.230469 222.394531 301.226562 L 222.203125 301.226562 C 218.621094 301.242188 215.042969 301.082031 211.476562 300.75 C 207.910156 300.421875 204.367188 299.917969 200.847656 299.246094 C 197.328125 298.574219 193.847656 297.734375 190.410156 296.726562 C 186.972656 295.71875 183.59375 294.546875 180.269531 293.210938 C 176.941406 291.878906 173.691406 290.386719 170.511719 288.738281 C 167.332031 287.089844 164.238281 285.292969 161.230469 283.347656 C 158.222656 281.402344 155.316406 279.316406 152.511719 277.089844 C 149.707031 274.863281 147.019531 272.507812 144.441406 270.023438 C 145.289062 268.542969 145.941406 266.984375 146.398438 265.34375 C 146.855469 263.699219 147.101562 262.027344 147.136719 260.324219 C 147.171875 258.621094 146.996094 256.941406 146.609375 255.28125 C 146.222656 253.621094 145.636719 252.035156 144.851562 250.523438 C 143.28125 247.527344 140.804688 245.277344 138.472656 242.914062 C 137.886719 242.328125 137.355469 241.746094 136.84375 241.164062 L 136.488281 240.734375 L 136.453125 240.691406 C 136.398438 240.632812 136.351562 240.558594 136.304688 240.496094 C 136.078125 240.191406 135.863281 239.875 135.664062 239.550781 C 135.472656 239.246094 135.296875 238.933594 135.140625 238.613281 L 135.015625 238.34375 C 134.945312 238.164062 134.882812 237.984375 134.816406 237.796875 C 134.707031 237.457031 134.621094 237.109375 134.554688 236.757812 C 134.554688 236.6875 134.519531 236.597656 134.515625 236.515625 L 134.515625 236.445312 C 134.515625 236.253906 134.515625 236.066406 134.480469 235.863281 C 134.480469 235.558594 134.480469 235.277344 134.519531 234.957031 C 134.519531 234.957031 134.519531 234.988281 134.519531 235.003906 C 134.539062 234.925781 134.554688 234.84375 134.5625 234.761719 C 134.5625 234.601562 134.621094 234.445312 134.660156 234.289062 C 134.730469 234 134.8125 233.710938 134.910156 233.429688 C 134.964844 233.28125 135.023438 233.132812 135.074219 232.984375 L 135.164062 232.785156 C 135.71875 231.605469 136.398438 230.496094 137.191406 229.464844 C 137.246094 229.394531 137.304688 229.324219 137.351562 229.253906 L 137.632812 228.898438 L 138.308594 228.070312 C 138.738281 227.539062 139.175781 227.019531 139.601562 226.492188 C 140.519531 225.402344 141.359375 224.253906 142.117188 223.054688 C 143.613281 220.578125 144.371094 217.617188 143.449219 214.789062 C 142.359375 211.472656 139.46875 209.089844 136.410156 207.609375 C 132.78125 205.9375 128.96875 205.007812 124.972656 204.820312 C 120.917969 204.570312 116.941406 205.027344 113.050781 206.199219 C 112.542969 206.351562 112.046875 206.519531 111.558594 206.695312 C 110.722656 201.242188 110.285156 195.757812 110.25 190.238281 C 110.136719 177.121094 112.277344 164.382812 116.667969 152.015625 C 116.980469 151.167969 117.386719 150.367188 117.894531 149.613281 C 118.398438 148.859375 118.984375 148.179688 119.652344 147.566406 C 120.320312 146.957031 121.054688 146.433594 121.847656 145.996094 C 122.644531 145.558594 123.480469 145.226562 124.355469 144.988281 C 129.09375 143.667969 132.660156 143.65625 134.378906 144.988281 C 135.332031 145.707031 135.792969 146.882812 135.792969 148.574219 C 135.792969 154.109375 133.25 159.417969 130.539062 165.042969 C 127.832031 170.664062 125.027344 176.550781 125.027344 182.726562 C 125.027344 186.085938 125.351562 189.65625 127.773438 190.660156 C 131.101562 192.035156 135.746094 188.152344 148.933594 174.984375 C 156.566406 167.359375 163.949219 165.660156 169.878906 164.265625 C 176.65625 162.691406 182.507812 161.351562 184.496094 151.949219 C 186.300781 143.421875 183.203125 135.21875 180.472656 127.972656 C 177.832031 120.980469 175.347656 114.414062 177.589844 108.742188 C 180.054688 102.496094 182.78125 99.890625 185.117188 98.160156 C 185.71875 97.726562 186.285156 97.246094 186.8125 96.722656 C 187.339844 96.195312 187.824219 95.632812 188.261719 95.03125 C 188.699219 94.429688 189.085938 93.796875 189.425781 93.132812 C 189.761719 92.472656 190.042969 91.785156 190.273438 91.078125 C 190.5 90.371094 190.671875 89.648438 190.785156 88.914062 C 190.898438 88.179688 190.957031 87.441406 190.953125 86.695312 C 190.949219 85.953125 190.886719 85.214844 190.765625 84.480469 C 190.640625 83.746094 190.464844 83.027344 190.226562 82.320312 C 199.847656 79.472656 209.675781 77.941406 219.710938 77.722656 L 219.746094 77.722656 C 220.914062 77.722656 222.019531 77.6875 223.160156 77.722656 C 223.347656 77.722656 223.527344 77.6875 223.699219 77.617188 C 223.871094 77.546875 224.027344 77.445312 224.15625 77.3125 C 224.289062 77.179688 224.390625 77.027344 224.464844 76.855469 C 224.535156 76.679688 224.570312 76.5 224.570312 76.3125 C 224.570312 76.128906 224.535156 75.945312 224.464844 75.773438 C 224.390625 75.601562 224.289062 75.449219 224.15625 75.316406 C 224.027344 75.183594 223.871094 75.082031 223.699219 75.011719 C 223.527344 74.941406 223.347656 74.902344 223.160156 74.902344 L 221.910156 74.902344 C 217.992188 74.90625 214.085938 75.109375 210.191406 75.511719 C 206.296875 75.914062 202.429688 76.511719 198.59375 77.308594 C 194.761719 78.105469 190.976562 79.097656 187.246094 80.28125 C 183.511719 81.464844 179.847656 82.835938 176.257812 84.394531 C 172.664062 85.953125 169.160156 87.691406 165.746094 89.609375 C 162.332031 91.523438 159.027344 93.609375 155.824219 95.867188 C 152.625 98.121094 149.550781 100.53125 146.597656 103.101562 C 143.644531 105.671875 140.832031 108.386719 138.15625 111.242188 C 138.027344 111.378906 137.925781 111.535156 137.859375 111.710938 C 137.789062 111.886719 137.757812 112.070312 137.765625 112.257812 C 137.769531 112.445312 137.8125 112.628906 137.890625 112.800781 C 137.96875 112.972656 138.074219 113.121094 138.214844 113.25 C 138.351562 113.378906 138.507812 113.476562 138.6875 113.539062 C 138.863281 113.605469 139.046875 113.636719 139.234375 113.628906 C 139.425781 113.621094 139.605469 113.574219 139.773438 113.496094 C 139.945312 113.414062 140.09375 113.304688 140.222656 113.167969 C 146.695312 106.238281 153.9375 100.230469 161.941406 95.140625 C 169.949219 90.054688 178.464844 86.046875 187.492188 83.125 C 187.683594 83.691406 187.832031 84.269531 187.929688 84.859375 C 188.03125 85.453125 188.085938 86.046875 188.089844 86.644531 C 188.09375 87.242188 188.054688 87.835938 187.964844 88.429688 C 187.875 89.019531 187.738281 89.601562 187.554688 90.171875 C 187.371094 90.742188 187.144531 91.292969 186.875 91.828125 C 186.601562 92.359375 186.292969 92.871094 185.9375 93.355469 C 185.585938 93.839844 185.199219 94.292969 184.773438 94.714844 C 184.347656 95.136719 183.894531 95.519531 183.40625 95.871094 C 180.75 97.835938 177.667969 100.773438 174.933594 107.683594 C 172.296875 114.359375 174.96875 121.445312 177.796875 128.941406 C 180.523438 136.15625 183.34375 143.613281 181.707031 151.335938 C 180.089844 158.957031 175.996094 159.914062 169.214844 161.488281 C 162.933594 162.949219 155.113281 164.761719 146.914062 172.957031 C 140.554688 179.300781 130.953125 188.882812 128.824219 188.019531 C 128.65625 187.949219 127.820312 187.367188 127.820312 182.699219 C 127.820312 177.164062 130.367188 171.855469 133.074219 166.230469 C 135.78125 160.605469 138.59375 154.722656 138.59375 148.542969 C 138.59375 145.945312 137.742188 143.980469 136.066406 142.71875 C 133.550781 140.8125 129.34375 140.660156 123.566406 142.273438 C 122.476562 142.574219 121.4375 143 120.445312 143.550781 C 119.457031 144.097656 118.546875 144.757812 117.71875 145.523438 C 116.886719 146.292969 116.160156 147.148438 115.535156 148.089844 C 114.910156 149.03125 114.402344 150.035156 114.019531 151.097656 C 113.25 153.25 112.546875 155.421875 111.90625 157.613281 C 111.265625 159.808594 110.691406 162.019531 110.1875 164.246094 C 109.679688 166.476562 109.238281 168.71875 108.867188 170.972656 C 108.496094 173.226562 108.191406 175.488281 107.953125 177.761719 C 107.71875 180.035156 107.550781 182.3125 107.449219 184.59375 C 107.347656 186.878906 107.316406 189.160156 107.355469 191.445312 C 107.390625 193.730469 107.496094 196.011719 107.671875 198.289062 C 107.84375 200.570312 108.085938 202.839844 108.394531 205.101562 C 108.707031 207.367188 109.082031 209.621094 109.527344 211.859375 C 109.972656 214.101562 110.484375 216.328125 111.0625 218.539062 C 111.644531 220.75 112.289062 222.941406 112.996094 225.113281 C 113.707031 227.285156 114.480469 229.433594 115.320312 231.558594 C 116.160156 233.683594 117.0625 235.785156 118.027344 237.855469 C 118.992188 239.925781 120.015625 241.96875 121.105469 243.980469 C 122.191406 245.988281 123.335938 247.964844 124.542969 249.90625 C 125.75 251.851562 127.011719 253.753906 128.332031 255.621094 C 129.652344 257.488281 131.027344 259.3125 132.457031 261.097656 C 133.886719 262.878906 135.367188 264.621094 136.902344 266.316406 C 138.433594 268.011719 140.019531 269.660156 141.652344 271.261719 C 143.28125 272.859375 144.960938 274.410156 146.6875 275.910156 C 148.414062 277.414062 150.183594 278.859375 151.996094 280.253906 C 153.808594 281.648438 155.660156 282.988281 157.554688 284.273438 C 159.445312 285.554688 161.375 286.78125 163.339844 287.949219 C 165.308594 289.121094 167.308594 290.226562 169.339844 291.277344 C 171.375 292.324219 173.433594 293.3125 175.527344 294.238281 C 177.621094 295.164062 179.738281 296.027344 181.882812 296.824219 C 184.023438 297.625 186.191406 298.359375 188.378906 299.027344 C 190.566406 299.695312 192.773438 300.300781 194.996094 300.835938 C 197.21875 301.375 199.457031 301.84375 201.710938 302.25 C 203.960938 302.652344 206.222656 302.988281 208.496094 303.257812 C 210.769531 303.523438 213.046875 303.726562 215.332031 303.855469 C 217.617188 303.988281 219.902344 304.050781 222.191406 304.046875 L 222.394531 304.046875 C 224.285156 304.042969 226.175781 303.996094 228.0625 303.898438 C 229.953125 303.800781 231.835938 303.65625 233.71875 303.46875 C 235.597656 303.277344 237.472656 303.042969 239.34375 302.761719 C 241.210938 302.480469 243.074219 302.152344 244.925781 301.777344 C 246.78125 301.402344 248.625 300.984375 250.457031 300.519531 C 252.289062 300.054688 254.109375 299.542969 255.914062 298.988281 C 257.722656 298.433594 259.515625 297.835938 261.292969 297.191406 C 263.070312 296.546875 264.832031 295.863281 266.574219 295.132812 C 268.320312 294.402344 270.042969 293.628906 271.75 292.8125 C 273.453125 292 275.136719 291.140625 276.800781 290.242188 C 278.464844 289.34375 280.105469 288.40625 281.71875 287.425781 C 283.335938 286.449219 284.929688 285.429688 286.492188 284.371094 C 288.058594 283.3125 289.597656 282.21875 291.109375 281.082031 C 292.621094 279.949219 294.105469 278.78125 295.558594 277.574219 C 297.011719 276.367188 298.4375 275.125 299.828125 273.847656 C 301.222656 272.570312 302.582031 271.257812 303.910156 269.914062 C 305.238281 268.570312 306.53125 267.195312 307.789062 265.785156 C 309.050781 264.378906 310.273438 262.9375 311.460938 261.46875 C 312.648438 260 313.800781 258.503906 314.914062 256.980469 C 316.027344 255.453125 317.105469 253.902344 318.140625 252.324219 C 319.179688 250.746094 320.175781 249.140625 321.136719 247.515625 C 322.09375 245.886719 323.011719 244.238281 323.886719 242.5625 C 324.761719 240.890625 325.597656 239.195312 326.390625 237.484375 C 327.183594 235.769531 327.933594 234.035156 328.640625 232.285156 C 329.347656 230.535156 330.007812 228.765625 330.628906 226.984375 C 331.246094 225.199219 331.820312 223.402344 332.351562 221.589844 C 332.882812 219.777344 333.367188 217.953125 333.808594 216.117188 C 334.246094 214.28125 334.640625 212.433594 334.992188 210.578125 C 335.339844 208.722656 335.640625 206.859375 335.898438 204.988281 C 336.15625 203.117188 336.363281 201.242188 336.527344 199.359375 C 336.691406 197.480469 336.808594 195.597656 336.878906 193.710938 C 336.949219 191.824219 336.972656 189.9375 336.949219 188.046875 C 336.511719 151.929688 319.6875 118.902344 290.785156 97.4375 Z M 112.035156 209.558594 C 113.535156 209 115.0625 208.5625 116.628906 208.234375 C 117.089844 208.140625 117.554688 208.054688 118.023438 207.976562 L 118.757812 207.867188 L 118.800781 207.867188 L 119.3125 207.804688 C 120.253906 207.703125 121.199219 207.640625 122.148438 207.617188 C 123.101562 207.59375 124.128906 207.617188 125.117188 207.679688 C 125.59375 207.710938 126.058594 207.75 126.53125 207.804688 L 127.078125 207.867188 L 127.308594 207.902344 L 127.691406 207.960938 C 129.59375 208.253906 131.457031 208.71875 133.273438 209.359375 L 133.855469 209.582031 L 134.140625 209.695312 C 134.527344 209.855469 134.90625 210.035156 135.273438 210.222656 C 135.980469 210.574219 136.660156 210.972656 137.308594 211.421875 C 137.460938 211.53125 137.632812 211.636719 137.777344 211.757812 L 138.023438 211.957031 C 138.34375 212.226562 138.652344 212.503906 138.945312 212.800781 C 139.1875 213.035156 139.414062 213.289062 139.621094 213.554688 C 139.585938 213.507812 139.5625 213.484375 139.621094 213.605469 L 139.796875 213.851562 C 139.90625 214.015625 140.019531 214.183594 140.117188 214.359375 C 140.222656 214.527344 140.316406 214.703125 140.402344 214.882812 C 140.433594 214.941406 140.464844 215 140.492188 215.0625 C 140.492188 215.078125 140.492188 215.09375 140.492188 215.109375 C 140.667969 215.464844 140.785156 215.839844 140.835938 216.234375 C 140.882812 216.382812 140.914062 216.535156 140.929688 216.691406 L 140.929688 216.769531 C 140.933594 216.847656 140.933594 216.921875 140.929688 217 C 140.953125 217.316406 140.953125 217.632812 140.929688 217.949219 C 140.929688 218.078125 140.816406 218.617188 140.929688 218.132812 C 140.898438 218.269531 140.886719 218.402344 140.859375 218.53125 C 140.820312 218.84375 140.765625 219.15625 140.695312 219.464844 C 140.613281 219.71875 140.515625 219.964844 140.421875 220.214844 L 140.332031 220.40625 L 140.109375 220.851562 C 139.8125 221.417969 139.476562 221.96875 139.113281 222.5 C 138.945312 222.75 138.769531 222.996094 138.589844 223.238281 C 138.496094 223.367188 138.402344 223.496094 138.300781 223.617188 C 138.242188 223.683594 138.195312 223.757812 138.136719 223.828125 C 137.316406 224.871094 136.453125 225.886719 135.617188 226.921875 C 133.949219 229.007812 132.257812 231.308594 131.785156 234.003906 C 131.488281 235.566406 131.585938 237.105469 132.082031 238.617188 C 132.65625 240.191406 133.492188 241.609375 134.585938 242.878906 C 135.609375 244.074219 136.6875 245.21875 137.828125 246.304688 C 138.414062 246.886719 138.960938 247.421875 139.503906 248 C 139.753906 248.269531 140 248.535156 140.238281 248.808594 L 140.636719 249.28125 L 140.769531 249.445312 L 140.871094 249.566406 C 141.355469 250.21875 141.796875 250.898438 142.1875 251.605469 C 142.371094 251.933594 142.539062 252.269531 142.703125 252.609375 C 142.785156 252.789062 142.867188 252.964844 142.941406 253.144531 L 143.097656 253.546875 C 143.386719 254.308594 143.625 255.085938 143.8125 255.878906 C 143.894531 256.246094 143.96875 256.617188 144.039062 256.992188 C 144.039062 257.171875 144.109375 257.363281 144.125 257.574219 C 144.125 257.71875 144.15625 257.859375 144.171875 258.003906 C 144.25 258.792969 144.28125 259.585938 144.265625 260.378906 C 144.265625 260.773438 144.238281 261.167969 144.203125 261.542969 C 144.203125 261.757812 144.160156 261.972656 144.136719 262.191406 C 144.136719 262.191406 144.136719 262.339844 144.136719 262.382812 C 144.136719 262.421875 144.136719 262.503906 144.109375 262.5625 C 143.984375 263.351562 143.8125 264.128906 143.589844 264.894531 C 143.476562 265.273438 143.355469 265.644531 143.222656 266.019531 L 142.988281 266.601562 L 142.832031 266.957031 C 142.671875 267.289062 142.507812 267.609375 142.335938 267.929688 C 138.410156 263.964844 134.808594 259.730469 131.523438 255.222656 C 128.242188 250.714844 125.316406 245.988281 122.746094 241.039062 C 120.179688 236.09375 117.996094 230.980469 116.203125 225.703125 C 114.40625 220.425781 113.015625 215.042969 112.035156 209.558594 Z M 300.464844 258.164062 Z M 301.265625 264.542969 L 301.304688 264.644531 C 301.285156 264.609375 301.269531 264.570312 301.265625 264.53125 Z M 302.734375 267.074219 L 302.546875 266.816406 C 302.414062 266.628906 302.285156 266.4375 302.164062 266.234375 C 301.914062 265.84375 301.6875 265.4375 301.488281 265.023438 L 301.328125 264.683594 C 301.234375 264.449219 301.148438 264.21875 301.066406 263.984375 C 300.914062 263.546875 300.785156 263.101562 300.679688 262.648438 C 300.632812 262.441406 300.59375 262.230469 300.550781 262.019531 C 300.550781 261.898438 300.511719 261.78125 300.496094 261.660156 C 300.476562 261.535156 300.496094 261.566406 300.496094 261.546875 C 300.441406 261.089844 300.414062 260.621094 300.402344 260.15625 C 300.390625 259.691406 300.402344 259.230469 300.449219 258.769531 C 300.449219 258.648438 300.449219 258.519531 300.488281 258.394531 L 300.488281 258.34375 C 300.558594 258.105469 300.597656 257.859375 300.609375 257.609375 C 300.703125 257.15625 300.820312 256.707031 300.957031 256.261719 C 301.019531 256.066406 301.089844 255.859375 301.164062 255.679688 C 301.242188 255.5 301.257812 255.449219 301.300781 255.332031 C 301.339844 255.214844 301.257812 255.417969 301.257812 255.417969 C 301.28125 255.351562 301.308594 255.285156 301.347656 255.226562 C 301.535156 254.804688 301.75 254.394531 301.988281 253.996094 C 302.105469 253.796875 302.234375 253.601562 302.363281 253.414062 L 302.558594 253.132812 L 302.699219 252.941406 C 303.324219 252.160156 304.011719 251.4375 304.765625 250.78125 C 305.144531 250.449219 305.535156 250.128906 305.933594 249.8125 L 306.015625 249.75 L 306.339844 249.503906 L 306.960938 249.054688 C 308.628906 247.890625 310.367188 246.800781 312.019531 245.597656 C 313.429688 244.558594 314.765625 243.429688 316.027344 242.21875 C 318.808594 239.515625 321.425781 236.664062 323.878906 233.660156 C 324.734375 232.632812 325.578125 231.589844 326.417969 230.554688 C 323.707031 237.355469 320.363281 243.828125 316.375 249.972656 C 312.390625 256.117188 307.84375 261.8125 302.734375 267.0625 Z M 302.734375 267.074219 " fill-opacity="1" fill-rule="nonzero"/></g><path fill="#41b211" d="M 218.1875 164.515625 C 218.59375 165.769531 219.210938 166.90625 220.042969 167.925781 C 220.875 168.945312 221.867188 169.777344 223.011719 170.425781 C 224.304688 171.109375 225.679688 171.519531 227.136719 171.648438 C 228.59375 171.78125 230.015625 171.625 231.410156 171.183594 C 234.136719 170.351562 236.566406 168.992188 238.699219 167.105469 C 239.179688 167.613281 239.675781 168.113281 240.1875 168.589844 C 242.347656 170.714844 244.90625 172.105469 247.863281 172.769531 C 251.105469 173.410156 254.398438 173.070312 257.664062 172.84375 C 260.621094 172.589844 263.5625 172.710938 266.488281 173.210938 C 272.136719 174.289062 277.402344 176.933594 281.171875 181.316406 C 282.070312 182.34375 282.855469 183.449219 283.535156 184.628906 C 284.214844 185.8125 284.769531 187.046875 285.207031 188.339844 C 285.640625 189.632812 285.941406 190.953125 286.117188 192.304688 C 286.289062 193.65625 286.328125 195.011719 286.230469 196.371094 C 286.117188 197.625 285.867188 198.855469 285.492188 200.058594 C 285.140625 201.230469 284.667969 202.355469 284.078125 203.425781 C 282.867188 205.683594 281.328125 207.691406 279.457031 209.445312 C 277.570312 211.269531 275.480469 212.824219 273.195312 214.109375 C 270.757812 215.496094 268.195312 216.589844 265.507812 217.394531 C 259.171875 219.359375 252.546875 220.082031 245.976562 220.851562 C 239.824219 221.566406 233.652344 222.347656 227.710938 224.167969 C 222.042969 225.914062 216.59375 228.582031 212.292969 232.71875 C 207.804688 237.03125 204.886719 242.695312 200.292969 246.910156 C 198.289062 248.847656 195.953125 250.238281 193.292969 251.078125 C 191.996094 251.46875 190.671875 251.597656 189.324219 251.46875 C 189.207031 251.464844 189.089844 251.453125 188.972656 251.433594 L 188.496094 251.339844 C 188.152344 251.261719 187.816406 251.164062 187.484375 251.042969 C 186.96875 250.824219 186.503906 250.527344 186.089844 250.148438 C 185.886719 249.964844 185.710938 249.753906 185.570312 249.515625 C 185.429688 249.285156 185.300781 249.046875 185.191406 248.796875 C 185.070312 248.476562 184.972656 248.148438 184.898438 247.8125 C 184.835938 247.546875 184.792969 247.273438 184.773438 246.996094 C 184.710938 246.316406 184.710938 245.632812 184.773438 244.953125 C 184.773438 244.804688 184.800781 244.660156 184.820312 244.515625 C 184.820312 244.472656 184.820312 244.316406 184.859375 244.269531 C 184.90625 243.972656 184.964844 243.6875 185.035156 243.382812 C 185.164062 242.792969 185.328125 242.210938 185.523438 241.636719 C 185.625 241.355469 185.730469 241.054688 185.839844 240.804688 C 185.839844 240.773438 185.839844 240.746094 185.839844 240.714844 L 185.878906 240.632812 C 185.945312 240.488281 186.007812 240.335938 186.078125 240.191406 C 186.59375 239.101562 187.1875 238.054688 187.863281 237.054688 C 188.203125 236.542969 188.558594 236.042969 188.933594 235.550781 C 189.242188 235.132812 189.515625 234.765625 189.953125 234.246094 C 190.753906 233.261719 191.589844 232.308594 192.433594 231.332031 C 194.132812 229.410156 195.871094 227.515625 197.457031 225.507812 C 199.21875 223.410156 200.652344 221.109375 201.765625 218.609375 C 202.875 216.113281 203.621094 213.507812 204 210.796875 C 204.882812 205.164062 204.621094 199.453125 204.398438 193.777344 C 204.285156 190.945312 204.1875 188.113281 204.246094 185.28125 C 204.28125 183.886719 204.34375 182.5 204.480469 181.113281 C 204.597656 179.820312 204.792969 178.539062 205.0625 177.265625 C 205.550781 174.71875 206.390625 172.285156 207.578125 169.976562 C 207.667969 169.8125 207.722656 169.640625 207.746094 169.457031 C 207.769531 169.269531 207.757812 169.089844 207.710938 168.910156 C 207.660156 168.730469 207.582031 168.566406 207.472656 168.414062 C 207.363281 168.265625 207.226562 168.140625 207.070312 168.042969 C 206.90625 167.949219 206.734375 167.894531 206.550781 167.867188 C 206.363281 167.84375 206.179688 167.855469 206 167.902344 C 205.820312 167.949219 205.65625 168.03125 205.507812 168.140625 C 205.355469 168.253906 205.234375 168.390625 205.136719 168.550781 C 202.402344 173.757812 201.554688 179.621094 201.4375 185.449219 C 201.320312 191.277344 201.882812 197.105469 201.8125 202.929688 C 201.824219 205.742188 201.59375 208.535156 201.117188 211.304688 C 200.628906 214.015625 199.746094 216.589844 198.46875 219.03125 C 196.003906 223.636719 192.300781 227.160156 188.875 231.1875 C 185.449219 235.214844 182.402344 239.667969 181.9375 245.0625 C 181.671875 248.15625 182.589844 251.515625 185.4375 253.152344 C 188.144531 254.707031 191.679688 254.550781 194.570312 253.605469 C 200.769531 251.582031 204.875 246.378906 208.644531 241.367188 C 210.496094 238.746094 212.578125 236.320312 214.894531 234.097656 C 217.082031 232.15625 219.492188 230.558594 222.132812 229.300781 C 227.382812 226.71875 233.429688 225.367188 239.308594 224.488281 C 246.097656 223.472656 252.972656 223.023438 259.730469 221.699219 C 265.839844 220.5 271.863281 218.53125 277.035156 214.988281 C 281.703125 211.8125 285.601562 207.550781 287.683594 202.273438 C 289.890625 196.683594 289.394531 190.476562 286.910156 185.074219 C 285.597656 182.320312 283.847656 179.878906 281.660156 177.75 C 279.46875 175.621094 276.980469 173.9375 274.1875 172.699219 C 271.253906 171.382812 268.195312 170.53125 265.007812 170.132812 C 261.828125 169.726562 258.679688 169.941406 255.496094 170.167969 C 253.828125 170.3125 252.15625 170.347656 250.480469 170.269531 C 249.726562 170.230469 248.984375 170.128906 248.246094 169.960938 C 247.890625 169.882812 247.539062 169.789062 247.191406 169.679688 L 246.605469 169.476562 L 246.214844 169.320312 C 244.121094 168.316406 242.316406 166.9375 240.792969 165.1875 C 242.582031 163.4375 244.253906 161.574219 245.964844 159.820312 C 247.917969 157.679688 250.175781 155.933594 252.734375 154.574219 C 252.894531 154.480469 253.03125 154.355469 253.144531 154.207031 C 253.253906 154.058594 253.335938 153.894531 253.382812 153.714844 C 253.429688 153.535156 253.441406 153.351562 253.417969 153.167969 C 253.394531 152.980469 253.335938 152.808594 253.242188 152.648438 C 253.144531 152.488281 253.019531 152.351562 252.871094 152.242188 C 252.722656 152.132812 252.554688 152.050781 252.375 152.003906 C 252.195312 151.957031 252.011719 151.945312 251.828125 151.96875 C 251.640625 151.992188 251.46875 152.050781 251.304688 152.140625 C 246.226562 154.65625 242.894531 159.296875 238.921875 163.152344 C 237.429688 161.34375 235.773438 159.703125 233.945312 158.234375 C 231.816406 156.667969 229.441406 155.726562 226.816406 155.414062 C 225.582031 155.226562 224.363281 155.3125 223.167969 155.671875 C 221.96875 156.027344 220.90625 156.621094 219.972656 157.453125 C 219.511719 157.902344 219.125 158.40625 218.804688 158.964844 C 218.484375 159.523438 218.242188 160.113281 218.085938 160.734375 C 217.929688 161.359375 217.859375 161.992188 217.875 162.632812 C 217.894531 163.273438 217.996094 163.902344 218.1875 164.515625 Z M 222.039062 165.902344 C 221.921875 165.765625 222.015625 165.878906 222.039062 165.902344 Z M 220.964844 160.851562 Z M 220.714844 161.796875 C 220.714844 161.878906 220.714844 161.882812 220.714844 161.796875 Z M 220.714844 161.941406 C 220.71875 161.890625 220.71875 161.835938 220.714844 161.785156 C 220.765625 161.539062 220.820312 161.300781 220.894531 161.0625 C 220.894531 160.992188 220.949219 160.921875 220.972656 160.847656 C 220.996094 160.769531 221.09375 160.59375 221.164062 160.46875 L 221.367188 160.128906 L 221.5 159.941406 C 221.667969 159.734375 221.847656 159.539062 222.042969 159.359375 C 222.109375 159.300781 222.179688 159.238281 222.253906 159.179688 L 222.417969 159.058594 C 222.648438 158.902344 222.890625 158.765625 223.140625 158.644531 C 223.195312 158.644531 223.300781 158.574219 223.328125 158.5625 L 223.578125 158.472656 C 223.851562 158.386719 224.125 158.316406 224.402344 158.257812 L 224.671875 158.210938 L 224.878906 158.210938 C 225.175781 158.183594 225.472656 158.175781 225.769531 158.183594 C 226.023438 158.183594 226.28125 158.183594 226.539062 158.222656 L 226.773438 158.222656 L 227.210938 158.300781 C 227.785156 158.410156 228.351562 158.558594 228.90625 158.746094 C 229.152344 158.828125 229.386719 158.917969 229.625 159.015625 L 229.910156 159.136719 L 230.347656 159.34375 C 230.878906 159.609375 231.394531 159.90625 231.890625 160.234375 C 232.101562 160.375 232.304688 160.519531 232.507812 160.671875 L 232.734375 160.851562 L 233.085938 161.15625 C 233.59375 161.609375 234.082031 162.085938 234.554688 162.582031 C 235.328125 163.375 236.066406 164.203125 236.804688 165.03125 C 235.054688 166.542969 233.085938 167.667969 230.890625 168.402344 C 229.589844 168.8125 228.253906 168.957031 226.894531 168.839844 L 226.738281 168.839844 L 226.34375 168.765625 C 226.039062 168.695312 225.738281 168.605469 225.441406 168.496094 L 225.21875 168.414062 L 224.914062 168.277344 C 224.632812 168.136719 224.355469 167.980469 224.085938 167.808594 C 223.871094 167.675781 223.660156 167.53125 223.457031 167.378906 C 223.417969 167.335938 223.257812 167.210938 223.230469 167.1875 C 223.105469 167.082031 222.988281 166.976562 222.878906 166.867188 C 222.675781 166.683594 222.480469 166.488281 222.296875 166.28125 C 222.195312 166.171875 222.101562 166.054688 222.007812 165.9375 L 221.851562 165.730469 C 221.707031 165.507812 221.558594 165.285156 221.433594 165.058594 C 221.355469 164.925781 221.285156 164.789062 221.214844 164.65625 C 221.214844 164.609375 221.128906 164.457031 221.097656 164.40625 C 220.910156 163.9375 220.773438 163.449219 220.691406 162.949219 C 220.691406 162.902344 220.691406 162.820312 220.691406 162.769531 C 220.691406 162.714844 220.691406 162.523438 220.691406 162.402344 C 220.691406 162.28125 220.695312 162.082031 220.703125 161.941406 Z M 220.714844 161.941406 " fill-opacity="1" fill-rule="nonzero"/><path fill="#41b211" d="M 271.351562 278.046875 C 271.71875 278.046875 272.085938 278.046875 272.449219 278.046875 C 272.75 278.035156 273.050781 278.054688 273.347656 278.105469 L 273.433594 278.105469 L 273.625 278.140625 C 273.820312 278.179688 274.007812 278.226562 274.210938 278.277344 C 274.363281 278.320312 274.511719 278.367188 274.660156 278.425781 L 274.71875 278.425781 L 274.835938 278.476562 C 274.972656 278.539062 275.105469 278.613281 275.230469 278.691406 L 275.417969 278.816406 C 275.53125 278.910156 275.636719 279.011719 275.738281 279.117188 L 275.855469 279.246094 C 275.933594 279.363281 276.007812 279.472656 276.070312 279.597656 C 276.136719 279.71875 276.140625 279.722656 276.171875 279.789062 C 276.171875 279.800781 276.171875 279.816406 276.171875 279.828125 C 276.226562 280.007812 276.3125 280.171875 276.429688 280.316406 C 276.546875 280.460938 276.683594 280.582031 276.847656 280.671875 C 277.011719 280.765625 277.1875 280.820312 277.371094 280.847656 C 277.558594 280.871094 277.742188 280.859375 277.921875 280.8125 C 278.101562 280.761719 278.265625 280.679688 278.414062 280.5625 C 278.5625 280.445312 278.683594 280.304688 278.773438 280.140625 C 278.867188 279.976562 278.925781 279.804688 278.949219 279.617188 C 278.96875 279.429688 278.957031 279.246094 278.90625 279.066406 C 278.621094 278.277344 278.183594 277.585938 277.589844 276.996094 C 276.996094 276.402344 276.300781 275.96875 275.511719 275.6875 C 274.054688 275.179688 272.558594 275.011719 271.023438 275.179688 C 269.464844 275.371094 267.929688 275.675781 266.414062 276.085938 C 266.046875 276.167969 265.679688 276.25 265.304688 276.316406 C 265.125 276.351562 264.9375 276.386719 264.75 276.410156 L 264.527344 276.441406 L 264.34375 276.441406 C 263.589844 276.5625 262.835938 276.601562 262.078125 276.570312 L 261.839844 276.570312 C 261.667969 276.542969 261.503906 276.5 261.34375 276.460938 C 261.179688 276.417969 261.019531 276.367188 260.863281 276.308594 L 260.777344 276.273438 L 260.707031 276.273438 L 260.578125 276.199219 C 260.433594 276.121094 260.296875 276.03125 260.15625 275.949219 L 260.007812 275.820312 C 259.882812 275.703125 259.773438 275.574219 259.65625 275.457031 L 259.457031 275.148438 C 259.394531 275.039062 259.335938 274.921875 259.277344 274.804688 L 259.277344 274.769531 C 259.191406 274.558594 259.117188 274.339844 259.0625 274.117188 C 258.9375 273.679688 258.851562 273.226562 258.769531 272.777344 C 258.648438 271.898438 258.453125 271.035156 258.183594 270.191406 C 257.621094 268.699219 256.78125 267.378906 255.664062 266.238281 C 254.546875 265.097656 253.246094 264.226562 251.765625 263.628906 C 250.253906 262.972656 248.675781 262.578125 247.03125 262.433594 C 245.386719 262.292969 243.765625 262.414062 242.160156 262.800781 C 238.417969 263.714844 235.121094 265.859375 232.238281 268.382812 C 229.472656 270.820312 227.175781 273.675781 224.734375 276.421875 C 223.535156 277.789062 222.253906 279.078125 220.882812 280.277344 L 220.394531 280.6875 L 220.128906 280.894531 L 220.070312 280.9375 C 219.699219 281.214844 219.3125 281.519531 218.90625 281.746094 C 218.132812 282.25 217.328125 282.683594 216.484375 283.050781 L 216.441406 283.050781 L 216.359375 283.082031 L 216.023438 283.207031 L 215.269531 283.472656 C 214.785156 283.628906 214.292969 283.761719 213.804688 283.886719 C 212.789062 284.136719 211.761719 284.320312 210.734375 284.46875 C 208.734375 284.742188 206.753906 285.113281 204.792969 285.585938 C 201.507812 286.476562 198.148438 288.285156 196.375 291.296875 C 195.929688 292.050781 195.609375 292.851562 195.410156 293.703125 C 195.359375 293.882812 195.347656 294.066406 195.371094 294.253906 C 195.394531 294.4375 195.453125 294.613281 195.542969 294.773438 C 195.636719 294.9375 195.757812 295.074219 195.90625 295.191406 C 196.054688 295.304688 196.21875 295.386719 196.398438 295.4375 C 196.578125 295.488281 196.761719 295.5 196.945312 295.476562 C 197.132812 295.457031 197.308594 295.398438 197.46875 295.304688 C 197.632812 295.214844 197.773438 295.09375 197.886719 294.945312 C 198.003906 294.800781 198.085938 294.636719 198.136719 294.457031 C 198.214844 294.125 198.316406 293.796875 198.433594 293.476562 C 198.433594 293.511719 198.5625 293.179688 198.597656 293.109375 C 198.703125 292.910156 198.8125 292.71875 198.929688 292.527344 C 199.027344 292.371094 199.132812 292.21875 199.238281 292.066406 L 199.425781 291.839844 C 199.683594 291.542969 199.957031 291.261719 200.25 291 C 200.386719 290.871094 200.535156 290.75 200.679688 290.628906 L 200.796875 290.539062 L 200.941406 290.429688 C 201.273438 290.195312 201.621094 289.972656 201.96875 289.769531 C 202.320312 289.566406 202.660156 289.390625 203.007812 289.222656 L 203.492188 289.007812 L 203.59375 288.960938 L 203.976562 288.816406 C 207.570312 287.46875 211.492188 287.441406 215.175781 286.425781 C 217.070312 285.910156 218.839844 285.113281 220.480469 284.035156 C 222.023438 282.992188 223.441406 281.804688 224.742188 280.46875 C 227.261719 277.933594 229.410156 275.078125 231.925781 272.519531 C 232.566406 271.855469 233.226562 271.214844 233.914062 270.597656 C 234.222656 270.320312 234.539062 270.050781 234.855469 269.78125 L 235.363281 269.363281 L 235.617188 269.160156 L 235.683594 269.105469 L 235.746094 269.066406 C 237.171875 267.972656 238.699219 267.058594 240.332031 266.316406 L 240.492188 266.25 L 240.707031 266.164062 L 241.289062 265.941406 C 241.71875 265.789062 242.148438 265.664062 242.585938 265.546875 C 243.023438 265.429688 243.34375 265.359375 243.753906 265.289062 C 243.835938 265.289062 244.394531 265.148438 244.003906 265.25 C 244.210938 265.207031 244.421875 265.1875 244.632812 265.183594 C 245.347656 265.128906 246.058594 265.128906 246.769531 265.183594 L 247.300781 265.238281 L 247.347656 265.238281 L 247.558594 265.265625 C 247.949219 265.335938 248.328125 265.410156 248.726562 265.511719 C 249.121094 265.609375 249.410156 265.699219 249.742188 265.8125 L 250.242188 265.996094 L 250.433594 266.070312 L 250.46875 266.070312 L 250.535156 266.101562 C 251.183594 266.394531 251.808594 266.738281 252.402344 267.132812 L 252.730469 267.371094 L 253.015625 267.589844 C 253.296875 267.835938 253.570312 268.09375 253.824219 268.359375 C 253.941406 268.484375 254.054688 268.609375 254.164062 268.738281 L 254.292969 268.890625 C 254.484375 269.164062 254.679688 269.4375 254.847656 269.730469 C 254.996094 269.996094 255.132812 270.269531 255.253906 270.550781 C 255.253906 270.632812 255.359375 270.820312 255.382812 270.878906 C 255.449219 271.078125 255.511719 271.273438 255.566406 271.460938 C 255.804688 272.351562 255.898438 273.273438 256.097656 274.171875 C 256.246094 275.070312 256.574219 275.902344 257.082031 276.660156 C 257.59375 277.417969 258.234375 278.039062 259.015625 278.519531 C 261.851562 280.109375 265.433594 279.34375 268.414062 278.554688 C 269.105469 278.335938 269.8125 278.1875 270.535156 278.109375 C 270.132812 278.140625 270.691406 278.109375 270.785156 278.109375 Z M 220.128906 280.730469 Z M 259.160156 274.589844 C 259.128906 274.539062 259.160156 274.554688 259.160156 274.589844 Z M 260.699219 276.203125 L 260.828125 276.257812 C 260.828125 276.257812 260.753906 276.234375 260.699219 276.203125 Z M 261.910156 276.542969 L 262.023438 276.542969 C 261.988281 276.558594 261.949219 276.570312 261.910156 276.570312 Z M 261.910156 276.542969 " fill-opacity="1" fill-rule="nonzero"/><path fill="#41b211" d="M 137.363281 229.269531 L 137.316406 229.328125 C 137.261719 229.371094 137.191406 229.53125 137.363281 229.269531 Z M 137.363281 229.269531 " fill-opacity="1" fill-rule="nonzero"/><path fill="#41b211" d="M 138.320312 223.625 C 138.082031 223.890625 138.261719 223.699219 138.320312 223.625 Z M 138.320312 223.625 " fill-opacity="1" fill-rule="nonzero"/><path fill="#41b211" d="M 134.507812 234.933594 C 134.589844 234.613281 134.519531 234.824219 134.507812 234.933594 Z M 134.507812 234.933594 " fill-opacity="1" fill-rule="nonzero"/><path fill="#41b211" d="M 234.835938 75.097656 L 234.878906 75.003906 Z M 234.835938 75.097656 " fill-opacity="1" fill-rule="nonzero"/><g clip-path="url(#9b8fd49ffd)"><path fill="#41b211" d="M 242.269531 122.144531 C 246.503906 129.023438 250.988281 135.734375 255.203125 142.625 C 255.800781 143.605469 256.402344 144.59375 257 145.589844 C 257.066406 145.695312 257.140625 145.789062 257.230469 145.875 C 257.316406 145.957031 257.414062 146.03125 257.519531 146.089844 C 257.628906 146.148438 257.742188 146.195312 257.859375 146.226562 C 257.976562 146.257812 258.097656 146.273438 258.21875 146.273438 C 258.34375 146.273438 258.464844 146.257812 258.582031 146.226562 C 258.699219 146.195312 258.8125 146.148438 258.917969 146.089844 C 259.027344 146.03125 259.125 145.957031 259.210938 145.875 C 259.300781 145.789062 259.375 145.695312 259.441406 145.589844 C 263.609375 139.496094 267.390625 133.171875 270.785156 126.617188 C 272.414062 123.566406 274 120.496094 275.621094 117.449219 C 277.304688 114.292969 278.949219 111.148438 280.289062 107.839844 C 283.042969 101.175781 284.722656 94.253906 285.332031 87.070312 C 285.648438 83.65625 285.648438 80.238281 285.332031 76.820312 C 285.089844 73.929688 284.355469 71.167969 283.128906 68.535156 C 281.875 66 280.085938 63.929688 277.753906 62.328125 C 275.007812 60.503906 271.996094 59.4375 268.714844 59.125 C 267.074219 58.941406 265.449219 59.003906 263.828125 59.308594 C 262.210938 59.613281 260.671875 60.148438 259.210938 60.914062 C 257.765625 61.730469 256.429688 62.699219 255.210938 63.824219 C 254.066406 64.84375 253.023438 65.949219 252.074219 67.148438 C 248.113281 72.160156 245.859375 78.511719 246.640625 84.925781 C 247.402344 91.070312 250.664062 97.472656 256.394531 100.351562 C 259.085938 101.703125 262.40625 102.390625 265.292969 101.238281 C 268.609375 99.914062 270.363281 96.820312 271.351562 93.550781 C 272.335938 90.28125 272.691406 86.429688 271.519531 83.0625 C 270.988281 81.480469 270.140625 80.09375 268.980469 78.898438 C 267.816406 77.703125 266.449219 76.816406 264.882812 76.238281 C 263.390625 75.714844 261.867188 75.613281 260.316406 75.933594 C 260.132812 75.984375 259.96875 76.070312 259.820312 76.183594 C 259.671875 76.300781 259.550781 76.441406 259.457031 76.605469 C 259.367188 76.769531 259.308594 76.945312 259.285156 77.132812 C 259.265625 77.316406 259.277344 77.503906 259.328125 77.683594 C 259.382812 77.863281 259.46875 78.027344 259.585938 78.171875 C 259.703125 78.320312 259.84375 78.4375 260.003906 78.53125 C 260.167969 78.621094 260.34375 78.679688 260.527344 78.707031 C 260.714844 78.730469 260.898438 78.71875 261.078125 78.675781 C 261.136719 78.675781 261.449219 78.621094 261.429688 78.617188 L 261.84375 78.617188 C 262.152344 78.613281 262.457031 78.625 262.761719 78.65625 L 263.105469 78.714844 C 263.273438 78.75 263.4375 78.785156 263.601562 78.832031 L 264.019531 78.964844 L 264.394531 79.105469 C 264.988281 79.371094 265.546875 79.695312 266.070312 80.085938 L 266.34375 80.304688 L 266.683594 80.609375 C 266.953125 80.863281 267.207031 81.132812 267.445312 81.417969 L 267.59375 81.605469 L 267.628906 81.644531 C 267.714844 81.773438 267.800781 81.898438 267.882812 82.023438 C 268.089844 82.332031 268.277344 82.648438 268.4375 82.980469 C 268.578125 83.238281 268.691406 83.507812 268.78125 83.785156 C 268.921875 84.1875 269.046875 84.59375 269.144531 85.007812 C 269.324219 85.71875 269.421875 86.4375 269.4375 87.171875 C 269.464844 87.984375 269.433594 88.796875 269.335938 89.605469 C 269.335938 89.683594 269.335938 89.757812 269.335938 89.832031 C 269.335938 89.855469 269.335938 89.875 269.335938 89.898438 C 269.300781 90.101562 269.273438 90.300781 269.230469 90.480469 C 269.164062 90.882812 269.074219 91.277344 268.976562 91.679688 C 268.789062 92.449219 268.558594 93.207031 268.28125 93.949219 C 268.21875 94.128906 268.148438 94.308594 268.078125 94.484375 L 268.078125 94.519531 L 267.914062 94.757812 C 267.738281 95.125 267.542969 95.484375 267.328125 95.828125 C 267.011719 96.4375 266.601562 96.972656 266.097656 97.4375 C 265.964844 97.566406 265.832031 97.6875 265.683594 97.8125 L 265.648438 97.8125 L 265.484375 97.929688 C 265.195312 98.128906 264.890625 98.308594 264.570312 98.457031 L 264.441406 98.523438 L 264.398438 98.523438 L 263.9375 98.679688 C 263.613281 98.773438 263.28125 98.847656 262.945312 98.902344 L 262.753906 98.902344 C 262.589844 98.902344 262.429688 98.902344 262.257812 98.902344 C 261.90625 98.910156 261.554688 98.898438 261.203125 98.867188 L 260.917969 98.832031 L 260.515625 98.753906 C 260.175781 98.691406 259.84375 98.605469 259.515625 98.511719 C 259.1875 98.417969 258.855469 98.289062 258.53125 98.167969 L 258.460938 98.253906 L 258.296875 98.179688 C 258.132812 98.109375 257.976562 98.03125 257.816406 97.949219 C 257.1875 97.636719 256.585938 97.273438 256.015625 96.867188 L 255.722656 96.644531 L 255.378906 96.367188 C 255.109375 96.140625 254.851562 95.898438 254.609375 95.65625 C 254.097656 95.144531 253.621094 94.609375 253.171875 94.046875 L 253.136719 94 L 252.972656 93.777344 L 252.660156 93.339844 C 252.453125 93.042969 252.261719 92.757812 252.074219 92.425781 C 251.695312 91.808594 251.355469 91.171875 251.054688 90.515625 L 250.863281 90.085938 L 250.738281 89.792969 C 250.597656 89.4375 250.46875 89.074219 250.347656 88.707031 C 250.117188 88.019531 249.921875 87.320312 249.765625 86.609375 C 249.695312 86.277344 249.628906 85.941406 249.570312 85.609375 C 249.535156 85.429688 249.511719 85.246094 249.484375 85.066406 C 249.484375 84.949219 249.484375 84.828125 249.4375 84.710938 C 249.363281 83.988281 249.320312 83.261719 249.316406 82.53125 C 249.308594 81.804688 249.34375 81.078125 249.414062 80.351562 L 249.464844 79.878906 L 249.464844 79.839844 L 249.5 79.582031 C 249.558594 79.214844 249.625 78.855469 249.699219 78.5 C 249.851562 77.777344 250.039062 77.066406 250.253906 76.367188 C 250.359375 76.039062 250.46875 75.714844 250.585938 75.394531 C 250.652344 75.21875 250.714844 75.050781 250.785156 74.875 C 250.816406 74.792969 250.851562 74.707031 250.886719 74.625 L 250.886719 74.511719 C 251.464844 73.160156 252.164062 71.871094 252.984375 70.644531 C 253.171875 70.359375 253.371094 70.0625 253.570312 69.792969 C 253.675781 69.640625 253.785156 69.496094 253.894531 69.351562 L 253.960938 69.261719 L 254.148438 69.035156 C 254.609375 68.453125 255.09375 67.90625 255.605469 67.367188 C 256.121094 66.832031 256.617188 66.355469 257.148438 65.878906 C 257.421875 65.632812 257.730469 65.394531 257.988281 65.15625 L 258.417969 64.8125 L 258.496094 64.753906 L 258.679688 64.613281 C 259.285156 64.15625 259.917969 63.75 260.582031 63.390625 C 260.898438 63.21875 261.21875 63.0625 261.546875 62.917969 C 261.605469 62.917969 261.796875 62.816406 261.832031 62.800781 L 262.417969 62.589844 C 263.121094 62.359375 263.839844 62.179688 264.570312 62.054688 L 264.941406 62.003906 C 265.105469 61.980469 265.269531 61.960938 265.433594 61.949219 C 265.800781 61.914062 266.175781 61.898438 266.546875 61.890625 C 269.480469 61.835938 272.242188 62.496094 274.835938 63.871094 C 275.421875 64.1875 275.984375 64.539062 276.527344 64.921875 L 276.855469 65.167969 L 277.035156 65.316406 C 277.300781 65.535156 277.550781 65.757812 277.789062 65.980469 C 278.222656 66.394531 278.625 66.832031 279 67.300781 C 279.046875 67.359375 279.09375 67.410156 279.136719 67.46875 C 279.210938 67.578125 279.300781 67.683594 279.375 67.789062 C 279.5625 68.058594 279.742188 68.332031 279.910156 68.605469 C 280.238281 69.128906 280.53125 69.671875 280.792969 70.230469 C 280.855469 70.371094 280.914062 70.515625 280.984375 70.65625 C 281.007812 70.703125 281.027344 70.746094 281.042969 70.796875 C 281.171875 71.105469 281.289062 71.417969 281.394531 71.734375 C 281.808594 72.96875 282.121094 74.230469 282.328125 75.515625 C 282.328125 75.660156 282.367188 75.808594 282.390625 75.953125 C 282.390625 76.003906 282.390625 76.058594 282.390625 76.109375 C 282.394531 76.140625 282.394531 76.171875 282.390625 76.203125 C 282.433594 76.542969 282.472656 76.878906 282.503906 77.222656 C 282.574219 77.976562 282.613281 78.738281 282.644531 79.496094 C 282.707031 81.1875 282.707031 82.875 282.644531 84.558594 C 282.511719 87.867188 282.109375 91.144531 281.441406 94.386719 C 280.761719 97.703125 279.84375 100.957031 278.691406 104.144531 C 277.574219 107.25 276.238281 110.257812 274.683594 113.167969 C 273.171875 116.023438 271.640625 118.878906 270.136719 121.738281 C 266.921875 127.867188 263.640625 133.976562 259.902344 139.804688 C 259.363281 140.640625 258.808594 141.480469 258.25 142.308594 C 254.34375 135.898438 250.242188 129.621094 246.246094 123.277344 C 244.4375 120.398438 242.664062 117.496094 240.992188 114.535156 C 240.21875 113.136719 239.464844 111.714844 238.753906 110.277344 C 238.410156 109.585938 238.078125 108.886719 237.753906 108.179688 L 237.335938 107.234375 L 237.105469 106.710938 L 237.058594 106.605469 C 237.058594 106.570312 236.949219 106.335938 236.9375 106.308594 C 235.777344 103.503906 234.851562 100.625 234.152344 97.671875 C 233.792969 96.15625 233.496094 94.617188 233.265625 93.074219 L 233.195312 92.585938 C 233.195312 92.585938 233.15625 92.269531 233.144531 92.199219 C 233.089844 91.773438 233.046875 91.347656 233 90.921875 C 232.917969 90.101562 232.847656 89.273438 232.800781 88.441406 C 232.679688 86.75 232.679688 85.058594 232.800781 83.367188 C 232.800781 82.96875 232.871094 82.578125 232.917969 82.199219 C 232.917969 82.125 232.96875 81.84375 232.917969 82.140625 L 232.953125 81.890625 C 232.988281 81.644531 233.027344 81.402344 233.074219 81.152344 C 233.21875 80.328125 233.402344 79.519531 233.621094 78.714844 C 233.84375 77.910156 234.09375 77.113281 234.382812 76.332031 C 234.519531 75.933594 234.679688 75.550781 234.835938 75.167969 C 234.851562 75.136719 234.867188 75.105469 234.878906 75.074219 C 234.90625 75.015625 234.929688 74.949219 234.960938 74.890625 C 235.050781 74.675781 235.144531 74.472656 235.246094 74.261719 C 235.957031 72.742188 236.789062 71.289062 237.738281 69.902344 C 237.976562 69.558594 238.214844 69.214844 238.464844 68.878906 L 238.617188 68.679688 L 238.746094 68.511719 C 238.792969 68.453125 238.863281 68.359375 238.863281 68.367188 L 239.097656 68.074219 C 239.628906 67.421875 240.183594 66.792969 240.761719 66.1875 C 241.34375 65.601562 241.925781 65.019531 242.570312 64.4375 C 242.878906 64.160156 243.199219 63.890625 243.519531 63.621094 L 243.964844 63.265625 L 244.132812 63.132812 L 244.320312 62.988281 C 245.660156 61.980469 247.078125 61.09375 248.566406 60.328125 C 248.9375 60.144531 249.316406 59.957031 249.695312 59.78125 L 250.277344 59.53125 L 250.347656 59.53125 L 250.632812 59.414062 C 251.410156 59.101562 252.203125 58.832031 253.003906 58.585938 C 253.800781 58.34375 254.625 58.148438 255.449219 58.003906 C 255.628906 57.953125 255.792969 57.871094 255.941406 57.753906 C 256.089844 57.636719 256.210938 57.496094 256.304688 57.332031 C 256.394531 57.171875 256.453125 56.996094 256.476562 56.808594 C 256.5 56.621094 256.484375 56.4375 256.433594 56.257812 C 256.382812 56.078125 256.296875 55.914062 256.179688 55.769531 C 256.0625 55.621094 255.921875 55.503906 255.757812 55.410156 C 255.59375 55.320312 255.421875 55.261719 255.234375 55.238281 C 255.046875 55.214844 254.863281 55.222656 254.683594 55.273438 C 251.234375 56.007812 248.007812 57.296875 245.003906 59.140625 C 242 60.984375 239.390625 63.277344 237.175781 66.015625 C 232.695312 71.476562 229.898438 78.335938 229.871094 85.445312 C 229.871094 92.074219 231.019531 98.496094 233.3125 104.714844 C 235.589844 110.800781 238.828125 116.570312 242.269531 122.144531 Z M 267.558594 81.554688 Z M 267.558594 81.554688 " fill-opacity="1" fill-rule="nonzero"/></g><g clip-path="url(#036e482555)"><path fill="#008037" d="M 54.664062 291.019531 C 48.101562 291.019531 42.769531 296.347656 42.769531 302.929688 C 42.769531 309.5 48.089844 314.839844 54.664062 314.839844 C 61.195312 314.839844 66.496094 309.566406 66.558594 303.035156 C 65.359375 303.199219 64.03125 303.488281 63.679688 303.550781 C 63.113281 303.636719 62.09375 303.789062 61.570312 303.949219 C 61.226562 304.054688 61.175781 304.25 61.109375 304.582031 C 61.054688 304.835938 60.90625 305.007812 60.789062 305.253906 C 59.792969 307.28125 59.664062 307.304688 57.8125 308.847656 C 56.742188 309.738281 57 310.144531 55.894531 310.273438 C 55.703125 310.292969 55.015625 310.402344 54.867188 310.359375 C 54.632812 310.304688 54.460938 309.671875 54.042969 309.328125 C 50.820312 309.4375 47.992188 307.058594 47.597656 303.796875 C 47.265625 301.117188 48.667969 298.632812 50.925781 297.453125 C 51.152344 297.238281 51.398438 297.066406 51.707031 296.9375 C 51.890625 296.863281 52.039062 296.925781 52.222656 296.949219 C 52.371094 296.90625 52.523438 296.875 52.671875 296.851562 C 53.238281 296.539062 52.90625 295.941406 53.753906 295.960938 C 55.015625 295.996094 54.535156 295.308594 55.296875 295.222656 C 55.757812 295.167969 55.765625 295.242188 56.035156 295.535156 C 56.675781 296.21875 57.074219 295.917969 57.425781 296.1875 C 57.578125 296.304688 57.695312 296.539062 57.960938 296.777344 C 59.085938 297.785156 59.6875 296.476562 60.402344 296.96875 C 60.84375 297.28125 61.257812 297.601562 61.878906 297.570312 C 62.363281 297.546875 64.117188 296.882812 64.460938 296.820312 L 64.824219 296.722656 C 62.738281 293.3125 58.980469 291.042969 54.683594 291.042969 Z M 48.195312 287.140625 C 41.976562 289.679688 37.585938 295.800781 37.585938 302.949219 C 37.585938 312.382812 45.21875 320.027344 54.640625 320.027344 C 63.25 320.027344 70.359375 313.648438 71.527344 305.351562 C 71.636719 305.050781 71.730469 304.753906 71.828125 304.429688 C 72.117188 303.496094 73.070312 303.445312 73.796875 303.113281 C 74.878906 302.628906 76.015625 302.234375 77.246094 302.136719 C 78.175781 302.070312 79.441406 302.0625 80.199219 302.394531 C 80.875 302.683594 81.859375 303.15625 82.40625 303.496094 C 83.082031 303.914062 83.671875 304.398438 84.632812 304.496094 C 87.183594 304.773438 86.359375 305.511719 89.816406 305.800781 C 91.863281 305.972656 93.640625 305.460938 94.515625 305.566406 C 95.105469 305.632812 95.308594 305.84375 95.78125 305.972656 C 96.207031 306.082031 98.191406 305.554688 98.617188 305.351562 C 99.023438 305.160156 99.152344 304.847656 99.558594 304.613281 C 100.019531 304.34375 100.449219 304.417969 100.757812 304.042969 C 101.777344 302.8125 101.414062 303.648438 102.011719 301.976562 C 102.738281 299.929688 104.023438 299.789062 104.21875 299.179688 C 104.515625 298.277344 104.65625 295.726562 104.65625 294.761719 C 104.65625 292.9375 104.484375 293.035156 104.367188 291.589844 C 104.3125 290.859375 104.570312 289.476562 105.085938 289.046875 C 105.375 288.789062 105.652344 288.511719 106.007812 288.296875 C 107.066406 287.65625 107 287.699219 107.816406 286.710938 C 108.609375 285.757812 108.074219 285.1875 108.875 282.851562 C 109.410156 281.285156 110.289062 279.753906 111.039062 278.46875 C 111.519531 277.640625 112.515625 277.417969 113.160156 278.210938 C 113.660156 278.832031 114.113281 279.5625 114.5625 280.226562 C 115.769531 281.996094 117.6875 284.472656 118.695312 286.367188 C 119.003906 286.957031 118.886719 287.417969 118.628906 287.859375 C 115.707031 291.179688 113.941406 295.542969 113.941406 300.324219 C 113.941406 310.765625 122.386719 319.222656 132.816406 319.222656 C 137.558594 319.222656 141.898438 317.464844 145.214844 314.570312 C 146.554688 313.476562 147.679688 312.179688 148.578125 310.722656 C 150.546875 307.742188 151.695312 304.164062 151.695312 300.3125 C 151.695312 289.875 143.246094 281.414062 132.816406 281.414062 C 130.332031 281.414062 127.957031 281.898438 125.78125 282.765625 C 125.203125 282.476562 124.5625 281.253906 122.195312 277.921875 C 121.714844 277.234375 119.519531 274.40625 119.496094 273.761719 C 119.464844 272.667969 120.652344 272.753906 121.53125 272.378906 C 123.363281 271.605469 125.398438 271.414062 127.496094 271.273438 C 128.40625 271.210938 129.464844 271.457031 130.375 271.585938 C 131.8125 271.789062 134.1875 272.445312 135.546875 272.90625 C 136.480469 273.226562 139.648438 274.738281 140.453125 274.246094 C 140.816406 274.019531 141.15625 273.773438 141.320312 273.441406 C 141.789062 272.421875 140.195312 272.28125 138.632812 271.210938 C 137.582031 270.492188 133.191406 268.402344 131.972656 268.039062 C 131.179688 267.800781 130.238281 267.457031 129.402344 267.351562 C 126.476562 266.996094 122.914062 267.082031 120.085938 267.695312 C 118.03125 268.144531 116.949219 269.378906 116.425781 268.433594 C 116.136719 267.898438 116.574219 267.585938 116.285156 267.007812 C 116.039062 266.503906 115.910156 266.472656 115.804688 265.777344 C 115.300781 262.625 116.433594 264.253906 115.523438 261.285156 C 115.269531 260.4375 114.496094 260.03125 113.863281 259.558594 C 113.265625 259.109375 112.644531 258.496094 112.054688 258.003906 C 111.765625 257.757812 111.445312 257.5 111.175781 257.234375 C 110.910156 256.976562 110.597656 256.609375 110.675781 256.054688 C 110.835938 254.808594 110.074219 254.550781 110.511719 253.203125 C 110.824219 252.269531 110.222656 251.980469 109.304688 251.324219 C 109.144531 251.207031 109.035156 251.089844 108.875 250.960938 C 108.695312 250.824219 108.597656 250.757812 108.394531 250.585938 C 108.113281 250.363281 107.644531 250.125 107.109375 250.222656 C 106.832031 250.5 106.746094 251.058594 106.542969 251.335938 C 106.113281 251.914062 105.265625 252.902344 104.441406 252.410156 C 103.875 252.078125 104.261719 252 103.308594 251.796875 C 102.269531 251.574219 101.316406 251.648438 100.289062 251.496094 C 99.914062 251.445312 99.347656 251.242188 99.089844 251.027344 C 98.617188 250.640625 98.445312 250.628906 97.792969 250.597656 C 96.21875 250.511719 94.054688 249.589844 92.535156 249.105469 C 90.953125 248.601562 89.121094 248.046875 87.792969 247.015625 C 87.515625 246.800781 87.289062 246.351562 87.160156 245.890625 C 86.9375 245.054688 87.011719 245.269531 86.613281 244.605469 C 86.292969 244.058594 85.523438 242.695312 85.824219 241.957031 C 86.070312 241.347656 87.632812 241.003906 88.242188 240.800781 C 89.753906 240.285156 89.453125 240.617188 90.609375 241.410156 C 91.027344 241.699219 91.144531 241.914062 91.453125 242.289062 C 91.742188 242.644531 92.074219 243.125 92.523438 242.589844 C 92.855469 242.183594 92.835938 242.054688 93.285156 241.636719 C 93.542969 241.398438 93.660156 240.832031 93.777344 240.390625 C 93.894531 239.953125 93.9375 239.449219 93.980469 238.957031 C 94.046875 238.207031 94.046875 238.109375 93.660156 237.582031 C 93.136719 236.855469 93.328125 237.21875 92.472656 237.292969 C 91.808594 237.347656 90.703125 237.242188 91.421875 236.167969 C 92.472656 236.285156 91.53125 235.011719 91.144531 234.21875 C 90.789062 233.199219 92.152344 232.609375 92.953125 232.609375 C 93.574219 232.609375 93.722656 232.984375 94.046875 233.199219 C 94.292969 233.371094 95.007812 233.574219 95.308594 233.660156 C 95.910156 233.84375 96.21875 233.9375 96.507812 233.457031 C 97.085938 232.503906 97.011719 231.859375 96.113281 231.214844 C 94.871094 230.328125 94.386719 229.695312 93.339844 228.71875 C 92.964844 228.363281 92.730469 228.195312 92.441406 227.902344 C 91.273438 226.726562 91.035156 226.402344 89.484375 225.621094 C 87.492188 224.625 86.21875 224.539062 83.648438 224.804688 C 82.492188 224.925781 80.414062 225.308594 79.527344 226.082031 C 78.636719 226.84375 77.707031 227.925781 77.277344 229.074219 C 77 229.800781 76.828125 231.066406 76.742188 231.890625 C 76.679688 232.46875 76.808594 232.964844 76.816406 233.554688 C 76.839844 234.28125 76.601562 234.519531 77.054688 235.042969 C 78.070312 236.222656 77.054688 236.523438 76.230469 237.027344 C 76.195312 237.5625 76.355469 238.140625 75.800781 238.453125 C 75.445312 238.644531 75.339844 238.484375 75.03125 238.496094 C 74.75 238.503906 74.632812 238.71875 74.441406 238.871094 C 73.371094 239.675781 72.308594 238.957031 71.292969 238.878906 C 69.847656 238.773438 68.648438 240.296875 67.363281 240.863281 C 66.882812 241.078125 66.367188 241.207031 65.992188 241.507812 C 65.617188 241.808594 65.371094 242.074219 64.71875 242.191406 C 64.074219 242.300781 63.65625 242.375 63.046875 242.558594 C 62.265625 242.804688 61.539062 243.824219 61.023438 244.410156 C 60.425781 245.097656 59.976562 245.933594 59.546875 246.75 C 59.066406 247.636719 58.828125 248.527344 58.496094 249.515625 C 57.289062 253.085938 57.277344 253.351562 56.742188 257.019531 C 56.644531 257.652344 56.632812 258.121094 56.582031 258.734375 C 56.496094 259.785156 56.121094 261.21875 56.773438 262.035156 C 57.050781 262.386719 57.449219 262.441406 57.800781 262.902344 C 58.21875 263.449219 58.132812 263.707031 58.324219 264.414062 C 58.402344 264.671875 58.53125 264.886719 58.59375 265.164062 C 58.667969 265.464844 58.667969 265.808594 58.699219 266.085938 C 58.988281 268.015625 59.128906 268.242188 62.363281 268.167969 C 63.058594 268.144531 63.519531 268.347656 64.011719 267.996094 C 64.214844 267.84375 64.429688 267.800781 64.632812 267.621094 C 65.039062 267.246094 65.457031 266.976562 65.53125 267.835938 C 65.574219 268.253906 65.617188 268.175781 65.746094 268.519531 C 66.097656 269.398438 65.671875 269.441406 66.304688 270.652344 C 66.410156 270.867188 66.464844 271.0625 66.558594 271.285156 C 66.753906 271.703125 67.136719 272.035156 67.007812 272.488281 C 66.730469 272.613281 62.664062 272.347656 61.902344 272.347656 C 60.199219 272.347656 58.132812 272.28125 56.441406 272.476562 C 55.691406 272.5625 54.929688 272.863281 54.460938 271.960938 C 54.148438 271.359375 54.535156 270.472656 54.34375 269.398438 C 54.257812 268.9375 54.042969 268.746094 53.785156 268.507812 C 53.238281 268.015625 52.082031 266.65625 51.601562 266.398438 C 50.960938 266.066406 48.570312 266.140625 47.757812 266.417969 C 47.363281 266.546875 47.15625 266.792969 46.792969 266.957031 C 46.140625 267.253906 43.765625 267.382812 42.832031 267.449219 C 42.210938 267.492188 42.09375 267.351562 41.578125 267.308594 C 40.882812 267.234375 40.132812 267.898438 39.621094 268.230469 C 38.753906 268.789062 38.304688 268.949219 38.269531 269.761719 C 38.226562 270.835938 38.292969 271.308594 38.558594 272.292969 C 38.925781 273.644531 37.714844 273.558594 37.53125 274.019531 C 37.5 274.210938 37.820312 275.144531 37.949219 275.242188 C 38.046875 275.316406 39.128906 275.414062 39.363281 275.464844 C 39.800781 275.550781 40.261719 275.679688 40.703125 275.789062 C 41.484375 275.96875 41.238281 276.089844 41.996094 275.789062 C 43.976562 275.003906 45.765625 275.328125 47.832031 275.671875 C 49.300781 275.917969 50.5 276.214844 51.914062 276.539062 C 52.363281 276.644531 52.898438 276.675781 53.035156 277.097656 C 53.238281 277.761719 52.566406 277.75 52.160156 277.867188 C 51.410156 278.082031 51.785156 278.1875 50.753906 278.007812 C 48.304688 277.558594 47.617188 277.011719 45.617188 276.496094 C 45.125 276.367188 43.859375 276.3125 43.335938 276.496094 C 42.949219 276.625 43.058594 276.667969 42.863281 276.882812 C 42.46875 277.34375 42.359375 277.191406 42.179688 277.898438 C 42.0625 278.382812 42.007812 278.757812 41.859375 279.230469 C 41.71875 279.65625 41.632812 280.140625 41.65625 280.644531 C 41.6875 281.265625 41.859375 281.511719 42.328125 281.707031 C 45.125 282.851562 47.90625 283.976562 50.753906 284.972656 C 51.207031 285.136719 51.730469 285.144531 51.785156 285.628906 C 51.675781 285.855469 51.589844 285.886719 51.332031 285.980469 C 51.023438 286.101562 51.109375 286.207031 50.722656 286.238281 C 49.609375 286.335938 49.117188 286.078125 48.582031 286.5625 C 48.335938 286.777344 48.316406 286.691406 48.195312 287.03125 C 48.1875 287.054688 48.1875 287.074219 48.175781 287.097656 Z M 132.730469 286.527344 C 131.113281 286.527344 129.550781 286.816406 128.117188 287.34375 C 127.871094 287.835938 128.160156 288.78125 128.40625 289.175781 C 128.78125 289.789062 130.023438 291.449219 130.527344 292.15625 C 131.019531 292.84375 131.351562 293.28125 131.597656 293.5625 C 135.867188 293.421875 139.5 296.464844 139.765625 300.496094 C 140.042969 304.613281 136.703125 308.191406 132.304688 308.480469 C 127.902344 308.78125 124.113281 305.683594 123.84375 301.558594 C 123.8125 301.148438 123.824219 300.742188 123.867188 300.347656 C 123.671875 298.511719 124.820312 298.03125 124.667969 296.5625 C 124.617188 295.996094 124.1875 295.167969 123.953125 294.664062 C 123.800781 294.34375 122.472656 292.1875 122.054688 291.898438 C 122.035156 291.886719 122.011719 291.867188 121.992188 291.855469 C 120.269531 294.117188 119.25 296.949219 119.25 300.015625 C 119.25 307.476562 125.289062 313.507812 132.730469 313.507812 C 140.183594 313.507812 146.210938 307.464844 146.210938 300.015625 C 146.210938 292.554688 140.171875 286.519531 132.730469 286.519531 Z M 89.792969 259.066406 C 89.34375 258.96875 88.863281 259.441406 88.296875 259.570312 C 85.90625 260.105469 85.40625 259.085938 84.6875 259.644531 C 84.128906 260.074219 83.808594 262.054688 83.96875 262.890625 C 84.078125 263.460938 84.164062 264.148438 84.644531 264.351562 C 85.039062 264.523438 88.765625 265.046875 91.003906 265.96875 C 91.421875 266.140625 93.605469 267.117188 93.875 267.082031 C 94.21875 267.050781 94.796875 266.34375 94.847656 265.980469 C 94.964844 265.207031 95.136719 265.121094 95.941406 264.984375 C 96.476562 264.898438 97.34375 264.703125 97.878906 264.746094 C 98.46875 264.800781 98.199219 265.519531 98.820312 265.839844 C 99.183594 266.035156 100.308594 266.128906 101.808594 266.902344 C 102.816406 267.425781 102.417969 268.757812 103.136719 268.765625 C 103.960938 268.777344 103.863281 267.222656 103.863281 266.453125 C 103.863281 265.699219 104.023438 265.28125 104.058594 264.660156 C 104.132812 262.515625 102.492188 263.03125 102.570312 262.035156 C 102.621094 261.210938 102.515625 260.929688 101.679688 260.941406 C 100.972656 260.953125 100.40625 260.886719 99.742188 260.898438 C 98.875 260.910156 98.671875 260.953125 98.191406 260.4375 C 97.730469 259.933594 97.503906 260.082031 96.839844 259.816406 C 96.574219 259.707031 96.433594 259.570312 96.082031 259.546875 C 95.296875 259.503906 94.355469 259.828125 93.273438 259.417969 C 91.902344 258.90625 91.199219 259.570312 90.5 259.375 C 90.234375 259.300781 90.210938 259.152344 89.804688 259.066406 Z M 89.792969 259.066406 " fill-opacity="1" fill-rule="evenodd"/></g></svg>