<svg xmlns="http://www.w3.org/2000/svg" xmlns:xlink="http://www.w3.org/1999/xlink" width="1500" zoomAndPan="magnify" viewBox="0 0 1125 374.999991" height="500" preserveAspectRatio="xMidYMid meet" version="1.0"><defs><g/></defs><g fill="#41b211" fill-opacity="1"><g transform="translate(62.472666, 206.377977)"><g><path d="M 101.375 -144.765625 L 102.140625 -144.578125 C 105.335938 -142.660156 108.117188 -140.515625 110.484375 -138.140625 C 112.859375 -135.773438 115.035156 -133.28125 117.015625 -130.65625 C 119.003906 -128.03125 120.578125 -125.179688 121.734375 -122.109375 C 126.597656 -110.335938 122.375 -97.15625 109.0625 -82.5625 C 103.425781 -76.414062 97.085938 -71.164062 90.046875 -66.8125 C 91.835938 -65.53125 93.53125 -64.601562 95.125 -64.03125 C 96.726562 -63.457031 99.003906 -62.367188 101.953125 -60.765625 C 104.898438 -59.171875 106.820312 -56.164062 107.71875 -51.75 C 108.613281 -47.332031 108.390625 -42.367188 107.046875 -36.859375 C 105.703125 -31.359375 103.269531 -25.695312 99.75 -19.875 C 96.226562 -14.050781 91.648438 -8.832031 86.015625 -4.21875 C 73.210938 6.40625 58.363281 10.882812 41.46875 9.21875 C 39.039062 9.21875 37.503906 9.023438 36.859375 8.640625 C 36.222656 8.253906 35.710938 7.929688 35.328125 7.671875 C 34.941406 7.421875 34.109375 7.234375 32.828125 7.109375 C 29.628906 9.660156 25.984375 11.253906 21.890625 11.890625 C 17.796875 12.535156 13.921875 12.21875 10.265625 10.9375 C 6.617188 9.664062 3.546875 7.492188 1.046875 4.421875 C -1.441406 1.347656 -2.6875 -2.6875 -2.6875 -7.6875 C -2.300781 -11.007812 -1.660156 -13.628906 -0.765625 -15.546875 C -1.148438 -16.703125 -1.34375 -18.113281 -1.34375 -19.78125 C 3.007812 -42.945312 7.101562 -60.671875 10.9375 -72.953125 C 18.75 -97.398438 27.195312 -115.832031 36.28125 -128.25 C 43.707031 -138.75 54.015625 -145.535156 67.203125 -148.609375 C 79.867188 -151.554688 91.257812 -150.273438 101.375 -144.765625 Z M 41.65625 -10.75 C 43.195312 -11.132812 44.507812 -11.226562 45.59375 -11.03125 C 46.6875 -10.84375 48 -10.878906 49.53125 -11.140625 C 53.25 -11.523438 58.242188 -13.828125 64.515625 -18.046875 C 68.484375 -22.015625 70.59375 -25.914062 70.84375 -29.75 C 71.101562 -33.59375 70.53125 -36.054688 69.125 -37.140625 C 67.71875 -38.234375 65.828125 -38.78125 63.453125 -38.78125 C 61.085938 -38.78125 58.460938 -38.425781 55.578125 -37.71875 C 52.703125 -37.019531 49.921875 -36.609375 47.234375 -36.484375 L 47.234375 -36.09375 C 46.585938 -33.53125 45.945312 -31.289062 45.3125 -29.375 C 44.675781 -27.457031 44.097656 -25.601562 43.578125 -23.8125 C 42.429688 -19.582031 41.535156 -15.226562 40.890625 -10.75 Z M 77.375 -110.59375 C 73.53125 -111.101562 69.367188 -108.09375 64.890625 -101.5625 C 62.078125 -97.46875 59.90625 -91.257812 58.375 -82.9375 C 61.0625 -84.09375 63.710938 -85.085938 66.328125 -85.921875 C 68.953125 -86.753906 71.421875 -87.679688 73.734375 -88.703125 C 79.359375 -91.140625 83.390625 -94.082031 85.828125 -97.53125 C 88.640625 -100.863281 89.535156 -103.679688 88.515625 -105.984375 C 86.972656 -108.035156 84.476562 -109.890625 81.03125 -111.546875 C 80 -110.648438 78.78125 -110.332031 77.375 -110.59375 Z M 74.5 -111.359375 L 75.078125 -111.359375 Z M 74.5 -111.359375 "/></g></g></g><g fill="#41b211" fill-opacity="1"><g transform="translate(174.785787, 206.377977)"><g><path d="M 34.5625 -136.3125 C 36.988281 -142.207031 40.441406 -144.320312 44.921875 -142.65625 C 46.203125 -145.46875 47.320312 -147.257812 48.28125 -148.03125 C 49.25 -148.800781 50.242188 -149.410156 51.265625 -149.859375 C 52.285156 -150.304688 53.367188 -150.785156 54.515625 -151.296875 C 55.671875 -151.804688 57.460938 -152.253906 59.890625 -152.640625 C 62.328125 -153.023438 65.019531 -153.25 67.96875 -153.3125 C 70.914062 -153.375 73.890625 -153.210938 76.890625 -152.828125 C 79.898438 -152.441406 82.429688 -151.609375 84.484375 -150.328125 C 89.472656 -147.390625 90.5625 -142.65625 87.75 -136.125 C 88 -136.25 87.929688 -136.125 87.546875 -135.75 L 85.828125 -132.484375 L 84.484375 -130.75 C 83.835938 -130.113281 81.851562 -126.210938 78.53125 -119.046875 C 75.84375 -113.921875 73.085938 -108.863281 70.265625 -103.875 C 65.660156 -95.300781 62.847656 -89.796875 61.828125 -87.359375 C 66.304688 -89.796875 71.488281 -93.316406 77.375 -97.921875 C 88.507812 -106.492188 95.613281 -111.613281 98.6875 -113.28125 C 101.757812 -114.945312 103.898438 -115.96875 105.109375 -116.34375 C 106.328125 -116.726562 107.515625 -116.828125 108.671875 -116.640625 C 109.828125 -116.453125 111.039062 -116.097656 112.3125 -115.578125 L 117.125 -113.65625 C 120.195312 -112.632812 121.859375 -108.925781 122.109375 -102.53125 C 122.234375 -96.257812 120.953125 -91.519531 118.265625 -88.3125 C 106.617188 -73.207031 93.5 -63.097656 78.90625 -57.984375 C 74.425781 -56.316406 69.820312 -54.910156 65.09375 -53.765625 C 71.875 -52.992188 78.335938 -48.507812 84.484375 -40.3125 C 89.472656 -33.664062 93.085938 -26.820312 95.328125 -19.78125 C 97.566406 -12.738281 99.328125 -7.519531 100.609375 -4.125 C 101.890625 -0.738281 102.429688 1.878906 102.234375 3.734375 C 102.046875 5.597656 100.957031 7.007812 98.96875 7.96875 C 96.988281 8.925781 93.628906 9.851562 88.890625 10.75 C 86.710938 11.132812 82.234375 8.578125 75.453125 3.078125 C 72.515625 0.640625 69.378906 -2.015625 66.046875 -4.890625 C 62.722656 -7.773438 59.394531 -10.5 56.0625 -13.0625 C 48.382812 -19.070312 43.007812 -22.207031 39.9375 -22.46875 C 39.675781 -22.46875 39.164062 -22.59375 38.40625 -22.84375 L 34.9375 -14.203125 C 33.144531 -9.984375 31.320312 -5.535156 29.46875 -0.859375 C 27.613281 3.804688 25.40625 8 22.84375 11.71875 C 18.875 14.40625 14.269531 15.488281 9.03125 14.96875 C 3.007812 14.332031 -0.957031 11.90625 -2.875 7.6875 C -4.15625 3.71875 -2.046875 -7.929688 3.453125 -27.265625 C 7.171875 -40.828125 10.375 -52.726562 13.0625 -62.96875 C 15.75 -73.21875 18.050781 -81.703125 19.96875 -88.421875 C 21.882812 -95.140625 23.289062 -100.382812 24.1875 -104.15625 C 25.082031 -107.9375 25.976562 -111.617188 26.875 -115.203125 C 29.050781 -123.523438 31.613281 -130.5625 34.5625 -136.3125 Z M 34.5625 -136.3125 "/></g></g></g><g fill="#41b211" fill-opacity="1"><g transform="translate(285.946957, 206.377977)"><g><path d="M 34.5625 -136.3125 C 36.988281 -142.207031 40.441406 -144.320312 44.921875 -142.65625 C 46.203125 -145.46875 47.320312 -147.257812 48.28125 -148.03125 C 49.25 -148.800781 50.242188 -149.410156 51.265625 -149.859375 C 52.285156 -150.304688 53.367188 -150.785156 54.515625 -151.296875 C 55.671875 -151.804688 57.460938 -152.253906 59.890625 -152.640625 C 62.328125 -153.023438 65.019531 -153.25 67.96875 -153.3125 C 70.914062 -153.375 73.890625 -153.210938 76.890625 -152.828125 C 79.898438 -152.441406 82.429688 -151.609375 84.484375 -150.328125 C 89.472656 -147.390625 90.5625 -142.65625 87.75 -136.125 C 88 -136.25 87.929688 -136.125 87.546875 -135.75 L 85.828125 -132.484375 L 84.484375 -130.75 C 83.835938 -130.113281 81.851562 -126.210938 78.53125 -119.046875 C 75.84375 -113.921875 73.085938 -108.863281 70.265625 -103.875 C 65.660156 -95.300781 62.847656 -89.796875 61.828125 -87.359375 C 66.304688 -89.796875 71.488281 -93.316406 77.375 -97.921875 C 88.507812 -106.492188 95.613281 -111.613281 98.6875 -113.28125 C 101.757812 -114.945312 103.898438 -115.96875 105.109375 -116.34375 C 106.328125 -116.726562 107.515625 -116.828125 108.671875 -116.640625 C 109.828125 -116.453125 111.039062 -116.097656 112.3125 -115.578125 L 117.125 -113.65625 C 120.195312 -112.632812 121.859375 -108.925781 122.109375 -102.53125 C 122.234375 -96.257812 120.953125 -91.519531 118.265625 -88.3125 C 106.617188 -73.207031 93.5 -63.097656 78.90625 -57.984375 C 74.425781 -56.316406 69.820312 -54.910156 65.09375 -53.765625 C 71.875 -52.992188 78.335938 -48.507812 84.484375 -40.3125 C 89.472656 -33.664062 93.085938 -26.820312 95.328125 -19.78125 C 97.566406 -12.738281 99.328125 -7.519531 100.609375 -4.125 C 101.890625 -0.738281 102.429688 1.878906 102.234375 3.734375 C 102.046875 5.597656 100.957031 7.007812 98.96875 7.96875 C 96.988281 8.925781 93.628906 9.851562 88.890625 10.75 C 86.710938 11.132812 82.234375 8.578125 75.453125 3.078125 C 72.515625 0.640625 69.378906 -2.015625 66.046875 -4.890625 C 62.722656 -7.773438 59.394531 -10.5 56.0625 -13.0625 C 48.382812 -19.070312 43.007812 -22.207031 39.9375 -22.46875 C 39.675781 -22.46875 39.164062 -22.59375 38.40625 -22.84375 L 34.9375 -14.203125 C 33.144531 -9.984375 31.320312 -5.535156 29.46875 -0.859375 C 27.613281 3.804688 25.40625 8 22.84375 11.71875 C 18.875 14.40625 14.269531 15.488281 9.03125 14.96875 C 3.007812 14.332031 -0.957031 11.90625 -2.875 7.6875 C -4.15625 3.71875 -2.046875 -7.929688 3.453125 -27.265625 C 7.171875 -40.828125 10.375 -52.726562 13.0625 -62.96875 C 15.75 -73.21875 18.050781 -81.703125 19.96875 -88.421875 C 21.882812 -95.140625 23.289062 -100.382812 24.1875 -104.15625 C 25.082031 -107.9375 25.976562 -111.617188 26.875 -115.203125 C 29.050781 -123.523438 31.613281 -130.5625 34.5625 -136.3125 Z M 34.5625 -136.3125 "/></g></g></g><g fill="#41b211" fill-opacity="1"><g transform="translate(397.108128, 206.377977)"><g/></g></g><g fill="#41b211" fill-opacity="1"><g transform="translate(457.008468, 206.377977)"><g><path d="M 66.90625 -49.234375 C 63.382812 -39.191406 59.832031 -29.5625 56.25 -20.34375 C 52.664062 -11.132812 49.691406 -4.128906 47.328125 0.671875 C 44.960938 5.472656 42.882812 8.769531 41.09375 10.5625 C 39.300781 12.351562 37.472656 13.566406 35.609375 14.203125 C 33.753906 14.847656 31.898438 15.101562 30.046875 14.96875 C 28.191406 14.84375 26.304688 14.71875 24.390625 14.59375 C 13.628906 12.925781 10.300781 5.179688 14.40625 -8.640625 C 17.09375 -19.648438 19.265625 -28.640625 20.921875 -35.609375 C 22.585938 -42.585938 23.960938 -48.347656 25.046875 -52.890625 C 26.140625 -57.441406 27.066406 -61.21875 27.828125 -64.21875 C 28.597656 -67.226562 29.429688 -70.203125 30.328125 -73.140625 C 31.234375 -76.085938 32.359375 -79.414062 33.703125 -83.125 C 35.046875 -86.84375 36.800781 -91.773438 38.96875 -97.921875 C 34.113281 -97.273438 29.765625 -97.785156 25.921875 -99.453125 C 20.285156 -101.890625 17.984375 -107.140625 19.015625 -115.203125 C 19.523438 -118.910156 21.503906 -122.363281 24.953125 -125.5625 C 26.742188 -127.226562 28.859375 -129.019531 31.296875 -130.9375 C 36.285156 -134.90625 46.207031 -139.128906 61.0625 -143.609375 C 76.414062 -148.222656 89.597656 -150.398438 100.609375 -150.140625 C 103.554688 -150.648438 106.597656 -150.296875 109.734375 -149.078125 C 112.867188 -147.867188 115.394531 -146.238281 117.3125 -144.1875 C 119.226562 -142.144531 120.21875 -139.90625 120.28125 -137.46875 C 120.351562 -135.039062 118.785156 -132.863281 115.578125 -130.9375 C 114.046875 -129.914062 112.957031 -128.21875 112.3125 -125.84375 C 111.675781 -123.476562 110.972656 -120.984375 110.203125 -118.359375 C 109.441406 -115.742188 108.320312 -113.347656 106.84375 -111.171875 C 105.375 -108.992188 103.039062 -107.710938 99.84375 -107.328125 C 98.175781 -106.429688 95.835938 -105.789062 92.828125 -105.40625 C 89.816406 -105.019531 87.832031 -104.726562 86.875 -104.53125 C 85.914062 -104.34375 85.375 -103.992188 85.25 -103.484375 C 82.945312 -96.703125 80.191406 -88.476562 76.984375 -78.8125 C 73.785156 -69.144531 70.425781 -59.285156 66.90625 -49.234375 Z M 40.890625 -100.03125 C 40.640625 -100.03125 40.515625 -100 40.515625 -99.9375 C 40.515625 -99.875 40.640625 -99.84375 40.890625 -99.84375 Z M 40.890625 -100.03125 "/></g></g></g><g fill="#41b211" fill-opacity="1"><g transform="translate(553.386541, 206.377977)"><g><path d="M 33.59375 0.578125 C 32.445312 5.691406 28.484375 8.828125 21.703125 9.984375 C 15.421875 11.140625 9.46875 10.4375 3.84375 7.875 C -2.425781 5.1875 -5.179688 1.410156 -4.421875 -3.453125 C -5.179688 -10.878906 -1.273438 -27.007812 7.296875 -51.84375 C 20.097656 -89.09375 32.898438 -115.71875 45.703125 -131.71875 C 49.023438 -135.8125 51.867188 -138.460938 54.234375 -139.671875 C 56.609375 -140.890625 59.332031 -142.007812 62.40625 -143.03125 C 65.476562 -144.0625 68.675781 -145.023438 72 -145.921875 C 78.65625 -147.710938 84.957031 -148.957031 90.90625 -149.65625 C 96.863281 -150.363281 102.207031 -149.660156 106.9375 -147.546875 C 111.675781 -145.441406 115.359375 -142.335938 117.984375 -138.234375 C 120.609375 -134.140625 122.238281 -129.304688 122.875 -123.734375 C 123.519531 -118.171875 123.328125 -112.347656 122.296875 -106.265625 C 121.273438 -100.191406 119.421875 -94.050781 116.734375 -87.84375 C 114.046875 -81.632812 110.65625 -75.84375 106.5625 -70.46875 C 97.601562 -58.6875 87.109375 -51.066406 75.078125 -47.609375 L 76.984375 -44.359375 C 78.648438 -41.796875 80.664062 -38.976562 83.03125 -35.90625 C 85.40625 -32.832031 87.773438 -29.695312 90.140625 -26.5 C 92.515625 -23.300781 94.660156 -20.097656 96.578125 -16.890625 C 98.492188 -13.691406 99.898438 -10.6875 100.796875 -7.875 C 102.847656 -1.601562 101.25 2.941406 96 5.765625 C 91.769531 8.316406 88.441406 8.957031 86.015625 7.6875 C 84.992188 7.039062 83.96875 6.238281 82.9375 5.28125 C 81.914062 4.320312 80.507812 3.519531 78.71875 2.875 C 71.164062 5.050781 65.40625 3.132812 61.4375 -2.875 C 59.007812 -6.71875 57.15625 -10.238281 55.875 -13.4375 C 54.59375 -16.632812 53.503906 -19.320312 52.609375 -21.5 C 50.304688 -26.238281 47.679688 -30.335938 44.734375 -33.796875 C 43.328125 -30.335938 41.726562 -25.921875 39.9375 -20.546875 C 37.757812 -13.765625 35.328125 -6.722656 32.640625 0.578125 Z M 72.390625 -111.171875 C 69.953125 -105.660156 68.285156 -101.816406 67.390625 -99.640625 C 65.597656 -95.296875 63.613281 -90.5 61.4375 -85.25 C 61.050781 -82.4375 60.734375 -80.453125 60.484375 -79.296875 L 63.171875 -81.984375 L 66.4375 -83.515625 C 68.738281 -84.796875 70.847656 -85.945312 72.765625 -86.96875 C 74.679688 -88 76.410156 -89.28125 77.953125 -90.8125 C 80.898438 -93.757812 83.457031 -98.5625 85.625 -105.21875 C 85.625 -106.5 85.847656 -107.773438 86.296875 -109.046875 C 86.742188 -110.328125 87.035156 -111.609375 87.171875 -112.890625 C 87.679688 -115.710938 86.53125 -117.695312 83.71875 -118.84375 C 81.15625 -119.101562 77.953125 -116.992188 74.109375 -112.515625 C 73.335938 -111.617188 72.765625 -111.171875 72.390625 -111.171875 Z M 72.390625 -111.171875 "/></g></g></g><g fill="#41b211" fill-opacity="1"><g transform="translate(665.123671, 206.377977)"><g><path d="M 106.171875 -130.171875 C 110.523438 -127.867188 113.28125 -124.476562 114.4375 -120 C 111.875 -105.664062 109.566406 -91.425781 107.515625 -77.28125 C 105.472656 -63.132812 103.488281 -51.289062 101.5625 -41.75 C 99.644531 -32.21875 98.332031 -25.082031 97.625 -20.34375 C 96.925781 -15.613281 96.128906 -10.878906 95.234375 -6.140625 L 94.078125 -2.109375 C 93.828125 -0.703125 93.570312 0.601562 93.3125 1.8125 C 93.050781 3.03125 92.796875 4.347656 92.546875 5.765625 C 88.960938 9.859375 84.097656 11.90625 77.953125 11.90625 C 71.421875 11.90625 66.238281 10.238281 62.40625 6.90625 C 60.09375 5.113281 59.707031 1.335938 61.25 -4.421875 C 61.882812 -6.722656 62.296875 -9.695312 62.484375 -13.34375 C 62.679688 -16.988281 62.910156 -20.03125 63.171875 -22.46875 L 63.171875 -22.84375 C 59.328125 -21.4375 55.867188 -19.613281 52.796875 -17.375 C 49.722656 -15.132812 47.800781 -13.722656 47.03125 -13.140625 C 46.269531 -12.566406 45.25 -12.117188 43.96875 -11.796875 C 42.6875 -11.484375 41.535156 -11.265625 40.515625 -11.140625 C 38.078125 -11.003906 36.410156 -10.617188 35.515625 -9.984375 C 28.097656 3.328125 21.441406 10.75 15.546875 12.28125 C 11.835938 13.4375 8.125 13.722656 4.40625 13.140625 C 0.695312 12.566406 -2.242188 10.363281 -4.421875 6.53125 C -8.515625 2.6875 -7.488281 -7.804688 -1.34375 -24.953125 C 1.976562 -34.046875 6.742188 -44.957031 12.953125 -57.6875 C 19.160156 -70.425781 25.144531 -81.535156 30.90625 -91.015625 C 43.320312 -111.359375 56.957031 -128.507812 71.8125 -142.46875 C 74.238281 -143.488281 76.859375 -144.671875 79.671875 -146.015625 C 82.492188 -147.359375 85.28125 -148.09375 88.03125 -148.21875 C 90.78125 -148.351562 93.625 -148.035156 96.5625 -147.265625 C 99.507812 -146.492188 102.007812 -145.34375 104.0625 -143.8125 C 108.800781 -140.226562 109.503906 -135.679688 106.171875 -130.171875 Z M 65.09375 -79.6875 C 62.40625 -72 59.710938 -64.921875 57.015625 -58.453125 C 54.328125 -51.992188 52.023438 -46.332031 50.109375 -41.46875 L 65.28125 -42.046875 C 66.300781 -50.242188 67.453125 -58.375 68.734375 -66.4375 C 70.015625 -74.5 71.234375 -82.5625 72.390625 -90.625 Z M 59.90625 -41.28125 C 61.695312 -41.28125 63.488281 -41.40625 65.28125 -41.65625 L 65.28125 -41.859375 C 63.613281 -41.722656 62.078125 -41.59375 60.671875 -41.46875 C 59.265625 -41.34375 59.007812 -41.28125 59.90625 -41.28125 Z M 59.90625 -41.28125 "/></g></g></g><g fill="#41b211" fill-opacity="1"><g transform="translate(773.405051, 206.377977)"><g><path d="M 15.171875 -6.34375 L 13.828125 -130.375 C 13.828125 -133.4375 15.070312 -136.085938 17.5625 -138.328125 C 20.0625 -140.578125 22.910156 -142.148438 26.109375 -143.046875 C 29.304688 -143.941406 32.3125 -144.066406 35.125 -143.421875 C 37.945312 -142.785156 39.742188 -141.125 40.515625 -138.4375 C 42.941406 -133.570312 44.601562 -126.847656 45.5 -118.265625 C 47.164062 -102.265625 48 -88.441406 48 -76.796875 C 49.28125 -74.753906 50.878906 -73.796875 52.796875 -73.921875 C 58.304688 -87.359375 64.390625 -100.285156 71.046875 -112.703125 C 77.703125 -125.117188 81.988281 -133.085938 83.90625 -136.609375 C 85.820312 -140.128906 88.125 -142.59375 90.8125 -144 C 93.5 -145.40625 96.378906 -146.300781 99.453125 -146.6875 C 106.109375 -147.457031 112.378906 -146.304688 118.265625 -143.234375 C 122.742188 -141.691406 125.367188 -139.066406 126.140625 -135.359375 C 129.085938 -129.472656 127.101562 -122.691406 120.1875 -115.015625 C 112.125 -102.210938 104 -88.066406 95.8125 -72.578125 C 80.195312 -42.753906 70.273438 -24.382812 66.046875 -17.46875 C 61.828125 -10.5625 58.753906 -5.664062 56.828125 -2.78125 C 54.910156 0.09375 52.734375 2.492188 50.296875 4.421875 C 45.953125 7.867188 40.707031 9.273438 34.5625 8.640625 C 23.8125 8.253906 17.539062 4.863281 15.75 -1.53125 C 15.363281 -3.320312 15.171875 -4.925781 15.171875 -6.34375 Z M 15.171875 -6.34375 "/></g></g></g><g fill="#41b211" fill-opacity="1"><g transform="translate(872.278977, 206.377977)"><g><path d="M 43.390625 -24.1875 C 50.816406 -23.425781 56.351562 -23.046875 60 -23.046875 C 63.644531 -23.046875 69.179688 -23.554688 76.609375 -24.578125 C 78.910156 -23.804688 80.253906 -22.84375 80.640625 -21.6875 C 81.023438 -20.539062 81.148438 -19.359375 81.015625 -18.140625 C 80.890625 -16.921875 80.953125 -15.734375 81.203125 -14.578125 C 81.460938 -13.429688 82.679688 -12.476562 84.859375 -11.71875 C 86.015625 -11.332031 86.367188 -10.207031 85.921875 -8.34375 C 85.472656 -6.488281 84.414062 -4.472656 82.75 -2.296875 C 78.53125 3.203125 73.539062 7.039062 67.78125 9.21875 C 58.5625 11.519531 51.328125 12.863281 46.078125 13.25 C 37.378906 13.882812 27.90625 13.5625 17.65625 12.28125 C 6.394531 10.238281 0.957031 5.566406 1.34375 -1.734375 C 1.34375 -28.609375 7.234375 -55.613281 19.015625 -82.75 C 22.847656 -91.582031 27.195312 -100.863281 32.0625 -110.59375 C 33.082031 -112.632812 33.6875 -114.9375 33.875 -117.5 C 34.070312 -120.0625 34.234375 -122.554688 34.359375 -124.984375 C 34.492188 -127.421875 34.878906 -129.597656 35.515625 -131.515625 C 36.160156 -133.441406 37.503906 -134.785156 39.546875 -135.546875 C 66.171875 -146.171875 87.226562 -150.269531 102.71875 -147.84375 C 108.09375 -147.707031 111.644531 -145.878906 113.375 -142.359375 C 115.101562 -138.847656 115.296875 -134.914062 113.953125 -130.5625 C 112.609375 -126.207031 109.984375 -122.109375 106.078125 -118.265625 C 102.171875 -114.429688 97.273438 -112.066406 91.390625 -111.171875 C 83.835938 -108.992188 79.226562 -107.519531 77.5625 -106.75 C 74.363281 -105.21875 72.0625 -103.171875 70.65625 -100.609375 C 68.863281 -97.796875 67.195312 -95.109375 65.65625 -92.546875 C 64.125 -89.984375 63.039062 -87.226562 62.40625 -84.28125 L 61.625 -80.0625 C 64.0625 -78.914062 67.039062 -78.566406 70.5625 -79.015625 C 74.082031 -79.460938 77.34375 -79.910156 80.34375 -80.359375 C 83.351562 -80.804688 85.785156 -80.835938 87.640625 -80.453125 C 89.503906 -80.066406 89.890625 -78.175781 88.796875 -74.78125 C 87.710938 -71.394531 85.726562 -67.585938 82.84375 -63.359375 C 79.96875 -59.140625 75.90625 -56.066406 70.65625 -54.140625 C 67.320312 -53.503906 65.046875 -53.023438 63.828125 -52.703125 C 62.617188 -52.378906 61.695312 -52.15625 61.0625 -52.03125 C 60.164062 -51.90625 57.601562 -51.710938 53.375 -51.453125 C 47.363281 -41.210938 43.71875 -33.273438 42.4375 -27.640625 C 41.914062 -25.335938 42.234375 -24.1875 43.390625 -24.1875 Z M 43.390625 -24.1875 "/></g></g></g><g fill="#41b211" fill-opacity="1"><g transform="translate(972.880777, 206.377977)"><g><path d="M 66.625 9.21875 C 63.9375 9.988281 61.375 10.40625 58.9375 10.46875 C 56.507812 10.53125 54.046875 10.625 51.546875 10.75 C 49.046875 10.875 45.617188 10.9375 41.265625 10.9375 C 36.921875 10.9375 30.394531 10.8125 21.6875 10.5625 C 19.644531 10.6875 17.597656 10.75 15.546875 10.75 C 13.492188 10.75 11.570312 10.363281 9.78125 9.59375 C 5.8125 7.9375 3.125 4.097656 1.71875 -1.921875 C 1.082031 -4.734375 0.347656 -6.710938 -0.484375 -7.859375 C -1.316406 -9.015625 -1.988281 -10.109375 -2.5 -11.140625 C -3.78125 -13.179688 -3.679688 -16.570312 -2.203125 -21.3125 C -0.734375 -26.050781 1.148438 -31.90625 3.453125 -38.875 C 5.753906 -45.851562 8.378906 -53.25 11.328125 -61.0625 C 18.234375 -79.613281 24.441406 -94.332031 29.953125 -105.21875 C 32.128906 -110.082031 34.015625 -114.304688 35.609375 -117.890625 C 37.210938 -121.472656 38.648438 -124.578125 39.921875 -127.203125 C 41.203125 -129.828125 41.84375 -131.203125 41.84375 -131.328125 C 43.125 -136.191406 48.054688 -140.285156 56.640625 -143.609375 C 64.953125 -147.066406 72.503906 -147.960938 79.296875 -146.296875 C 86.847656 -144.378906 90.175781 -139.390625 89.28125 -131.328125 C 87.488281 -123.390625 84.832031 -115.453125 81.3125 -107.515625 C 77.789062 -99.578125 73.789062 -91.253906 69.3125 -82.546875 C 64.832031 -73.847656 59.96875 -64.632812 54.71875 -54.90625 C 49.46875 -45.175781 44.28125 -34.617188 39.15625 -23.234375 C 39.03125 -22.722656 39.289062 -22.273438 39.9375 -21.890625 C 41.59375 -22.015625 43.925781 -22.523438 46.9375 -23.421875 C 49.945312 -24.316406 53.082031 -25.113281 56.34375 -25.8125 C 59.613281 -26.519531 62.847656 -26.875 66.046875 -26.875 C 69.242188 -26.875 71.929688 -26.046875 74.109375 -24.390625 C 73.984375 -22.078125 74.554688 -20.25 75.828125 -18.90625 C 77.109375 -17.5625 78.390625 -16.25 79.671875 -14.96875 C 82.867188 -11.644531 83.125 -7.234375 80.4375 -1.734375 C 77.882812 3.648438 73.28125 7.300781 66.625 9.21875 Z M 66.625 9.21875 "/></g></g></g><g fill="#41b211" fill-opacity="1"><g transform="translate(230.932689, 321.668021)"><g><path d="M 49.3125 -68.625 C 50.539062 -68.570312 51.15625 -68.179688 51.15625 -67.453125 C 51.15625 -66.609375 50.492188 -65.664062 49.171875 -64.625 C 47.859375 -63.59375 46.703125 -63.078125 45.703125 -63.078125 C 40.878906 -63.078125 35.53125 -62.941406 29.65625 -62.671875 C 24.894531 -43.566406 21.585938 -25.867188 19.734375 -9.578125 C 20.523438 -9.515625 21.1875 -9.328125 21.71875 -9.015625 C 22.25 -8.710938 22.515625 -8.3125 22.515625 -7.8125 C 22.515625 -7.132812 22.007812 -6.40625 21 -5.625 L 17.71875 -3.109375 C 17.332031 -2.710938 16.59375 -2.347656 15.5 -2.015625 C 14.40625 -1.679688 13.382812 -1.515625 12.4375 -1.515625 C 10.695312 -1.515625 9.910156 -2.210938 10.078125 -3.609375 C 12.035156 -22.035156 15.617188 -41.410156 20.828125 -61.734375 L 20.75 -62.078125 C 14.363281 -61.515625 8.398438 -60.898438 2.859375 -60.234375 C 2.015625 -60.117188 1.335938 -60.242188 0.828125 -60.609375 C 0.328125 -60.972656 0.109375 -61.546875 0.171875 -62.328125 C 0.222656 -63.109375 0.710938 -63.75 1.640625 -64.25 C 2.566406 -64.757812 3.5625 -65.15625 4.625 -65.4375 C 10 -67 15.988281 -68.0625 22.59375 -68.625 L 23.09375 -70.0625 C 23.320312 -70.84375 24.109375 -71.523438 25.453125 -72.109375 C 26.796875 -72.703125 28.113281 -73 29.40625 -73 C 30.238281 -73 30.894531 -72.828125 31.375 -72.484375 C 31.851562 -72.148438 32.007812 -71.675781 31.84375 -71.0625 L 31.328125 -69.125 L 35.28125 -69.21875 C 39.363281 -69.21875 44.039062 -69.019531 49.3125 -68.625 Z M 49.3125 -68.625 "/></g></g></g><g fill="#41b211" fill-opacity="1"><g transform="translate(279.143109, 321.668021)"><g><path d="M 25.375 -55.4375 C 26.988281 -56.113281 28.46875 -56.453125 29.8125 -56.453125 C 31.269531 -56.453125 32.445312 -56.070312 33.34375 -55.3125 C 34.238281 -54.5625 34.6875 -53.34375 34.6875 -51.65625 C 34.6875 -50.03125 34.4375 -48.265625 33.9375 -46.359375 C 33.4375 -44.460938 32.738281 -42.222656 31.84375 -39.640625 L 30.65625 -36.125 C 30.320312 -35.0625 29.453125 -34.164062 28.046875 -33.4375 C 26.648438 -32.707031 25.3125 -32.34375 24.03125 -32.34375 C 23.1875 -32.34375 22.550781 -32.523438 22.125 -32.890625 C 21.707031 -33.253906 21.613281 -33.800781 21.84375 -34.53125 C 22.851562 -37.664062 23.859375 -41.132812 24.859375 -44.9375 C 25.085938 -46.675781 25.257812 -47.828125 25.375 -48.390625 L 25.03125 -48.046875 C 20.71875 -44.347656 16.769531 -39.703125 13.1875 -34.109375 C 11.5625 -25.203125 10.550781 -16.269531 10.15625 -7.3125 C 10.101562 -6.25 9.390625 -5.3125 8.015625 -4.5 C 6.648438 -3.6875 5.238281 -3.28125 3.78125 -3.28125 C 2.9375 -3.28125 2.234375 -3.472656 1.671875 -3.859375 C 1.117188 -4.253906 0.867188 -4.84375 0.921875 -5.625 C 1.367188 -13.6875 2.238281 -21.523438 3.53125 -29.140625 C 2.96875 -29.535156 2.6875 -29.984375 2.6875 -30.484375 C 2.6875 -30.828125 2.800781 -31.191406 3.03125 -31.578125 L 4.28125 -33.6875 C 5.507812 -40.125 7.019531 -46.59375 8.8125 -53.09375 C 9.09375 -54.09375 9.972656 -54.972656 11.453125 -55.734375 C 12.941406 -56.492188 14.359375 -56.875 15.703125 -56.875 C 16.546875 -56.875 17.191406 -56.703125 17.640625 -56.359375 C 18.085938 -56.023438 18.195312 -55.523438 17.96875 -54.859375 C 17.070312 -51.710938 16.515625 -49.640625 16.296875 -48.640625 C 19.660156 -51.992188 22.6875 -54.257812 25.375 -55.4375 Z M 25.375 -55.4375 "/></g></g></g><g fill="#41b211" fill-opacity="1"><g transform="translate(317.610855, 321.668021)"><g><path d="M 9.484375 -15.625 C 9.378906 -14.945312 9.328125 -14.472656 9.328125 -14.203125 C 9.328125 -11.960938 10.414062 -10.84375 12.59375 -10.84375 C 13.882812 -10.84375 15.453125 -11.203125 17.296875 -11.921875 C 18.984375 -12.597656 22.09375 -14.03125 26.625 -16.21875 C 26.738281 -17.613281 26.863281 -18.96875 27 -20.28125 C 27.144531 -21.601562 27.273438 -22.796875 27.390625 -23.859375 L 27.96875 -29.65625 C 24.101562 -27.800781 21.21875 -26.34375 19.3125 -25.28125 C 16.519531 -23.65625 14.28125 -22.128906 12.59375 -20.703125 C 10.914062 -19.273438 9.878906 -17.582031 9.484375 -15.625 Z M 31.328125 -55.1875 C 33.847656 -55.1875 35.539062 -54.554688 36.40625 -53.296875 C 37.28125 -52.035156 37.71875 -50.203125 37.71875 -47.796875 L 37.625 -45.4375 C 37.40625 -41.351562 36.90625 -35.363281 36.125 -27.46875 C 35.957031 -26.34375 35.757812 -24.46875 35.53125 -21.84375 C 35.3125 -20.21875 35.113281 -18.898438 34.9375 -17.890625 C 35.5625 -17.554688 35.875 -17.109375 35.875 -16.546875 C 35.875 -16.148438 35.675781 -15.5625 35.28125 -14.78125 L 34.9375 -14.359375 L 34.4375 -13.859375 C 34.050781 -11.003906 33.859375 -8.566406 33.859375 -6.546875 C 34.640625 -6.097656 35.03125 -5.566406 35.03125 -4.953125 C 35.03125 -4.003906 34.328125 -3 32.921875 -1.9375 C 32.535156 -1.65625 32.085938 -1.375 31.578125 -1.09375 C 31.191406 -0.863281 30.644531 -0.664062 29.9375 -0.5 C 29.238281 -0.332031 28.554688 -0.25 27.890625 -0.25 C 25.816406 -0.25 24.863281 -1.003906 25.03125 -2.515625 L 25.703125 -9.578125 C 18.203125 -5.992188 12.4375 -4.203125 8.40625 -4.203125 C 3.300781 -4.203125 0.75 -6.945312 0.75 -12.4375 C 0.75 -17.695312 3.476562 -22.175781 8.9375 -25.875 C 14.40625 -29.570312 20.945312 -32.90625 28.5625 -35.875 C 28.78125 -38.050781 28.945312 -40.257812 29.0625 -42.5 C 29.0625 -42.945312 29.085938 -43.503906 29.140625 -44.171875 C 29.203125 -44.847656 29.234375 -45.609375 29.234375 -46.453125 C 29.234375 -47.515625 29.148438 -48.210938 28.984375 -48.546875 L 28.734375 -48.890625 L 28.640625 -48.890625 C 27.804688 -48.890625 26.238281 -47.738281 23.9375 -45.4375 C 21.863281 -43.425781 19.289062 -40.40625 16.21875 -36.375 C 15.769531 -35.757812 15.023438 -35.253906 13.984375 -34.859375 C 12.953125 -34.460938 11.90625 -34.265625 10.84375 -34.265625 C 10.050781 -34.265625 9.390625 -34.40625 8.859375 -34.6875 C 8.328125 -34.96875 8.0625 -35.390625 8.0625 -35.953125 C 8.0625 -36.398438 8.285156 -36.988281 8.734375 -37.71875 C 16.460938 -49.363281 23.992188 -55.1875 31.328125 -55.1875 Z M 31.328125 -55.1875 "/></g></g></g><g fill="#41b211" fill-opacity="1"><g transform="translate(364.561449, 321.668021)"><g><path d="M 32.515625 -54.1875 C 32.898438 -54.738281 33.691406 -55.222656 34.890625 -55.640625 C 36.097656 -56.066406 37.234375 -56.28125 38.296875 -56.28125 C 39.085938 -56.28125 39.71875 -56.164062 40.1875 -55.9375 C 40.664062 -55.71875 40.90625 -55.359375 40.90625 -54.859375 C 40.90625 -54.460938 40.765625 -54.039062 40.484375 -53.59375 C 35.890625 -45.914062 32.039062 -38.3125 28.9375 -30.78125 C 25.832031 -23.25 23.4375 -15.453125 21.75 -7.390625 C 21.53125 -6.328125 20.734375 -5.359375 19.359375 -4.484375 C 17.984375 -3.617188 16.625 -3.1875 15.28125 -3.1875 C 13.769531 -3.1875 12.820312 -3.773438 12.4375 -4.953125 C 10.300781 -11.222656 8.800781 -17.617188 7.9375 -24.140625 C 7.070312 -30.671875 6.273438 -39.113281 5.546875 -49.46875 L 5.453125 -51.234375 C 5.398438 -52.472656 6.144531 -53.566406 7.6875 -54.515625 C 9.226562 -55.460938 10.753906 -55.9375 12.265625 -55.9375 C 13.722656 -55.9375 14.476562 -55.4375 14.53125 -54.4375 C 14.644531 -53.09375 14.703125 -52.023438 14.703125 -51.234375 L 14.703125 -50.984375 C 15.316406 -40.285156 16.210938 -31.609375 17.390625 -24.953125 C 21.253906 -36.035156 26.296875 -45.78125 32.515625 -54.1875 Z M 32.515625 -54.1875 "/></g></g></g><g fill="#41b211" fill-opacity="1"><g transform="translate(410.000263, 321.668021)"><g><path d="M 24.28125 -48.296875 C 21.414062 -46.117188 19.085938 -42.59375 17.296875 -37.71875 C 22.785156 -39.789062 27.742188 -41.523438 32.171875 -42.921875 C 30.328125 -45.492188 28.453125 -47.226562 26.546875 -48.125 C 26.148438 -48.300781 25.769531 -48.414062 25.40625 -48.46875 C 25.039062 -48.519531 24.832031 -48.546875 24.78125 -48.546875 C 24.832031 -48.492188 24.785156 -48.4375 24.640625 -48.375 C 24.503906 -48.320312 24.382812 -48.296875 24.28125 -48.296875 Z M 24.609375 -54.265625 C 25.503906 -54.484375 26.457031 -54.59375 27.46875 -54.59375 C 32.84375 -54.59375 37.710938 -50.984375 42.078125 -43.765625 C 42.253906 -43.535156 42.34375 -43.253906 42.34375 -42.921875 C 42.34375 -42.304688 41.945312 -41.660156 41.15625 -40.984375 C 40.539062 -40.316406 39.757812 -39.785156 38.8125 -39.390625 C 33.207031 -36.929688 25.421875 -33.992188 15.453125 -30.578125 C 14.890625 -27.722656 14.609375 -24.78125 14.609375 -21.75 C 14.609375 -20.351562 14.640625 -19.347656 14.703125 -18.734375 C 14.816406 -16.210938 15.320312 -14.03125 16.21875 -12.1875 C 16.488281 -11.5625 16.890625 -10.96875 17.421875 -10.40625 C 17.960938 -9.851562 18.367188 -9.492188 18.640625 -9.328125 C 18.816406 -9.210938 19.097656 -9.15625 19.484375 -9.15625 C 19.878906 -9.15625 20.34375 -9.265625 20.875 -9.484375 C 21.40625 -9.710938 22.007812 -10.023438 22.6875 -10.421875 C 24.300781 -11.367188 25.804688 -12.457031 27.203125 -13.6875 C 28.609375 -14.925781 30.289062 -16.523438 32.25 -18.484375 C 33.039062 -19.265625 34.359375 -19.65625 36.203125 -19.65625 C 37.210938 -19.65625 38.066406 -19.5 38.765625 -19.1875 C 39.460938 -18.882812 39.8125 -18.453125 39.8125 -17.890625 C 39.8125 -17.390625 39.53125 -16.832031 38.96875 -16.21875 C 35.5 -12.457031 31.941406 -9.257812 28.296875 -6.625 C 24.660156 -4 21.023438 -2.6875 17.390625 -2.6875 C 15.648438 -2.6875 14.023438 -3.050781 12.515625 -3.78125 C 9.992188 -4.957031 8.171875 -6.832031 7.046875 -9.40625 C 5.929688 -11.976562 5.375 -15.003906 5.375 -18.484375 C 5.375 -21.054688 5.710938 -24.078125 6.390625 -27.546875 L 5.71875 -27.390625 L 5.046875 -27.125 C 4.203125 -26.851562 3.53125 -26.71875 3.03125 -26.71875 C 2.238281 -26.71875 1.617188 -26.910156 1.171875 -27.296875 C 0.722656 -27.691406 0.5 -28.195312 0.5 -28.8125 C 0.5 -29.539062 0.789062 -30.253906 1.375 -30.953125 C 1.96875 -31.648438 2.851562 -32.222656 4.03125 -32.671875 L 8.140625 -34.265625 C 8.648438 -35.835938 9.410156 -37.882812 10.421875 -40.40625 C 11.984375 -43.875 13.941406 -46.867188 16.296875 -49.390625 C 18.648438 -51.910156 21.421875 -53.535156 24.609375 -54.265625 Z M 24.609375 -54.265625 "/></g></g></g><g fill="#41b211" fill-opacity="1"><g transform="translate(458.546629, 321.668021)"><g><path d="M 9.15625 -70.390625 C 9.269531 -71.453125 10.007812 -72.359375 11.375 -73.109375 C 12.75 -73.867188 14.109375 -74.25 15.453125 -74.25 C 16.296875 -74.25 16.941406 -74.082031 17.390625 -73.75 C 17.835938 -73.414062 18.03125 -72.882812 17.96875 -72.15625 C 16.351562 -57.539062 14.675781 -42.925781 12.9375 -28.3125 L 10.421875 -6.390625 C 10.304688 -5.316406 9.546875 -4.390625 8.140625 -3.609375 C 6.742188 -2.828125 5.347656 -2.4375 3.953125 -2.4375 C 2.046875 -2.4375 1.175781 -3.164062 1.34375 -4.625 L 5.296875 -37.546875 C 7.085938 -53.003906 8.375 -63.953125 9.15625 -70.390625 Z M 9.15625 -70.390625 "/></g></g></g><g fill="#41b211" fill-opacity="1"><g transform="translate(482.904295, 321.668021)"><g/></g></g><g fill="#41b211" fill-opacity="1"><g transform="translate(513.477133, 321.668021)"><g><path d="M 49.3125 -68.625 C 50.539062 -68.570312 51.15625 -68.179688 51.15625 -67.453125 C 51.15625 -66.609375 50.492188 -65.664062 49.171875 -64.625 C 47.859375 -63.59375 46.703125 -63.078125 45.703125 -63.078125 C 40.878906 -63.078125 35.53125 -62.941406 29.65625 -62.671875 C 24.894531 -43.566406 21.585938 -25.867188 19.734375 -9.578125 C 20.523438 -9.515625 21.1875 -9.328125 21.71875 -9.015625 C 22.25 -8.710938 22.515625 -8.3125 22.515625 -7.8125 C 22.515625 -7.132812 22.007812 -6.40625 21 -5.625 L 17.71875 -3.109375 C 17.332031 -2.710938 16.59375 -2.347656 15.5 -2.015625 C 14.40625 -1.679688 13.382812 -1.515625 12.4375 -1.515625 C 10.695312 -1.515625 9.910156 -2.210938 10.078125 -3.609375 C 12.035156 -22.035156 15.617188 -41.410156 20.828125 -61.734375 L 20.75 -62.078125 C 14.363281 -61.515625 8.398438 -60.898438 2.859375 -60.234375 C 2.015625 -60.117188 1.335938 -60.242188 0.828125 -60.609375 C 0.328125 -60.972656 0.109375 -61.546875 0.171875 -62.328125 C 0.222656 -63.109375 0.710938 -63.75 1.640625 -64.25 C 2.566406 -64.757812 3.5625 -65.15625 4.625 -65.4375 C 10 -67 15.988281 -68.0625 22.59375 -68.625 L 23.09375 -70.0625 C 23.320312 -70.84375 24.109375 -71.523438 25.453125 -72.109375 C 26.796875 -72.703125 28.113281 -73 29.40625 -73 C 30.238281 -73 30.894531 -72.828125 31.375 -72.484375 C 31.851562 -72.148438 32.007812 -71.675781 31.84375 -71.0625 L 31.328125 -69.125 L 35.28125 -69.21875 C 39.363281 -69.21875 44.039062 -69.019531 49.3125 -68.625 Z M 49.3125 -68.625 "/></g></g></g><g fill="#41b211" fill-opacity="1"><g transform="translate(561.68754, 321.668021)"><g><path d="M 36.796875 -54.765625 C 37.691406 -54.484375 38.109375 -53.894531 38.046875 -53 C 36.484375 -37.988281 34.1875 -22.335938 31.15625 -6.046875 C 30.9375 -4.984375 30.15625 -4.085938 28.8125 -3.359375 C 27.46875 -2.628906 26.125 -2.265625 24.78125 -2.265625 C 23.9375 -2.265625 23.265625 -2.445312 22.765625 -2.8125 C 22.265625 -3.175781 22.097656 -3.695312 22.265625 -4.375 C 23.609375 -10.195312 24.726562 -16.160156 25.625 -22.265625 C 26.519531 -28.367188 27.382812 -35.367188 28.21875 -43.265625 C 23.632812 -39.003906 19.046875 -34.351562 14.453125 -29.3125 L 9.828125 -3.78125 C 9.597656 -2.71875 8.785156 -1.789062 7.390625 -1 C 5.992188 -0.21875 4.59375 0.171875 3.1875 0.171875 C 2.351562 0.171875 1.710938 -0.0078125 1.265625 -0.375 C 0.816406 -0.738281 0.644531 -1.285156 0.75 -2.015625 L 4.875 -25.109375 C 4.195312 -25.285156 3.859375 -25.679688 3.859375 -26.296875 C 3.859375 -26.742188 4.113281 -27.300781 4.625 -27.96875 L 5.625 -29.3125 L 13.1875 -70.390625 C 13.351562 -71.398438 14.132812 -72.269531 15.53125 -73 C 16.9375 -73.726562 18.3125 -74.09375 19.65625 -74.09375 C 20.4375 -74.09375 21.050781 -73.921875 21.5 -73.578125 C 21.945312 -73.242188 22.117188 -72.769531 22.015625 -72.15625 L 16.625 -41.75 C 20.769531 -45.894531 25.390625 -49.84375 30.484375 -53.59375 C 32.109375 -54.707031 33.625 -55.265625 35.03125 -55.265625 C 35.695312 -55.265625 36.285156 -55.097656 36.796875 -54.765625 Z M 36.796875 -54.765625 "/></g></g></g><g fill="#41b211" fill-opacity="1"><g transform="translate(610.653842, 321.668021)"><g><path d="M 24.28125 -48.296875 C 21.414062 -46.117188 19.085938 -42.59375 17.296875 -37.71875 C 22.785156 -39.789062 27.742188 -41.523438 32.171875 -42.921875 C 30.328125 -45.492188 28.453125 -47.226562 26.546875 -48.125 C 26.148438 -48.300781 25.769531 -48.414062 25.40625 -48.46875 C 25.039062 -48.519531 24.832031 -48.546875 24.78125 -48.546875 C 24.832031 -48.492188 24.785156 -48.4375 24.640625 -48.375 C 24.503906 -48.320312 24.382812 -48.296875 24.28125 -48.296875 Z M 24.609375 -54.265625 C 25.503906 -54.484375 26.457031 -54.59375 27.46875 -54.59375 C 32.84375 -54.59375 37.710938 -50.984375 42.078125 -43.765625 C 42.253906 -43.535156 42.34375 -43.253906 42.34375 -42.921875 C 42.34375 -42.304688 41.945312 -41.660156 41.15625 -40.984375 C 40.539062 -40.316406 39.757812 -39.785156 38.8125 -39.390625 C 33.207031 -36.929688 25.421875 -33.992188 15.453125 -30.578125 C 14.890625 -27.722656 14.609375 -24.78125 14.609375 -21.75 C 14.609375 -20.351562 14.640625 -19.347656 14.703125 -18.734375 C 14.816406 -16.210938 15.320312 -14.03125 16.21875 -12.1875 C 16.488281 -11.5625 16.890625 -10.96875 17.421875 -10.40625 C 17.960938 -9.851562 18.367188 -9.492188 18.640625 -9.328125 C 18.816406 -9.210938 19.097656 -9.15625 19.484375 -9.15625 C 19.878906 -9.15625 20.34375 -9.265625 20.875 -9.484375 C 21.40625 -9.710938 22.007812 -10.023438 22.6875 -10.421875 C 24.300781 -11.367188 25.804688 -12.457031 27.203125 -13.6875 C 28.609375 -14.925781 30.289062 -16.523438 32.25 -18.484375 C 33.039062 -19.265625 34.359375 -19.65625 36.203125 -19.65625 C 37.210938 -19.65625 38.066406 -19.5 38.765625 -19.1875 C 39.460938 -18.882812 39.8125 -18.453125 39.8125 -17.890625 C 39.8125 -17.390625 39.53125 -16.832031 38.96875 -16.21875 C 35.5 -12.457031 31.941406 -9.257812 28.296875 -6.625 C 24.660156 -4 21.023438 -2.6875 17.390625 -2.6875 C 15.648438 -2.6875 14.023438 -3.050781 12.515625 -3.78125 C 9.992188 -4.957031 8.171875 -6.832031 7.046875 -9.40625 C 5.929688 -11.976562 5.375 -15.003906 5.375 -18.484375 C 5.375 -21.054688 5.710938 -24.078125 6.390625 -27.546875 L 5.71875 -27.390625 L 5.046875 -27.125 C 4.203125 -26.851562 3.53125 -26.71875 3.03125 -26.71875 C 2.238281 -26.71875 1.617188 -26.910156 1.171875 -27.296875 C 0.722656 -27.691406 0.5 -28.195312 0.5 -28.8125 C 0.5 -29.539062 0.789062 -30.253906 1.375 -30.953125 C 1.96875 -31.648438 2.851562 -32.222656 4.03125 -32.671875 L 8.140625 -34.265625 C 8.648438 -35.835938 9.410156 -37.882812 10.421875 -40.40625 C 11.984375 -43.875 13.941406 -46.867188 16.296875 -49.390625 C 18.648438 -51.910156 21.421875 -53.535156 24.609375 -54.265625 Z M 24.609375 -54.265625 "/></g></g></g><g fill="#41b211" fill-opacity="1"><g transform="translate(659.200192, 321.668021)"><g/></g></g><g fill="#41b211" fill-opacity="1"><g transform="translate(689.773012, 321.668021)"><g><path d="M 48.96875 -68.453125 C 49.363281 -69.242188 50.191406 -69.90625 51.453125 -70.4375 C 52.710938 -70.96875 53.957031 -71.234375 55.1875 -71.234375 C 56.925781 -71.234375 57.796875 -70.726562 57.796875 -69.71875 C 57.796875 -69.320312 57.679688 -68.929688 57.453125 -68.546875 C 53.984375 -61.929688 50.957031 -55.148438 48.375 -48.203125 C 45.800781 -41.265625 42.863281 -32.5625 39.5625 -22.09375 C 37.207031 -14.59375 35.390625 -8.992188 34.109375 -5.296875 C 33.828125 -4.503906 33.015625 -3.742188 31.671875 -3.015625 C 30.328125 -2.296875 29.066406 -1.9375 27.890625 -1.9375 C 26.484375 -1.9375 25.671875 -2.523438 25.453125 -3.703125 C 23.660156 -12.710938 22.597656 -22.257812 22.265625 -32.34375 L 10.671875 -5.625 C 10.328125 -4.84375 9.441406 -4.101562 8.015625 -3.40625 C 6.585938 -2.707031 5.285156 -2.359375 4.109375 -2.359375 C 3.328125 -2.359375 2.710938 -2.550781 2.265625 -2.9375 C 1.816406 -3.332031 1.648438 -3.921875 1.765625 -4.703125 C 2.546875 -11.367188 3.664062 -21.363281 5.125 -34.6875 L 8.40625 -64.6875 C 8.507812 -65.6875 9.257812 -66.5625 10.65625 -67.3125 C 12.0625 -68.070312 13.4375 -68.453125 14.78125 -68.453125 C 15.625 -68.453125 16.269531 -68.285156 16.71875 -67.953125 C 17.164062 -67.617188 17.359375 -67.113281 17.296875 -66.4375 C 16.398438 -58.15625 15.171875 -46.957031 13.609375 -32.84375 C 15.734375 -37.65625 18.867188 -44.878906 23.015625 -54.515625 C 23.347656 -55.296875 24.210938 -56.019531 25.609375 -56.6875 C 27.015625 -57.363281 28.332031 -57.703125 29.5625 -57.703125 C 30.351562 -57.703125 30.957031 -57.503906 31.375 -57.109375 C 31.789062 -56.722656 31.972656 -56.140625 31.921875 -55.359375 C 31.304688 -49.304688 31 -43.453125 31 -37.796875 C 31 -33.546875 31.164062 -29.316406 31.5 -25.109375 C 34.300781 -33.898438 37.046875 -41.769531 39.734375 -48.71875 C 42.421875 -55.664062 45.5 -62.242188 48.96875 -68.453125 Z M 48.96875 -68.453125 "/></g></g></g><g fill="#41b211" fill-opacity="1"><g transform="translate(745.374403, 321.668021)"><g><path d="M 33.515625 -32.421875 C 33.515625 -38.359375 30.039062 -43.035156 23.09375 -46.453125 C 21.363281 -44.992188 19.628906 -43.0625 17.890625 -40.65625 C 15.765625 -37.570312 14 -34.128906 12.59375 -30.328125 C 12.039062 -28.816406 11.507812 -26.757812 11 -24.15625 C 10.5 -21.550781 10.25 -19.128906 10.25 -16.890625 C 10.25 -14.585938 10.570312 -12.75 11.21875 -11.375 C 11.863281 -10.007812 12.910156 -9.328125 14.359375 -9.328125 C 15.535156 -9.328125 16.910156 -9.800781 18.484375 -10.75 C 22.796875 -13.269531 26.378906 -16.40625 29.234375 -20.15625 C 32.085938 -23.90625 33.515625 -27.992188 33.515625 -32.421875 Z M 35.875 -47.625 C 37.882812 -45.71875 39.4375 -43.5625 40.53125 -41.15625 C 41.625 -38.75 42.171875 -36.203125 42.171875 -33.515625 C 42.171875 -29.648438 41.050781 -25.726562 38.8125 -21.75 C 37.300781 -19.0625 35.085938 -16.234375 32.171875 -13.265625 C 29.253906 -10.296875 26.019531 -7.789062 22.46875 -5.75 C 18.914062 -3.707031 15.515625 -2.6875 12.265625 -2.6875 C 10.242188 -2.6875 8.335938 -3.132812 6.546875 -4.03125 C 2.742188 -6.101562 0.84375 -9.828125 0.84375 -15.203125 C 0.84375 -19.066406 1.707031 -23.304688 3.4375 -27.921875 C 5.175781 -32.546875 7.023438 -36.453125 8.984375 -39.640625 C 13.742188 -47.203125 18.757812 -51.960938 24.03125 -53.921875 C 25.476562 -54.484375 27.046875 -54.765625 28.734375 -54.765625 C 30.691406 -54.765625 32.34375 -54.273438 33.6875 -53.296875 C 35.03125 -52.316406 35.8125 -50.789062 36.03125 -48.71875 L 36.03125 -48.390625 C 36.03125 -48.210938 35.976562 -47.957031 35.875 -47.625 Z M 35.875 -47.625 "/></g></g></g><g fill="#41b211" fill-opacity="1"><g transform="translate(793.500834, 321.668021)"><g><path d="M 25.375 -55.4375 C 26.988281 -56.113281 28.46875 -56.453125 29.8125 -56.453125 C 31.269531 -56.453125 32.445312 -56.070312 33.34375 -55.3125 C 34.238281 -54.5625 34.6875 -53.34375 34.6875 -51.65625 C 34.6875 -50.03125 34.4375 -48.265625 33.9375 -46.359375 C 33.4375 -44.460938 32.738281 -42.222656 31.84375 -39.640625 L 30.65625 -36.125 C 30.320312 -35.0625 29.453125 -34.164062 28.046875 -33.4375 C 26.648438 -32.707031 25.3125 -32.34375 24.03125 -32.34375 C 23.1875 -32.34375 22.550781 -32.523438 22.125 -32.890625 C 21.707031 -33.253906 21.613281 -33.800781 21.84375 -34.53125 C 22.851562 -37.664062 23.859375 -41.132812 24.859375 -44.9375 C 25.085938 -46.675781 25.257812 -47.828125 25.375 -48.390625 L 25.03125 -48.046875 C 20.71875 -44.347656 16.769531 -39.703125 13.1875 -34.109375 C 11.5625 -25.203125 10.550781 -16.269531 10.15625 -7.3125 C 10.101562 -6.25 9.390625 -5.3125 8.015625 -4.5 C 6.648438 -3.6875 5.238281 -3.28125 3.78125 -3.28125 C 2.9375 -3.28125 2.234375 -3.472656 1.671875 -3.859375 C 1.117188 -4.253906 0.867188 -4.84375 0.921875 -5.625 C 1.367188 -13.6875 2.238281 -21.523438 3.53125 -29.140625 C 2.96875 -29.535156 2.6875 -29.984375 2.6875 -30.484375 C 2.6875 -30.828125 2.800781 -31.191406 3.03125 -31.578125 L 4.28125 -33.6875 C 5.507812 -40.125 7.019531 -46.59375 8.8125 -53.09375 C 9.09375 -54.09375 9.972656 -54.972656 11.453125 -55.734375 C 12.941406 -56.492188 14.359375 -56.875 15.703125 -56.875 C 16.546875 -56.875 17.191406 -56.703125 17.640625 -56.359375 C 18.085938 -56.023438 18.195312 -55.523438 17.96875 -54.859375 C 17.070312 -51.710938 16.515625 -49.640625 16.296875 -48.640625 C 19.660156 -51.992188 22.6875 -54.257812 25.375 -55.4375 Z M 25.375 -55.4375 "/></g></g></g><g fill="#41b211" fill-opacity="1"><g transform="translate(831.968566, 321.668021)"><g><path d="M 9.15625 -70.390625 C 9.269531 -71.453125 10.007812 -72.359375 11.375 -73.109375 C 12.75 -73.867188 14.109375 -74.25 15.453125 -74.25 C 16.296875 -74.25 16.941406 -74.082031 17.390625 -73.75 C 17.835938 -73.414062 18.03125 -72.882812 17.96875 -72.15625 C 16.351562 -57.539062 14.675781 -42.925781 12.9375 -28.3125 L 10.421875 -6.390625 C 10.304688 -5.316406 9.546875 -4.390625 8.140625 -3.609375 C 6.742188 -2.828125 5.347656 -2.4375 3.953125 -2.4375 C 2.046875 -2.4375 1.175781 -3.164062 1.34375 -4.625 L 5.296875 -37.546875 C 7.085938 -53.003906 8.375 -63.953125 9.15625 -70.390625 Z M 9.15625 -70.390625 "/></g></g></g><g fill="#41b211" fill-opacity="1"><g transform="translate(856.326215, 321.668021)"><g><path d="M 12.015625 -10.328125 C 13.078125 -9.492188 14.445312 -9.078125 16.125 -9.078125 C 18.082031 -9.078125 20.578125 -9.71875 23.609375 -11 C 25.398438 -21.363281 26.796875 -31.554688 27.796875 -41.578125 L 27.640625 -41.578125 C 24.609375 -41.578125 21.832031 -40.539062 19.3125 -38.46875 C 16.800781 -36.394531 14.71875 -33.816406 13.0625 -30.734375 C 11.40625 -27.660156 10.269531 -24.613281 9.65625 -21.59375 C 9.375 -20.1875 9.234375 -18.8125 9.234375 -17.46875 C 9.234375 -14.164062 10.160156 -11.785156 12.015625 -10.328125 Z M 29.8125 -68.203125 C 29.875 -69.210938 30.578125 -70.09375 31.921875 -70.84375 C 33.265625 -71.601562 34.632812 -71.984375 36.03125 -71.984375 C 37.769531 -71.984375 38.613281 -71.34375 38.5625 -70.0625 C 37.601562 -51.582031 35.585938 -32.515625 32.515625 -12.859375 C 33.410156 -12.410156 33.859375 -11.820312 33.859375 -11.09375 C 33.859375 -10.25 33.1875 -9.4375 31.84375 -8.65625 L 31.328125 -5.546875 C 31.109375 -4.484375 30.3125 -3.570312 28.9375 -2.8125 C 27.5625 -2.0625 26.203125 -1.6875 24.859375 -1.6875 C 24.023438 -1.6875 23.351562 -1.863281 22.84375 -2.21875 C 22.34375 -2.582031 22.175781 -3.128906 22.34375 -3.859375 C 22.34375 -4.140625 22.367188 -4.335938 22.421875 -4.453125 C 18.835938 -3.328125 15.875 -2.765625 13.53125 -2.765625 C 10.945312 -2.765625 8.617188 -3.328125 6.546875 -4.453125 C 4.472656 -5.515625 2.960938 -7.050781 2.015625 -9.0625 C 1.066406 -11.082031 0.59375 -13.351562 0.59375 -15.875 C 0.59375 -16.769531 0.703125 -18.003906 0.921875 -19.578125 C 1.703125 -24.109375 3.378906 -28.472656 5.953125 -32.671875 C 8.535156 -36.867188 11.785156 -40.3125 15.703125 -43 C 19.628906 -45.695312 23.859375 -47.128906 28.390625 -47.296875 C 29.066406 -54.960938 29.539062 -61.929688 29.8125 -68.203125 Z M 29.8125 -68.203125 "/></g></g></g></svg>